STARTFONT 2.1
FONT -Misc-Fixed-Bold-R-Normal--32-310-75-75-P-180-ISO10646-1
SIZE 31 75 75
FONTBOUNDINGBOX 23 32 0 -7
COMMENT "Generated by fontforge, http://fontforge.sourceforge.net"
COMMENT "Public domain font.  Share and enjoy."
STARTPROPERTIES 31
FOUNDRY "Misc"
FAMILY_NAME "Fixed"
WEIGHT_NAME "Bold"
SLANT "R"
SETWIDTH_NAME "Normal"
ADD_STYLE_NAME ""
PIXEL_SIZE 32
POINT_SIZE 310
RESOLUTION_X 75
RESOLUTION_Y 75
SPACING "P"
AVERAGE_WIDTH 180
CHARSET_REGISTRY "ISO10646"
CHARSET_ENCODING "1"
FONTNAME_REGISTRY ""
CHARSET_COLLECTIONS "ISO8859-2 ISO8859-5 ISO8859-7 ISO8859-9 ISO8859-8 ISO8859-4 ISO8859-11 ISO10646-1"
FONT_NAME "FixedBold"
FACE_NAME "Fixed Bold"
COPYRIGHT "Public domain font.  Share and enjoy."
FONT_VERSION "001.000"
FONT_ASCENT 24
FONT_DESCENT 8
UNDERLINE_POSITION -3
UNDERLINE_THICKNESS 2
X_HEIGHT 12
CAP_HEIGHT 17
RAW_ASCENT 777
RAW_DESCENT 223
NORM_SPACE 18
AVG_LOWERCASE_WIDTH 180
AVG_UPPERCASE_WIDTH 180
ENDPROPERTIES
CHARS 762
STARTCHAR char0
ENCODING 0
SWIDTH 540 0
DWIDTH 18 0
BBX 12 18 2 0
BITMAP
E790
E7B0
0030
0010
C000
C010
C030
0030
0030
C000
C000
C030
8030
0030
8000
C000
DE70
9E70
ENDCHAR
STARTCHAR space
ENCODING 32
SWIDTH 540 0
DWIDTH 18 0
BBX 1 1 15 -7
BITMAP
00
ENDCHAR
STARTCHAR exclam
ENCODING 33
SWIDTH 540 0
DWIDTH 18 0
BBX 4 20 5 0
BITMAP
70
F0
F0
F0
F0
F0
F0
F0
F0
F0
F0
F0
F0
00
00
00
70
F0
F0
F0
ENDCHAR
STARTCHAR quotedbl
ENCODING 34
SWIDTH 540 0
DWIDTH 18 0
BBX 8 7 4 13
BITMAP
E7
E7
E7
E7
E7
E7
E7
ENDCHAR
STARTCHAR numbersign
ENCODING 35
SWIDTH 540 0
DWIDTH 18 0
BBX 12 18 2 0
BITMAP
39C0
39C0
39C0
39C0
39C0
FFF0
FFF0
79E0
39C0
39C0
79E0
FFF0
FFF0
39C0
39C0
39C0
39C0
39C0
ENDCHAR
STARTCHAR dollar
ENCODING 36
SWIDTH 540 0
DWIDTH 18 0
BBX 14 20 0 -2
BITMAP
0780
0780
3FF0
3FF8
F79C
F780
F780
3F80
3F80
0FE0
0FE0
07F0
07F8
079C
E79C
F79C
3FF8
3FF0
0780
0380
ENDCHAR
STARTCHAR percent
ENCODING 37
SWIDTH 540 0
DWIDTH 18 0
BBX 14 18 0 0
BITMAP
3E1C
3E1C
F7F0
F7F0
F7F0
79E0
39E0
0780
0780
0780
0780
0E70
1F78
3F9C
3F9C
3F9C
F1F8
E1F0
ENDCHAR
STARTCHAR ampersand
ENCODING 38
SWIDTH 540 0
DWIDTH 18 0
BBX 14 18 0 0
BITMAP
3E00
3E00
F780
F780
F780
F780
F780
3E00
3E00
3E1C
3E1C
F7F0
F3F0
F1E0
F3F0
F7F0
3E1C
3E1C
ENDCHAR
STARTCHAR quotesingle
ENCODING 39
SWIDTH 540 0
DWIDTH 18 0
BBX 4 7 5 13
BITMAP
70
F0
F0
F0
F0
F0
F0
ENDCHAR
STARTCHAR parenleft
ENCODING 40
SWIDTH 540 0
DWIDTH 18 0
BBX 7 22 4 -2
BITMAP
1C
1E
78
78
78
78
E0
E0
E0
E0
E0
E0
E0
E0
E0
E0
78
78
78
78
1E
1C
ENDCHAR
STARTCHAR parenright
ENCODING 41
SWIDTH 540 0
DWIDTH 18 0
BBX 7 22 4 -2
BITMAP
E0
E0
78
78
78
38
1E
1E
1E
1E
1E
1E
1E
1E
1E
1E
38
78
78
78
E0
E0
ENDCHAR
STARTCHAR asterisk
ENCODING 42
SWIDTH 540 0
DWIDTH 18 0
BBX 14 12 0 2
BITMAP
0780
E79C
F79C
3FF8
3FF0
0FE0
1FE0
3FF0
7FF8
F79C
0780
0780
ENDCHAR
STARTCHAR plus
ENCODING 43
SWIDTH 540 0
DWIDTH 18 0
BBX 14 12 0 2
BITMAP
0780
0780
0780
0780
0780
FFFC
FFFC
0780
0780
0780
0780
0780
ENDCHAR
STARTCHAR comma
ENCODING 44
SWIDTH 540 0
DWIDTH 18 0
BBX 6 7 5 -3
BITMAP
78
FC
FC
FC
3C
38
F0
ENDCHAR
STARTCHAR hyphen
ENCODING 45
SWIDTH 540 0
DWIDTH 18 0
BBX 12 2 2 7
BITMAP
FFF0
FFF0
ENDCHAR
STARTCHAR period
ENCODING 46
SWIDTH 540 0
DWIDTH 18 0
BBX 6 4 5 0
BITMAP
78
FC
FC
FC
ENDCHAR
STARTCHAR slash
ENCODING 47
SWIDTH 540 0
DWIDTH 18 0
BBX 14 18 0 0
BITMAP
001C
001C
0070
0070
0070
00E0
01E0
0780
0780
0780
0780
0E00
1E00
3800
3800
3800
F000
E000
ENDCHAR
STARTCHAR zero
ENCODING 48
SWIDTH 1080 0
DWIDTH 35 0
BBX 12 18 11 0
BITMAP
0F80
1F80
39E0
78E0
F070
F070
F070
F070
F070
F070
F070
F070
F070
F070
39E0
39E0
0F80
0F80
ENDCHAR
STARTCHAR one
ENCODING 49
SWIDTH 1080 0
DWIDTH 35 0
BBX 14 18 9 0
BITMAP
0780
0780
0F80
1F80
3F80
F780
F780
0780
0780
0780
0780
0780
0780
0780
0780
0780
FFFC
FFFC
ENDCHAR
STARTCHAR two
ENCODING 50
SWIDTH 540 0
DWIDTH 18 0
BBX 12 18 2 0
BITMAP
1F80
1F80
39C0
79E0
E070
0070
0070
0070
0070
01C0
01C0
0780
0700
1E00
3800
3800
FFF0
FFF0
ENDCHAR
STARTCHAR three
ENCODING 51
SWIDTH 540 0
DWIDTH 18 0
BBX 12 18 2 0
BITMAP
FFF0
FFF0
0070
00F0
01C0
0380
0780
1F80
1F80
01C0
01E0
0070
0070
0070
E1E0
E1C0
7F80
3F80
ENDCHAR
STARTCHAR four
ENCODING 52
SWIDTH 540 0
DWIDTH 18 0
BBX 12 18 2 0
BITMAP
01C0
01C0
07C0
07C0
1FC0
3FC0
39C0
E1C0
E1C0
E1C0
E1E0
FFF0
FFF0
01C0
01C0
01C0
01C0
01C0
ENDCHAR
STARTCHAR five
ENCODING 53
SWIDTH 540 0
DWIDTH 18 0
BBX 12 18 2 0
BITMAP
FFF0
FFF0
E000
E000
E000
E000
E000
FF80
FF80
01C0
01E0
0070
0070
0070
E1E0
E1C0
7F80
3F80
ENDCHAR
STARTCHAR six
ENCODING 54
SWIDTH 540 0
DWIDTH 18 0
BBX 12 18 2 0
BITMAP
1FC0
1FC0
3800
7800
E000
E000
E000
FF80
FF80
E1C0
E1E0
E070
E070
E070
79E0
39C0
1F80
1F80
ENDCHAR
STARTCHAR seven
ENCODING 55
SWIDTH 540 0
DWIDTH 18 0
BBX 12 18 2 0
BITMAP
FFF0
FFF0
0070
00F0
01C0
01C0
01C0
0780
0780
0780
0780
1E00
1E00
1E00
1E00
1E00
1E00
1E00
ENDCHAR
STARTCHAR eight
ENCODING 56
SWIDTH 540 0
DWIDTH 18 0
BBX 12 18 2 0
BITMAP
1F80
1F80
39C0
79E0
E070
79E0
39C0
1F80
1F80
39C0
79E0
E070
E070
E070
79E0
39C0
1F80
1F80
ENDCHAR
STARTCHAR nine
ENCODING 57
SWIDTH 540 0
DWIDTH 18 0
BBX 12 18 2 0
BITMAP
1F80
1F80
39C0
79E0
E070
E070
E070
79F0
39F0
1FF0
1FF0
0070
0070
0070
01E0
01C0
3F80
3F80
ENDCHAR
STARTCHAR colon
ENCODING 58
SWIDTH 540 0
DWIDTH 18 0
BBX 6 13 5 0
BITMAP
78
FC
FC
FC
00
00
00
00
00
78
FC
FC
FC
ENDCHAR
STARTCHAR semicolon
ENCODING 59
SWIDTH 540 0
DWIDTH 18 0
BBX 6 16 5 -3
BITMAP
78
FC
FC
FC
00
00
00
00
00
78
FC
FC
FC
3C
38
F0
ENDCHAR
STARTCHAR less
ENCODING 60
SWIDTH 540 0
DWIDTH 18 0
BBX 10 16 2 0
BITMAP
01C0
01C0
0780
0E00
1E00
3800
3800
E000
E000
3800
3C00
1E00
0700
0780
01C0
01C0
ENDCHAR
STARTCHAR equal
ENCODING 61
SWIDTH 540 0
DWIDTH 18 0
BBX 12 7 2 4
BITMAP
FFF0
FFF0
0000
0000
0000
0000
FFF0
ENDCHAR
STARTCHAR greater
ENCODING 62
SWIDTH 540 0
DWIDTH 18 0
BBX 10 16 2 0
BITMAP
E000
F000
3800
1C00
1E00
0780
0780
01C0
01C0
0780
0700
1E00
3800
3800
E000
E000
ENDCHAR
STARTCHAR question
ENCODING 63
SWIDTH 540 0
DWIDTH 18 0
BBX 12 18 2 0
BITMAP
1F80
1F80
39C0
79E0
E070
0070
0070
01E0
01C0
0780
0780
1E00
1E00
1E00
0000
0000
1E00
1E00
ENDCHAR
STARTCHAR at
ENCODING 64
SWIDTH 540 0
DWIDTH 18 0
BBX 16 18 0 0
BITMAP
0FF0
1FF8
381C
381C
F1EF
F2EF
F66F
F66F
F66F
F66F
F66F
F66F
F2EF
F1FC
3800
3800
1FF0
0FF0
ENDCHAR
STARTCHAR A
ENCODING 65
SWIDTH 540 0
DWIDTH 18 0
BBX 12 18 2 0
BITMAP
0600
0600
1F80
1F80
1F80
1F80
1F80
39C0
39C0
3FC0
3FC0
39C0
79E0
E070
E070
E070
E070
E070
ENDCHAR
STARTCHAR B
ENCODING 66
SWIDTH 540 0
DWIDTH 18 0
BBX 12 18 2 0
BITMAP
FFC0
FFE0
E070
E070
E070
E070
E070
FFE0
FFC0
E070
E070
E070
E070
E070
E070
E070
FFE0
FFC0
ENDCHAR
STARTCHAR C
ENCODING 67
SWIDTH 540 0
DWIDTH 18 0
BBX 12 18 2 0
BITMAP
1FC0
1FE0
3870
7870
E000
E000
E000
E000
E000
E000
E000
E000
E000
E000
7870
3870
1FE0
1FC0
ENDCHAR
STARTCHAR D
ENCODING 68
SWIDTH 540 0
DWIDTH 18 0
BBX 12 18 2 0
BITMAP
FF80
FF80
E1C0
E1E0
E070
E070
E070
E070
E070
E070
E070
E070
E070
E070
E1E0
E1C0
FF80
FF80
ENDCHAR
STARTCHAR E
ENCODING 69
SWIDTH 540 0
DWIDTH 18 0
BBX 12 18 2 0
BITMAP
FFF0
FFF0
E000
E000
E000
E000
E000
FF80
FF80
E000
E000
E000
E000
E000
E000
E000
FFF0
FFF0
ENDCHAR
STARTCHAR F
ENCODING 70
SWIDTH 540 0
DWIDTH 18 0
BBX 12 18 2 0
BITMAP
FFF0
FFF0
E000
E000
E000
E000
E000
FF80
FF80
E000
E000
E000
E000
E000
E000
E000
E000
E000
ENDCHAR
STARTCHAR G
ENCODING 71
SWIDTH 540 0
DWIDTH 18 0
BBX 12 18 2 0
BITMAP
1F80
1F80
39C0
79E0
E070
E000
E000
E000
E000
E1F0
E1F0
E070
E070
E070
79E0
39C0
1F80
1F80
ENDCHAR
STARTCHAR H
ENCODING 72
SWIDTH 540 0
DWIDTH 18 0
BBX 12 18 2 0
BITMAP
E070
E070
E070
E070
E070
E070
E070
FFF0
FFF0
E070
E070
E070
E070
E070
E070
E070
E070
E070
ENDCHAR
STARTCHAR I
ENCODING 73
SWIDTH 540 0
DWIDTH 18 0
BBX 10 18 2 0
BITMAP
FFC0
FFC0
1E00
1E00
1E00
1E00
1E00
1E00
1E00
1E00
1E00
1E00
1E00
1E00
1E00
1E00
FFC0
FFC0
ENDCHAR
STARTCHAR J
ENCODING 74
SWIDTH 540 0
DWIDTH 18 0
BBX 12 18 2 0
BITMAP
07F0
07F0
01C0
01C0
01C0
01C0
01C0
01C0
01C0
01C0
01C0
01C0
01C0
E1C0
E1C0
E1C0
7F80
3F80
ENDCHAR
STARTCHAR K
ENCODING 75
SWIDTH 540 0
DWIDTH 18 0
BBX 12 18 2 0
BITMAP
E070
E070
E1C0
E1C0
E780
FE00
FE00
F800
F800
FE00
FE00
E780
E380
E1C0
E0F0
E070
E070
E070
ENDCHAR
STARTCHAR L
ENCODING 76
SWIDTH 540 0
DWIDTH 18 0
BBX 12 18 2 0
BITMAP
E000
E000
E000
E000
E000
E000
E000
E000
E000
E000
E000
E000
E000
E000
E000
E000
FFF0
FFF0
ENDCHAR
STARTCHAR M
ENCODING 77
SWIDTH 540 0
DWIDTH 18 0
BBX 12 18 2 0
BITMAP
E070
E070
F9F0
F9F0
FFF0
F6F0
E670
E070
E070
E070
E070
E070
E070
E070
E070
E070
E070
E070
ENDCHAR
STARTCHAR N
ENCODING 78
SWIDTH 540 0
DWIDTH 18 0
BBX 12 18 2 0
BITMAP
E070
E070
E070
F070
F870
FC70
FE70
E7F0
E7F0
E1F0
E1F0
E070
E070
E070
E070
E070
E070
E070
ENDCHAR
STARTCHAR O
ENCODING 79
SWIDTH 540 0
DWIDTH 18 0
BBX 12 18 2 0
BITMAP
3FC0
7FE0
E070
E070
E070
E070
E070
E070
E070
E070
E070
E070
E070
E070
E070
E070
7FE0
3FC0
ENDCHAR
STARTCHAR P
ENCODING 80
SWIDTH 540 0
DWIDTH 18 0
BBX 12 18 2 0
BITMAP
FF80
FF80
E1C0
E1E0
E070
E070
E070
E1E0
E1C0
FF80
FF80
E000
E000
E000
E000
E000
E000
E000
ENDCHAR
STARTCHAR Q
ENCODING 81
SWIDTH 540 0
DWIDTH 18 0
BBX 14 20 2 -2
BITMAP
1F80
1F80
39C0
79E0
E070
E070
E070
E070
E070
E070
E070
E070
E0F0
E7F0
79E0
39C0
1FF0
1FF0
003C
001C
ENDCHAR
STARTCHAR R
ENCODING 82
SWIDTH 540 0
DWIDTH 18 0
BBX 12 18 2 0
BITMAP
FFC0
FFE0
E070
E070
E070
E070
E070
E070
E070
FFC0
FFC0
E780
E380
E1C0
E0F0
E070
E070
E070
ENDCHAR
STARTCHAR S
ENCODING 83
SWIDTH 540 0
DWIDTH 18 0
BBX 12 18 2 0
BITMAP
3FC0
7FE0
E070
E070
E000
E000
E000
7FC0
3FC0
0070
0070
0070
0070
0070
E070
E070
7FE0
3FC0
ENDCHAR
STARTCHAR T
ENCODING 84
SWIDTH 540 0
DWIDTH 18 0
BBX 10 18 2 0
BITMAP
FFC0
FFC0
1E00
1E00
1E00
1E00
1E00
1E00
1E00
1E00
1E00
1E00
1E00
1E00
1E00
1E00
1E00
1E00
ENDCHAR
STARTCHAR U
ENCODING 85
SWIDTH 540 0
DWIDTH 18 0
BBX 12 18 2 0
BITMAP
E070
E070
E070
E070
E070
E070
E070
E070
E070
E070
E070
E070
E070
E070
79E0
39C0
1F80
1F80
ENDCHAR
STARTCHAR V
ENCODING 86
SWIDTH 540 0
DWIDTH 18 0
BBX 12 18 2 0
BITMAP
E070
E070
E070
E070
E070
79E0
39C0
39C0
39C0
39C0
39C0
1F80
1F80
1F80
1F80
1F80
0600
0600
ENDCHAR
STARTCHAR W
ENCODING 87
SWIDTH 540 0
DWIDTH 18 0
BBX 12 18 2 0
BITMAP
E070
E070
E070
E070
E070
E070
E070
E670
E670
E670
E670
E670
F6F0
FFF0
F9F0
F9F0
6060
2040
ENDCHAR
STARTCHAR X
ENCODING 88
SWIDTH 540 0
DWIDTH 18 0
BBX 12 18 2 0
BITMAP
E070
E070
E070
F0F0
39C0
1F80
1F80
0600
0600
0600
0600
1F80
1F80
39C0
F0F0
E070
E070
E070
ENDCHAR
STARTCHAR Y
ENCODING 89
SWIDTH 540 0
DWIDTH 18 0
BBX 14 18 0 0
BITMAP
E01C
F01C
F01C
F03C
3870
1FE0
0FE0
0780
0780
0780
0780
0780
0780
0780
0780
0780
0780
0780
ENDCHAR
STARTCHAR Z
ENCODING 90
SWIDTH 540 0
DWIDTH 18 0
BBX 12 18 2 0
BITMAP
FFF0
FFF0
0070
0070
0070
01E0
01C0
0780
0780
1E00
1E00
3800
7800
E000
E000
E000
FFF0
FFF0
ENDCHAR
STARTCHAR bracketleft
ENCODING 91
SWIDTH 540 0
DWIDTH 18 0
BBX 8 22 4 -2
BITMAP
FF
FF
E0
E0
E0
E0
E0
E0
E0
E0
E0
E0
E0
E0
E0
E0
E0
E0
E0
E0
FF
FF
ENDCHAR
STARTCHAR backslash
ENCODING 92
SWIDTH 540 0
DWIDTH 18 0
BBX 14 18 0 0
BITMAP
E000
F000
3800
3800
3800
1E00
0E00
0780
0780
0780
0780
01E0
00E0
0070
0070
0070
001C
001C
ENDCHAR
STARTCHAR bracketright
ENCODING 93
SWIDTH 540 0
DWIDTH 18 0
BBX 7 22 4 -2
BITMAP
FC
FE
1E
1E
1E
1E
1E
1E
1E
1E
1E
1E
1E
1E
1E
1E
1E
1E
1E
1E
FE
FC
ENDCHAR
STARTCHAR asciicircum
ENCODING 94
SWIDTH 540 0
DWIDTH 18 0
BBX 14 7 0 11
BITMAP
0780
0780
0FE0
1FE0
3870
F03C
F01C
ENDCHAR
STARTCHAR underscore
ENCODING 95
SWIDTH 540 0
DWIDTH 18 0
BBX 14 2 0 -2
BITMAP
FFFC
FFFC
ENDCHAR
STARTCHAR grave
ENCODING 96
SWIDTH 540 0
DWIDTH 18 0
BBX 7 5 4 18
BITMAP
E0
F0
78
1C
1E
ENDCHAR
STARTCHAR a
ENCODING 97
SWIDTH 540 0
DWIDTH 18 0
BBX 12 13 2 0
BITMAP
3FC0
3FC0
0070
0070
0070
0070
3FF0
7FF0
E070
E070
E070
7FF0
3FF0
ENDCHAR
STARTCHAR b
ENCODING 98
SWIDTH 540 0
DWIDTH 18 0
BBX 12 18 2 0
BITMAP
E000
E000
E000
E000
E000
FFC0
FFC0
E070
E070
E070
E070
E070
E070
E070
E070
E070
FFE0
FFC0
ENDCHAR
STARTCHAR c
ENCODING 99
SWIDTH 540 0
DWIDTH 18 0
BBX 12 13 2 0
BITMAP
3FC0
3FC0
E070
E070
E000
E000
E000
E000
E000
E070
E070
7FE0
3FC0
ENDCHAR
STARTCHAR d
ENCODING 100
SWIDTH 540 0
DWIDTH 18 0
BBX 12 18 2 0
BITMAP
0070
0070
0070
0070
0070
3FF0
3FF0
E070
E070
E070
E070
E070
E070
E070
E070
E070
7FF0
3FF0
ENDCHAR
STARTCHAR e
ENCODING 101
SWIDTH 540 0
DWIDTH 18 0
BBX 12 13 2 0
BITMAP
3FC0
3FC0
E070
E070
E070
E070
FFF0
FFF0
E000
E070
E070
7FE0
3FC0
ENDCHAR
STARTCHAR f
ENCODING 102
SWIDTH 540 0
DWIDTH 18 0
BBX 10 18 2 0
BITMAP
1F80
1F80
39C0
39C0
39C0
3800
3800
3800
3800
FE00
FE00
3800
3800
3800
3800
3800
3800
3800
ENDCHAR
STARTCHAR g
ENCODING 103
SWIDTH 540 0
DWIDTH 18 0
BBX 12 18 2 -5
BITMAP
3FF0
3FF0
E1E0
E1C0
E1C0
E1C0
E1C0
F3C0
3F80
F000
E000
7FC0
7FE0
E070
E070
E070
7FE0
3FC0
ENDCHAR
STARTCHAR h
ENCODING 104
SWIDTH 540 0
DWIDTH 18 0
BBX 12 18 2 0
BITMAP
E000
E000
E000
E000
E000
FFC0
FFC0
E070
E070
E070
E070
E070
E070
E070
E070
E070
E070
E070
ENDCHAR
STARTCHAR i
ENCODING 105
SWIDTH 540 0
DWIDTH 18 0
BBX 10 18 2 0
BITMAP
1E00
1E00
1E00
0E00
0000
FC00
FE00
1E00
1E00
1E00
1E00
1E00
1E00
1E00
1E00
1E00
FFC0
FFC0
ENDCHAR
STARTCHAR j
ENCODING 106
SWIDTH 540 0
DWIDTH 18 0
BBX 8 23 4 -5
BITMAP
07
07
07
07
00
0F
1F
07
07
07
07
07
07
07
07
07
07
07
E7
E7
E7
7E
7E
ENDCHAR
STARTCHAR k
ENCODING 107
SWIDTH 540 0
DWIDTH 18 0
BBX 12 18 2 0
BITMAP
E000
E000
E000
E000
E000
E1C0
E1C0
E780
E780
FE00
FE00
FE00
FE00
E780
E1C0
E1C0
E070
E070
ENDCHAR
STARTCHAR l
ENCODING 108
SWIDTH 540 0
DWIDTH 18 0
BBX 10 18 2 0
BITMAP
FE00
FE00
1E00
1E00
1E00
1E00
1E00
1E00
1E00
1E00
1E00
1E00
1E00
1E00
1E00
1E00
FFC0
FFC0
ENDCHAR
STARTCHAR m
ENCODING 109
SWIDTH 540 0
DWIDTH 18 0
BBX 14 13 0 0
BITMAP
FFF0
FFF0
F79C
F79C
F79C
F79C
F79C
F79C
F79C
F79C
F79C
F01C
E01C
ENDCHAR
STARTCHAR n
ENCODING 110
SWIDTH 540 0
DWIDTH 18 0
BBX 12 13 2 0
BITMAP
E3C0
E7C0
F870
F870
E070
E070
E070
E070
E070
E070
E070
E070
E070
ENDCHAR
STARTCHAR o
ENCODING 111
SWIDTH 540 0
DWIDTH 18 0
BBX 12 13 2 0
BITMAP
0F00
1F80
39C0
39C0
E070
E070
E070
E070
E070
79E0
39C0
1F80
1F80
ENDCHAR
STARTCHAR p
ENCODING 112
SWIDTH 540 0
DWIDTH 18 0
BBX 12 18 2 -5
BITMAP
FF00
FF80
E1C0
E1C0
E070
E070
E070
E070
E070
E1E0
E1C0
FF80
FF80
E000
E000
E000
E000
E000
ENDCHAR
STARTCHAR q
ENCODING 113
SWIDTH 540 0
DWIDTH 18 0
BBX 12 18 2 -5
BITMAP
0FF0
1FF0
3870
3870
E070
E070
E070
E070
E070
7870
3870
1FF0
1FF0
0070
0070
0070
0070
0070
ENDCHAR
STARTCHAR r
ENCODING 114
SWIDTH 540 0
DWIDTH 18 0
BBX 12 13 2 0
BITMAP
E3C0
E7C0
7E70
3E70
3800
3800
3800
3800
3800
3800
3800
3800
3800
ENDCHAR
STARTCHAR s
ENCODING 115
SWIDTH 540 0
DWIDTH 18 0
BBX 12 13 2 0
BITMAP
3FC0
3FC0
E070
E070
E000
E000
3FC0
3FE0
0070
E070
E070
7FE0
3FC0
ENDCHAR
STARTCHAR t
ENCODING 116
SWIDTH 540 0
DWIDTH 18 0
BBX 12 16 2 0
BITMAP
1E00
1E00
1E00
FFC0
FFC0
1E00
1E00
1E00
1E00
1E00
1E00
1E00
1E70
1E70
07E0
07C0
ENDCHAR
STARTCHAR u
ENCODING 117
SWIDTH 540 0
DWIDTH 18 0
BBX 12 13 2 0
BITMAP
E070
E070
E070
E070
E070
E070
E070
E070
E070
E070
E070
7FF0
3FF0
ENDCHAR
STARTCHAR v
ENCODING 118
SWIDTH 540 0
DWIDTH 18 0
BBX 12 13 2 0
BITMAP
E070
E070
E070
E070
39C0
39C0
39C0
3FC0
1F80
1F80
1F80
0600
0600
ENDCHAR
STARTCHAR w
ENCODING 119
SWIDTH 540 0
DWIDTH 18 0
BBX 14 13 0 0
BITMAP
E01C
F01C
F01C
F01C
F79C
F79C
F79C
F79C
F79C
FFFC
FFFC
3878
3870
ENDCHAR
STARTCHAR x
ENCODING 120
SWIDTH 540 0
DWIDTH 18 0
BBX 12 13 2 0
BITMAP
E070
E070
79E0
39C0
1F80
1F80
0600
0600
1F80
39C0
39C0
E070
E070
ENDCHAR
STARTCHAR y
ENCODING 121
SWIDTH 540 0
DWIDTH 18 0
BBX 12 18 2 -5
BITMAP
E070
E070
E070
E070
39C0
39C0
39C0
39C0
39C0
1F80
1F80
1F80
1F80
1E00
1E00
DE00
3C00
3800
ENDCHAR
STARTCHAR z
ENCODING 122
SWIDTH 540 0
DWIDTH 18 0
BBX 10 13 2 0
BITMAP
FFC0
FFC0
01C0
01C0
0780
0780
1E00
1C00
3800
F000
E000
FFC0
FFC0
ENDCHAR
STARTCHAR braceleft
ENCODING 123
SWIDTH 540 0
DWIDTH 18 0
BBX 10 20 2 0
BITMAP
0FC0
1FC0
3800
3800
3800
3800
3800
3800
3800
E000
E000
3800
3800
3800
3800
3800
3800
3800
1FC0
1FC0
ENDCHAR
STARTCHAR bar
ENCODING 124
SWIDTH 540 0
DWIDTH 18 0
BBX 4 22 5 -2
BITMAP
70
F0
F0
F0
F0
F0
F0
F0
F0
F0
F0
F0
F0
F0
F0
F0
F0
F0
F0
F0
F0
70
ENDCHAR
STARTCHAR braceright
ENCODING 125
SWIDTH 540 0
DWIDTH 18 0
BBX 10 20 2 0
BITMAP
F800
F800
1E00
1E00
1E00
1E00
1E00
1E00
1E00
07C0
07C0
1E00
1E00
1E00
1E00
1E00
1E00
1E00
F800
F800
ENDCHAR
STARTCHAR asciitilde
ENCODING 126
SWIDTH 540 0
DWIDTH 18 0
BBX 14 5 0 13
BITMAP
3E1C
3E1C
F79C
F3BC
F1F0
ENDCHAR
STARTCHAR space
ENCODING 160
SWIDTH 540 0
DWIDTH 18 0
BBX 1 1 15 -7
BITMAP
00
ENDCHAR
STARTCHAR exclamdown
ENCODING 161
SWIDTH 540 0
DWIDTH 18 0
BBX 4 18 7 0
BITMAP
F0
F0
00
00
F0
F0
F0
F0
F0
F0
F0
F0
F0
F0
F0
F0
F0
F0
ENDCHAR
STARTCHAR cent
ENCODING 162
SWIDTH 540 0
DWIDTH 18 0
BBX 12 14 2 0
BITMAP
0040
3FC0
3FC0
E1F0
E1F0
E600
E600
E600
F400
F870
7FE0
3FC0
2000
2000
ENDCHAR
STARTCHAR sterling
ENCODING 163
SWIDTH 540 0
DWIDTH 18 0
BBX 14 18 0 -2
BITMAP
07F0
07F8
0E1C
0E00
0E00
0E00
0E00
3FE0
3FE0
0E00
0E00
0E00
FF80
FF80
DFFC
DFFC
F800
F800
ENDCHAR
STARTCHAR currency
ENCODING 164
SWIDTH 540 0
DWIDTH 18 0
BBX 12 12 2 4
BITMAP
E070
F0F0
FFF0
7FE0
39C0
2040
2040
39C0
79E0
FFF0
FFF0
E070
ENDCHAR
STARTCHAR yen
ENCODING 165
SWIDTH 540 0
DWIDTH 18 0
BBX 14 18 0 0
BITMAP
E01C
F01C
F01C
F03C
3870
1FE0
0FE0
3FF0
3FF0
0780
0780
3FF0
3FF0
0780
0780
0780
0780
0780
ENDCHAR
STARTCHAR brokenbar
ENCODING 166
SWIDTH 540 0
DWIDTH 18 0
BBX 4 20 5 -2
BITMAP
F0
F0
F0
F0
F0
F0
F0
F0
F0
00
00
F0
F0
F0
F0
F0
F0
F0
F0
70
ENDCHAR
STARTCHAR section
ENCODING 167
SWIDTH 540 0
DWIDTH 18 0
BBX 10 20 2 -2
BITMAP
3F80
7F80
E1C0
E1C0
E000
7F00
3F80
E1C0
E1C0
E1C0
E1C0
E1C0
F3C0
3F80
01C0
01C0
E1C0
E1C0
3F80
3F00
ENDCHAR
STARTCHAR dieresis
ENCODING 168
SWIDTH 540 0
DWIDTH 18 0
BBX 8 3 4 20
BITMAP
E7
E7
E7
ENDCHAR
STARTCHAR copyright
ENCODING 169
SWIDTH 540 0
DWIDTH 18 0
BBX 14 20 0 0
BITMAP
0FC0
0FE0
3FF0
3FF8
F01C
F01C
CFEC
CCEC
C86C
C80C
C80C
C86C
C86C
CFEC
CFEC
F01C
3FF8
3FF0
1FE0
0FE0
ENDCHAR
STARTCHAR ordfeminine
ENCODING 170
SWIDTH 540 0
DWIDTH 18 0
BBX 9 13 2 5
BITMAP
3E00
3E00
0780
0780
3F80
F780
E780
7F80
3F80
0000
0000
FF80
FF00
ENDCHAR
STARTCHAR guillemotleft
ENCODING 171
SWIDTH 540 0
DWIDTH 18 0
BBX 14 14 0 2
BITMAP
079C
07BC
0E70
3DE0
39E0
F780
F780
F780
F780
39E0
3DE0
0E70
07BC
079C
ENDCHAR
STARTCHAR logicalnot
ENCODING 172
SWIDTH 540 0
DWIDTH 18 0
BBX 12 9 2 4
BITMAP
FFF0
FFF0
FFF0
FFF0
0070
0070
0070
0070
0070
ENDCHAR
STARTCHAR hyphen
ENCODING 173
SWIDTH 540 0
DWIDTH 18 0
BBX 10 2 2 7
BITMAP
FFC0
FFC0
ENDCHAR
STARTCHAR registered
ENCODING 174
SWIDTH 540 0
DWIDTH 18 0
BBX 14 20 0 0
BITMAP
0FC0
0FE0
3FF0
3FF8
F01C
F01C
CFEC
CCEC
C86C
CFEC
CFEC
C98C
C98C
C9EC
C8EC
F01C
3FF8
3FF0
1FE0
0FE0
ENDCHAR
STARTCHAR macron
ENCODING 175
SWIDTH 540 0
DWIDTH 18 0
BBX 10 4 2 16
BITMAP
FFC0
FFC0
FFC0
FFC0
ENDCHAR
STARTCHAR degree
ENCODING 176
SWIDTH 540 0
DWIDTH 18 0
BBX 9 7 2 14
BITMAP
3E00
F700
E780
E780
E780
3E00
3E00
ENDCHAR
STARTCHAR plusminus
ENCODING 177
SWIDTH 540 0
DWIDTH 18 0
BBX 10 16 2 2
BITMAP
1E00
1E00
1E00
1E00
1E00
FFC0
FFC0
1E00
1E00
1E00
1E00
1E00
0C00
0000
FFC0
FFC0
ENDCHAR
STARTCHAR twosuperior
ENCODING 178
SWIDTH 540 0
DWIDTH 18 0
BBX 9 11 2 7
BITMAP
3E00
7E00
E780
E780
0780
0E00
1E00
3800
3800
FF80
FF80
ENDCHAR
STARTCHAR threesuperior
ENCODING 179
SWIDTH 540 0
DWIDTH 18 0
BBX 9 11 2 7
BITMAP
3E00
7E00
E780
E700
1E00
0700
0780
E780
E780
3E00
3E00
ENDCHAR
STARTCHAR acute
ENCODING 180
SWIDTH 540 0
DWIDTH 18 0
BBX 7 5 4 18
BITMAP
1E
1C
78
E0
E0
ENDCHAR
STARTCHAR mu
ENCODING 181
SWIDTH 540 0
DWIDTH 18 0
BBX 12 16 2 -3
BITMAP
E070
E070
E070
E070
E070
E070
E070
E0F0
E1F0
E7F0
E7F0
FE70
FE70
E000
E000
E000
ENDCHAR
STARTCHAR paragraph
ENCODING 182
SWIDTH 540 0
DWIDTH 18 0
BBX 12 18 2 0
BITMAP
3FF0
7FF0
FE70
FE70
FE70
FE70
FE70
7E70
3E70
1E70
1E70
1E70
1E70
1E70
1E70
1E70
1E70
1E70
ENDCHAR
STARTCHAR periodcentered
ENCODING 183
SWIDTH 540 0
DWIDTH 18 0
BBX 6 4 5 7
BITMAP
FC
FC
FC
FC
ENDCHAR
STARTCHAR cedilla
ENCODING 184
SWIDTH 540 0
DWIDTH 18 0
BBX 10 5 2 -5
BITMAP
0780
0780
E1C0
7F80
3F80
ENDCHAR
STARTCHAR onesuperior
ENCODING 185
SWIDTH 540 0
DWIDTH 18 0
BBX 7 11 2 7
BITMAP
38
78
F8
F8
38
38
38
38
38
FE
FE
ENDCHAR
STARTCHAR ordmasculine
ENCODING 186
SWIDTH 540 0
DWIDTH 18 0
BBX 9 13 2 5
BITMAP
3E00
7E00
E780
E780
E780
E780
E780
7E00
3E00
0000
0000
FF80
FF00
ENDCHAR
STARTCHAR guillemotright
ENCODING 187
SWIDTH 540 0
DWIDTH 18 0
BBX 14 14 0 2
BITMAP
F780
F780
39E0
1EF0
0E70
079C
079C
079C
079C
0E70
1EF0
39E0
F780
F780
ENDCHAR
STARTCHAR onequarter
ENCODING 188
SWIDTH 540 0
DWIDTH 18 0
BBX 14 20 0 0
BITMAP
3800
3800
F800
F800
3800
3800
3800
3804
380C
381C
381C
FE7C
FE7C
01FC
01FC
079C
07FC
07FC
001C
001C
ENDCHAR
STARTCHAR onehalf
ENCODING 189
SWIDTH 540 0
DWIDTH 18 0
BBX 14 20 0 0
BITMAP
3800
3800
F800
F800
3800
3800
3800
38F0
39F0
3E1C
3E1C
FE1C
FE1C
0070
00F0
01E0
0380
0780
07FC
07FC
ENDCHAR
STARTCHAR threequarters
ENCODING 190
SWIDTH 540 0
DWIDTH 18 0
BBX 14 20 0 0
BITMAP
3E00
3E00
C780
C780
0780
0780
0E00
0704
078C
C79C
C79C
3E7C
3E7C
01FC
01FC
079C
07FC
07FC
001C
001C
ENDCHAR
STARTCHAR questiondown
ENCODING 191
SWIDTH 540 0
DWIDTH 18 0
BBX 12 18 2 0
BITMAP
0780
0780
0780
0700
0000
0300
0780
1E00
1E00
3800
7800
E000
E000
E070
E070
E070
7FE0
3FC0
ENDCHAR
STARTCHAR Agrave
ENCODING 192
SWIDTH 540 0
DWIDTH 18 0
BBX 12 25 2 0
BITMAP
3800
3800
1E00
0E00
0780
0000
0000
0600
0600
1F80
1F80
1F80
1F80
1F80
39C0
39C0
3FC0
3FC0
39C0
79E0
E070
E070
E070
E070
E070
ENDCHAR
STARTCHAR Aacute
ENCODING 193
SWIDTH 540 0
DWIDTH 18 0
BBX 12 25 2 0
BITMAP
01C0
01C0
0780
0700
1E00
0000
0000
0600
0600
1F80
1F80
1F80
1F80
1F80
39C0
39C0
3FC0
3FC0
39C0
79E0
E070
E070
E070
E070
E070
ENDCHAR
STARTCHAR Acircumflex
ENCODING 194
SWIDTH 540 0
DWIDTH 18 0
BBX 12 25 2 0
BITMAP
0600
0600
1F80
1F80
39C0
0000
0000
0600
0600
1F80
1F80
1F80
1F80
1F80
39C0
39C0
3FC0
3FC0
39C0
79E0
E070
E070
E070
E070
E070
ENDCHAR
STARTCHAR Atilde
ENCODING 195
SWIDTH 540 0
DWIDTH 18 0
BBX 12 23 2 0
BITMAP
3E70
7EF0
E7C0
0000
0000
0600
0600
1F80
1F80
1F80
1F80
1F80
39C0
39C0
3FC0
3FC0
39C0
79E0
E070
E070
E070
E070
E070
ENDCHAR
STARTCHAR Adieresis
ENCODING 196
SWIDTH 540 0
DWIDTH 18 0
BBX 12 23 2 0
BITMAP
39C0
39C0
39C0
0000
0000
0600
0600
1F80
1F80
1F80
1F80
1F80
39C0
39C0
3FC0
3FC0
39C0
79E0
E070
E070
E070
E070
E070
ENDCHAR
STARTCHAR Aring
ENCODING 197
SWIDTH 540 0
DWIDTH 18 0
BBX 12 25 2 0
BITMAP
1F80
1F80
39C0
39C0
39C0
1F80
1F80
0600
0600
1F80
1F80
1F80
1F80
1F80
39C0
39C0
3FC0
3FC0
39C0
79E0
E070
E070
E070
E070
E070
ENDCHAR
STARTCHAR AE
ENCODING 198
SWIDTH 540 0
DWIDTH 18 0
BBX 12 18 2 0
BITMAP
1FF0
1FF0
1FC0
1FC0
39C0
39C0
39C0
39F0
39F0
FFC0
FFC0
E1C0
E1C0
E1C0
E1C0
E1C0
E1F0
E1F0
ENDCHAR
STARTCHAR Ccedilla
ENCODING 199
SWIDTH 540 0
DWIDTH 18 0
BBX 12 25 2 -7
BITMAP
1FC0
1FE0
3870
7870
E000
E000
E000
E000
E000
E000
E000
E000
E000
E000
7870
3870
1FE0
1FC0
0780
0780
01C0
39C0
39C0
1F80
1F80
ENDCHAR
STARTCHAR Egrave
ENCODING 200
SWIDTH 540 0
DWIDTH 18 0
BBX 12 25 2 0
BITMAP
3800
3800
1E00
0E00
0780
0000
0000
FFF0
FFF0
E000
E000
E000
E000
E000
FF80
FF80
E000
E000
E000
E000
E000
E000
E000
FFF0
FFF0
ENDCHAR
STARTCHAR Eacute
ENCODING 201
SWIDTH 540 0
DWIDTH 18 0
BBX 12 25 2 0
BITMAP
01C0
01C0
0780
0700
1E00
0000
0000
FFF0
FFF0
E000
E000
E000
E000
E000
FF80
FF80
E000
E000
E000
E000
E000
E000
E000
FFF0
FFF0
ENDCHAR
STARTCHAR Ecircumflex
ENCODING 202
SWIDTH 540 0
DWIDTH 18 0
BBX 12 25 2 0
BITMAP
0600
0600
1F80
1F80
39C0
0000
0000
FFF0
FFF0
E000
E000
E000
E000
E000
FF80
FF80
E000
E000
E000
E000
E000
E000
E000
FFF0
FFF0
ENDCHAR
STARTCHAR Edieresis
ENCODING 203
SWIDTH 540 0
DWIDTH 18 0
BBX 12 23 2 0
BITMAP
39C0
39C0
39C0
0000
0000
FFF0
FFF0
E000
E000
E000
E000
E000
FF80
FF80
E000
E000
E000
E000
E000
E000
E000
FFF0
FFF0
ENDCHAR
STARTCHAR Igrave
ENCODING 204
SWIDTH 540 0
DWIDTH 18 0
BBX 10 25 2 0
BITMAP
3800
3800
1E00
0E00
0780
0000
0000
FFC0
FFC0
1E00
1E00
1E00
1E00
1E00
1E00
1E00
1E00
1E00
1E00
1E00
1E00
1E00
1E00
FFC0
FFC0
ENDCHAR
STARTCHAR Iacute
ENCODING 205
SWIDTH 540 0
DWIDTH 18 0
BBX 10 25 2 0
BITMAP
01C0
01C0
0780
0700
1E00
0000
0000
FFC0
FFC0
1E00
1E00
1E00
1E00
1E00
1E00
1E00
1E00
1E00
1E00
1E00
1E00
1E00
1E00
FFC0
FFC0
ENDCHAR
STARTCHAR Icircumflex
ENCODING 206
SWIDTH 540 0
DWIDTH 18 0
BBX 10 25 2 0
BITMAP
0600
0600
1F80
1F80
39C0
0000
0000
FFC0
FFC0
1E00
1E00
1E00
1E00
1E00
1E00
1E00
1E00
1E00
1E00
1E00
1E00
1E00
1E00
FFC0
FFC0
ENDCHAR
STARTCHAR Idieresis
ENCODING 207
SWIDTH 540 0
DWIDTH 18 0
BBX 10 23 2 0
BITMAP
39C0
39C0
39C0
0000
0000
FFC0
FFC0
1E00
1E00
1E00
1E00
1E00
1E00
1E00
1E00
1E00
1E00
1E00
1E00
1E00
1E00
FFC0
FFC0
ENDCHAR
STARTCHAR Eth
ENCODING 208
SWIDTH 540 0
DWIDTH 18 0
BBX 14 18 0 0
BITMAP
3FE0
3FE0
3870
3878
381C
381C
381C
FE1C
FE1C
381C
381C
381C
381C
381C
3878
3870
3FE0
3FE0
ENDCHAR
STARTCHAR Ntilde
ENCODING 209
SWIDTH 540 0
DWIDTH 18 0
BBX 12 23 2 0
BITMAP
3E70
7EF0
E7C0
0000
0000
E070
E070
E070
F070
F870
FC70
FE70
E7F0
E7F0
E1F0
E1F0
E070
E070
E070
E070
E070
E070
E070
ENDCHAR
STARTCHAR Ograve
ENCODING 210
SWIDTH 540 0
DWIDTH 18 0
BBX 12 25 2 0
BITMAP
3800
3800
1E00
0E00
0780
0000
0000
3FC0
7FE0
E070
E070
E070
E070
E070
E070
E070
E070
E070
E070
E070
E070
E070
E070
7FE0
3FC0
ENDCHAR
STARTCHAR Oacute
ENCODING 211
SWIDTH 540 0
DWIDTH 18 0
BBX 12 25 2 0
BITMAP
01C0
01C0
0780
0700
1E00
0000
0000
3FC0
7FE0
E070
E070
E070
E070
E070
E070
E070
E070
E070
E070
E070
E070
E070
E070
7FE0
3FC0
ENDCHAR
STARTCHAR Ocircumflex
ENCODING 212
SWIDTH 540 0
DWIDTH 18 0
BBX 12 25 2 0
BITMAP
0600
0600
1F80
1F80
39C0
0000
0000
3FC0
7FE0
E070
E070
E070
E070
E070
E070
E070
E070
E070
E070
E070
E070
E070
E070
7FE0
3FC0
ENDCHAR
STARTCHAR Otilde
ENCODING 213
SWIDTH 540 0
DWIDTH 18 0
BBX 12 23 2 0
BITMAP
3E70
7EF0
E7C0
0000
0000
3FC0
7FE0
E070
E070
E070
E070
E070
E070
E070
E070
E070
E070
E070
E070
E070
E070
7FE0
3FC0
ENDCHAR
STARTCHAR Odieresis
ENCODING 214
SWIDTH 540 0
DWIDTH 18 0
BBX 12 23 2 0
BITMAP
39C0
39C0
39C0
0000
0000
3FC0
7FE0
E070
E070
E070
E070
E070
E070
E070
E070
E070
E070
E070
E070
E070
E070
7FE0
3FC0
ENDCHAR
STARTCHAR multiply
ENCODING 215
SWIDTH 540 0
DWIDTH 18 0
BBX 14 12 0 2
BITMAP
F01C
7878
3870
1FE0
0FE0
0780
0780
0FE0
1FE0
3870
F03C
F01C
ENDCHAR
STARTCHAR Oslash
ENCODING 216
SWIDTH 540 0
DWIDTH 18 0
BBX 12 22 2 -2
BITMAP
0070
0070
3FF0
7FF0
E1F0
E1F0
E1F0
E3F0
E7F0
E7F0
E7F0
FE70
FE70
FE70
FC70
F870
F870
F870
FFE0
FFC0
E000
E000
ENDCHAR
STARTCHAR Ugrave
ENCODING 217
SWIDTH 540 0
DWIDTH 18 0
BBX 12 25 2 0
BITMAP
3800
3800
1E00
0E00
0780
0000
0000
E070
E070
E070
E070
E070
E070
E070
E070
E070
E070
E070
E070
E070
E070
79E0
39C0
1F80
1F80
ENDCHAR
STARTCHAR Uacute
ENCODING 218
SWIDTH 540 0
DWIDTH 18 0
BBX 12 25 2 0
BITMAP
01C0
01C0
0780
0700
1E00
0000
0000
E070
E070
E070
E070
E070
E070
E070
E070
E070
E070
E070
E070
E070
E070
79E0
39C0
1F80
1F80
ENDCHAR
STARTCHAR Ucircumflex
ENCODING 219
SWIDTH 540 0
DWIDTH 18 0
BBX 12 25 2 0
BITMAP
0600
0600
1F80
1F80
39C0
0000
0000
E070
E070
E070
E070
E070
E070
E070
E070
E070
E070
E070
E070
E070
E070
79E0
39C0
1F80
1F80
ENDCHAR
STARTCHAR Udieresis
ENCODING 220
SWIDTH 540 0
DWIDTH 18 0
BBX 12 23 2 0
BITMAP
39C0
39C0
39C0
0000
0000
E070
E070
E070
E070
E070
E070
E070
E070
E070
E070
E070
E070
E070
E070
79E0
39C0
1F80
1F80
ENDCHAR
STARTCHAR Yacute
ENCODING 221
SWIDTH 540 0
DWIDTH 18 0
BBX 14 25 0 0
BITMAP
01E0
01E0
0780
0700
0E00
0000
0000
E01C
F01C
F01C
F03C
3870
1FE0
0FE0
0780
0780
0780
0780
0780
0780
0780
0780
0780
0780
0780
ENDCHAR
STARTCHAR Thorn
ENCODING 222
SWIDTH 540 0
DWIDTH 18 0
BBX 12 18 2 0
BITMAP
E000
E000
E000
F000
FFC0
F0F0
E070
E070
E070
E070
E070
FFC0
FFC0
E000
E000
E000
E000
E000
ENDCHAR
STARTCHAR germandbls
ENCODING 223
SWIDTH 540 0
DWIDTH 18 0
BBX 12 18 2 0
BITMAP
1FC0
1FE0
3870
3870
3870
3870
3870
F9E0
F9C0
3870
3870
3870
3870
3870
3870
3870
39E0
39C0
ENDCHAR
STARTCHAR agrave
ENCODING 224
SWIDTH 540 0
DWIDTH 18 0
BBX 12 20 2 0
BITMAP
3800
3800
1E00
1E00
0780
0700
0000
3FC0
3FC0
0070
0070
0070
0070
3FF0
7FF0
E070
E070
E070
7FF0
3FF0
ENDCHAR
STARTCHAR aacute
ENCODING 225
SWIDTH 540 0
DWIDTH 18 0
BBX 12 20 2 0
BITMAP
01C0
01C0
0780
0780
1E00
0E00
0000
3FC0
3FC0
0070
0070
0070
0070
3FF0
7FF0
E070
E070
E070
7FF0
3FF0
ENDCHAR
STARTCHAR acircumflex
ENCODING 226
SWIDTH 540 0
DWIDTH 18 0
BBX 12 20 2 0
BITMAP
0600
0600
1F80
1F80
39C0
39C0
0000
3FC0
3FC0
0070
0070
0070
0070
3FF0
7FF0
E070
E070
E070
7FF0
3FF0
ENDCHAR
STARTCHAR atilde
ENCODING 227
SWIDTH 540 0
DWIDTH 18 0
BBX 12 18 2 0
BITMAP
3E70
7E70
E7C0
E7C0
0000
3FC0
3FC0
0070
0070
0070
0070
3FF0
7FF0
E070
E070
E070
7FF0
3FF0
ENDCHAR
STARTCHAR adieresis
ENCODING 228
SWIDTH 540 0
DWIDTH 18 0
BBX 12 18 2 0
BITMAP
39C0
39C0
39C0
39C0
0000
3FC0
3FC0
0070
0070
0070
0070
3FF0
7FF0
E070
E070
E070
7FF0
3FF0
ENDCHAR
STARTCHAR aring
ENCODING 229
SWIDTH 540 0
DWIDTH 18 0
BBX 12 20 2 0
BITMAP
0F00
1F80
39C0
39C0
1F80
0F00
0000
3FC0
3FC0
0070
0070
0070
0070
3FF0
7FF0
E070
E070
E070
7FF0
3FF0
ENDCHAR
STARTCHAR ae
ENCODING 230
SWIDTH 540 0
DWIDTH 18 0
BBX 14 13 0 0
BITMAP
3E70
3E70
079C
079C
079C
079C
3FFC
7FFC
F780
F79C
F79C
3E78
3E70
ENDCHAR
STARTCHAR ccedilla
ENCODING 231
SWIDTH 540 0
DWIDTH 18 0
BBX 12 20 2 -7
BITMAP
3FC0
3FC0
E070
E070
E000
E000
E000
E000
E000
E070
E070
7FE0
3FC0
0780
0780
01C0
39C0
39C0
1F80
1F80
ENDCHAR
STARTCHAR egrave
ENCODING 232
SWIDTH 540 0
DWIDTH 18 0
BBX 12 20 2 0
BITMAP
3800
3800
1E00
1E00
0780
0700
0000
3FC0
3FC0
E070
E070
E070
E070
FFF0
FFF0
E000
E070
E070
7FE0
3FC0
ENDCHAR
STARTCHAR eacute
ENCODING 233
SWIDTH 540 0
DWIDTH 18 0
BBX 12 20 2 0
BITMAP
01C0
01C0
0780
0780
1E00
0E00
0000
3FC0
3FC0
E070
E070
E070
E070
FFF0
FFF0
E000
E070
E070
7FE0
3FC0
ENDCHAR
STARTCHAR ecircumflex
ENCODING 234
SWIDTH 540 0
DWIDTH 18 0
BBX 12 20 2 0
BITMAP
0600
0600
1F80
1F80
39C0
39C0
0000
3FC0
3FC0
E070
E070
E070
E070
FFF0
FFF0
E000
E070
E070
7FE0
3FC0
ENDCHAR
STARTCHAR edieresis
ENCODING 235
SWIDTH 540 0
DWIDTH 18 0
BBX 12 18 2 0
BITMAP
39C0
39C0
39C0
39C0
0000
3FC0
3FC0
E070
E070
E070
E070
FFF0
FFF0
E000
E070
E070
7FE0
3FC0
ENDCHAR
STARTCHAR igrave
ENCODING 236
SWIDTH 540 0
DWIDTH 18 0
BBX 10 20 2 0
BITMAP
E000
E000
7800
3800
1E00
0E00
0000
FC00
FE00
1E00
1E00
1E00
1E00
1E00
1E00
1E00
1E00
1E00
FFC0
FFC0
ENDCHAR
STARTCHAR iacute
ENCODING 237
SWIDTH 540 0
DWIDTH 18 0
BBX 10 20 2 0
BITMAP
01C0
01C0
0780
0780
1E00
0E00
0000
FC00
FE00
1E00
1E00
1E00
1E00
1E00
1E00
1E00
1E00
1E00
FFC0
FFC0
ENDCHAR
STARTCHAR icircumflex
ENCODING 238
SWIDTH 540 0
DWIDTH 18 0
BBX 10 20 2 0
BITMAP
0800
1800
3E00
7E00
E780
E700
0000
FC00
FE00
1E00
1E00
1E00
1E00
1E00
1E00
1E00
1E00
1E00
FFC0
FFC0
ENDCHAR
STARTCHAR idieresis
ENCODING 239
SWIDTH 540 0
DWIDTH 18 0
BBX 10 18 2 0
BITMAP
39C0
39C0
39C0
39C0
0000
FC00
FE00
1E00
1E00
1E00
1E00
1E00
1E00
1E00
1E00
1E00
FFC0
FFC0
ENDCHAR
STARTCHAR eth
ENCODING 240
SWIDTH 540 0
DWIDTH 18 0
BBX 12 20 2 0
BITMAP
39C0
39C0
1F80
1F80
1F80
1F80
39C0
01C0
01C0
3FF0
3FF0
E070
E070
E070
E070
E070
E070
E070
7FE0
3FC0
ENDCHAR
STARTCHAR ntilde
ENCODING 241
SWIDTH 540 0
DWIDTH 18 0
BBX 12 18 2 0
BITMAP
3E70
7E70
E7C0
E7C0
0000
E3C0
E7C0
F870
F870
E070
E070
E070
E070
E070
E070
E070
E070
E070
ENDCHAR
STARTCHAR ograve
ENCODING 242
SWIDTH 540 0
DWIDTH 18 0
BBX 12 20 2 0
BITMAP
3800
3800
1E00
1E00
0780
0700
0000
0F00
1F80
39C0
39C0
E070
E070
E070
E070
E070
79E0
39C0
1F80
1F80
ENDCHAR
STARTCHAR oacute
ENCODING 243
SWIDTH 540 0
DWIDTH 18 0
BBX 12 20 2 0
BITMAP
01C0
01C0
0780
0780
1E00
0E00
0000
0F00
1F80
39C0
39C0
E070
E070
E070
E070
E070
79E0
39C0
1F80
1F80
ENDCHAR
STARTCHAR ocircumflex
ENCODING 244
SWIDTH 540 0
DWIDTH 18 0
BBX 12 20 2 0
BITMAP
0600
0600
1F80
1F80
39C0
39C0
0000
0F00
1F80
39C0
39C0
E070
E070
E070
E070
E070
79E0
39C0
1F80
1F80
ENDCHAR
STARTCHAR otilde
ENCODING 245
SWIDTH 540 0
DWIDTH 18 0
BBX 12 18 2 0
BITMAP
3E70
7E70
E7C0
E7C0
0000
0F00
1F80
39C0
39C0
E070
E070
E070
E070
E070
79E0
39C0
1F80
1F80
ENDCHAR
STARTCHAR odieresis
ENCODING 246
SWIDTH 540 0
DWIDTH 18 0
BBX 12 18 2 0
BITMAP
39C0
39C0
39C0
39C0
0000
0F00
1F80
39C0
39C0
E070
E070
E070
E070
E070
79E0
39C0
1F80
1F80
ENDCHAR
STARTCHAR divide
ENCODING 247
SWIDTH 540 0
DWIDTH 18 0
BBX 14 12 0 2
BITMAP
0780
0780
0780
0000
0000
FFFC
FFFC
0000
0000
0780
0780
0780
ENDCHAR
STARTCHAR oslash
ENCODING 248
SWIDTH 540 0
DWIDTH 18 0
BBX 14 16 0 -2
BITMAP
000C
0FFC
0FFC
3878
3870
F1FC
F1FC
F79C
F71C
FE1C
3C78
3870
FFE0
FFE0
C000
C000
ENDCHAR
STARTCHAR ugrave
ENCODING 249
SWIDTH 540 0
DWIDTH 18 0
BBX 12 20 2 0
BITMAP
3800
3800
1E00
1E00
0780
0700
0000
E070
E070
E070
E070
E070
E070
E070
E070
E070
E070
E070
7FF0
3FF0
ENDCHAR
STARTCHAR uacute
ENCODING 250
SWIDTH 540 0
DWIDTH 18 0
BBX 12 20 2 0
BITMAP
01C0
01C0
0780
0780
1E00
0E00
0000
E070
E070
E070
E070
E070
E070
E070
E070
E070
E070
E070
7FF0
3FF0
ENDCHAR
STARTCHAR ucircumflex
ENCODING 251
SWIDTH 540 0
DWIDTH 18 0
BBX 12 20 2 0
BITMAP
0600
0600
1F80
1F80
39C0
39C0
0000
E070
E070
E070
E070
E070
E070
E070
E070
E070
E070
E070
7FF0
3FF0
ENDCHAR
STARTCHAR udieresis
ENCODING 252
SWIDTH 540 0
DWIDTH 18 0
BBX 12 18 2 0
BITMAP
39C0
39C0
39C0
39C0
0000
E070
E070
E070
E070
E070
E070
E070
E070
E070
E070
E070
7FF0
3FF0
ENDCHAR
STARTCHAR yacute
ENCODING 253
SWIDTH 540 0
DWIDTH 18 0
BBX 12 25 2 -5
BITMAP
01C0
01C0
0780
0780
1E00
0E00
0000
E070
E070
E070
E070
39C0
39C0
39C0
39C0
39C0
1F80
1F80
1F80
1F80
1E00
1E00
DE00
3C00
3800
ENDCHAR
STARTCHAR thorn
ENCODING 254
SWIDTH 540 0
DWIDTH 18 0
BBX 12 19 2 -3
BITMAP
E000
E000
E000
FF00
FF80
E1C0
E1C0
E070
E070
E070
E070
E070
E1E0
E1C0
FF80
FF80
E000
E000
E000
ENDCHAR
STARTCHAR ydieresis
ENCODING 255
SWIDTH 540 0
DWIDTH 18 0
BBX 12 23 2 -5
BITMAP
39C0
39C0
39C0
39C0
0000
E070
E070
E070
E070
39C0
39C0
39C0
39C0
39C0
1F80
1F80
1F80
1F80
1E00
1E00
DE00
3C00
3800
ENDCHAR
STARTCHAR Amacron
ENCODING 256
SWIDTH 540 0
DWIDTH 18 0
BBX 12 21 2 0
BITMAP
3FC0
0000
0000
0600
0600
1F80
1F80
1F80
1F80
1F80
39C0
39C0
3FC0
3FC0
39C0
79E0
E070
E070
E070
E070
E070
ENDCHAR
STARTCHAR amacron
ENCODING 257
SWIDTH 540 0
DWIDTH 18 0
BBX 12 16 2 0
BITMAP
3FC0
3FC0
0000
3FC0
3FC0
0070
0070
0070
0070
3FF0
7FF0
E070
E070
E070
7FF0
3FF0
ENDCHAR
STARTCHAR Abreve
ENCODING 258
SWIDTH 540 0
DWIDTH 18 0
BBX 12 23 2 0
BITMAP
E070
F0F0
3FC0
0000
0000
0600
0600
1F80
1F80
1F80
1F80
1F80
39C0
39C0
3FC0
3FC0
39C0
79E0
E070
E070
E070
E070
E070
ENDCHAR
STARTCHAR abreve
ENCODING 259
SWIDTH 540 0
DWIDTH 18 0
BBX 12 18 2 0
BITMAP
E070
E070
3FC0
3FC0
0000
3FC0
3FC0
0070
0070
0070
0070
3FF0
7FF0
E070
E070
E070
7FF0
3FF0
ENDCHAR
STARTCHAR Aogonek
ENCODING 260
SWIDTH 540 0
DWIDTH 18 0
BBX 12 23 2 -5
BITMAP
0600
0600
1F80
1F80
1F80
1F80
1F80
39C0
39C0
3FC0
3FC0
39C0
79E0
E070
E070
E070
E070
E070
1E00
1E00
1E00
1FF0
1FF0
ENDCHAR
STARTCHAR aogonek
ENCODING 261
SWIDTH 540 0
DWIDTH 18 0
BBX 12 18 2 -5
BITMAP
3FC0
3FC0
0070
0070
0070
0070
3FF0
7FF0
E070
E070
E070
7FF0
3FF0
1E00
1E00
1E00
1FF0
1FF0
ENDCHAR
STARTCHAR Cacute
ENCODING 262
SWIDTH 540 0
DWIDTH 18 0
BBX 12 25 2 0
BITMAP
01C0
01C0
0780
0700
1E00
0000
0000
1FC0
1FE0
3870
7870
E000
E000
E000
E000
E000
E000
E000
E000
E000
E000
7870
3870
1FE0
1FC0
ENDCHAR
STARTCHAR cacute
ENCODING 263
SWIDTH 540 0
DWIDTH 18 0
BBX 12 20 2 0
BITMAP
01C0
01C0
0780
0780
1E00
0E00
0000
3FC0
3FC0
E070
E070
E000
E000
E000
E000
E000
E070
E070
7FE0
3FC0
ENDCHAR
STARTCHAR Ccircumflex
ENCODING 264
SWIDTH 540 0
DWIDTH 18 0
BBX 12 25 2 0
BITMAP
0600
0600
1F80
1F80
39C0
0000
0000
1FC0
1FE0
3870
7870
E000
E000
E000
E000
E000
E000
E000
E000
E000
E000
7870
3870
1FE0
1FC0
ENDCHAR
STARTCHAR ccircumflex
ENCODING 265
SWIDTH 540 0
DWIDTH 18 0
BBX 12 20 2 0
BITMAP
0600
0600
1F80
1F80
39C0
39C0
0000
3FC0
3FC0
E070
E070
E000
E000
E000
E000
E000
E070
E070
7FE0
3FC0
ENDCHAR
STARTCHAR Cdotaccent
ENCODING 266
SWIDTH 540 0
DWIDTH 18 0
BBX 12 23 2 0
BITMAP
0780
0780
0780
0000
0000
1FC0
1FE0
3870
7870
E000
E000
E000
E000
E000
E000
E000
E000
E000
E000
7870
3870
1FE0
1FC0
ENDCHAR
STARTCHAR cdotaccent
ENCODING 267
SWIDTH 540 0
DWIDTH 18 0
BBX 12 18 2 0
BITMAP
1E00
1E00
1E00
0E00
0000
3FC0
3FC0
E070
E070
E000
E000
E000
E000
E000
E070
E070
7FE0
3FC0
ENDCHAR
STARTCHAR Ccaron
ENCODING 268
SWIDTH 540 0
DWIDTH 18 0
BBX 12 25 2 0
BITMAP
39C0
39C0
1F80
0F00
0600
0000
0000
1FC0
1FE0
3870
7870
E000
E000
E000
E000
E000
E000
E000
E000
E000
E000
7870
3870
1FE0
1FC0
ENDCHAR
STARTCHAR ccaron
ENCODING 269
SWIDTH 540 0
DWIDTH 18 0
BBX 12 20 2 0
BITMAP
39C0
39C0
1F80
1F80
0600
0600
0000
3FC0
3FC0
E070
E070
E000
E000
E000
E000
E000
E070
E070
7FE0
3FC0
ENDCHAR
STARTCHAR Dcaron
ENCODING 270
SWIDTH 540 0
DWIDTH 18 0
BBX 12 25 2 0
BITMAP
39C0
39C0
1F80
0F00
0600
0000
0000
FF80
FF80
E1C0
E1E0
E070
E070
E070
E070
E070
E070
E070
E070
E070
E070
E1E0
E1C0
FF80
FF80
ENDCHAR
STARTCHAR dcaron
ENCODING 271
SWIDTH 540 0
DWIDTH 18 0
BBX 12 23 2 0
BITMAP
39C0
3FC0
1F80
0600
0600
0070
0070
0070
0070
0070
3FF0
3FF0
E070
E070
E070
E070
E070
E070
E070
E070
E070
7FF0
3FF0
ENDCHAR
STARTCHAR Dcroat
ENCODING 272
SWIDTH 540 0
DWIDTH 18 0
BBX 14 18 0 0
BITMAP
3FE0
3FE0
3870
3878
381C
381C
381C
FE1C
FE1C
381C
381C
381C
381C
381C
3878
3870
3FE0
3FE0
ENDCHAR
STARTCHAR dcroat
ENCODING 273
SWIDTH 540 0
DWIDTH 18 0
BBX 14 18 0 0
BITMAP
0070
0078
07FC
03FC
0070
3FF0
3FF0
F070
F070
F070
F070
F070
F070
F070
F070
F070
3FF0
3FF0
ENDCHAR
STARTCHAR Emacron
ENCODING 274
SWIDTH 540 0
DWIDTH 18 0
BBX 12 21 2 0
BITMAP
3FC0
0000
0000
FFF0
FFF0
E000
E000
E000
E000
E000
FF80
FF80
E000
E000
E000
E000
E000
E000
E000
FFF0
FFF0
ENDCHAR
STARTCHAR emacron
ENCODING 275
SWIDTH 540 0
DWIDTH 18 0
BBX 12 16 2 0
BITMAP
3FC0
3FC0
0000
3FC0
3FC0
E070
E070
E070
E070
FFF0
FFF0
E000
E070
E070
7FE0
3FC0
ENDCHAR
STARTCHAR Ebreve
ENCODING 276
SWIDTH 540 0
DWIDTH 18 0
BBX 12 23 2 0
BITMAP
E070
F0F0
3FC0
0000
0000
FFF0
FFF0
E000
E000
E000
E000
E000
FF80
FF80
E000
E000
E000
E000
E000
E000
E000
FFF0
FFF0
ENDCHAR
STARTCHAR ebreve
ENCODING 277
SWIDTH 540 0
DWIDTH 18 0
BBX 12 18 2 0
BITMAP
E070
E070
3FC0
3FC0
0000
3FC0
3FC0
E070
E070
E070
E070
FFF0
FFF0
E000
E070
E070
7FE0
3FC0
ENDCHAR
STARTCHAR Edotaccent
ENCODING 278
SWIDTH 540 0
DWIDTH 18 0
BBX 12 23 2 0
BITMAP
0780
0780
0780
0000
0000
FFF0
FFF0
E000
E000
E000
E000
E000
FF80
FF80
E000
E000
E000
E000
E000
E000
E000
FFF0
FFF0
ENDCHAR
STARTCHAR edotaccent
ENCODING 279
SWIDTH 540 0
DWIDTH 18 0
BBX 12 18 2 0
BITMAP
0780
0780
0780
0700
0000
3FC0
3FC0
E070
E070
E070
E070
FFF0
FFF0
E000
E070
E070
7FE0
3FC0
ENDCHAR
STARTCHAR Eogonek
ENCODING 280
SWIDTH 540 0
DWIDTH 18 0
BBX 12 23 2 -5
BITMAP
FFF0
FFF0
E000
E000
E000
E000
E000
FF80
FF80
E000
E000
E000
E000
E000
E000
E000
FFF0
FFF0
1E00
1E00
1E00
1FF0
1FF0
ENDCHAR
STARTCHAR eogonek
ENCODING 281
SWIDTH 540 0
DWIDTH 18 0
BBX 12 18 2 -5
BITMAP
3FC0
3FC0
E070
E070
E070
E070
FFF0
FFF0
E000
E070
E070
7FE0
3FC0
1E00
1E00
1E00
1FF0
1FF0
ENDCHAR
STARTCHAR Ecaron
ENCODING 282
SWIDTH 540 0
DWIDTH 18 0
BBX 12 25 2 0
BITMAP
39C0
39C0
1F80
0F00
0600
0000
0000
FFF0
FFF0
E000
E000
E000
E000
E000
FF80
FF80
E000
E000
E000
E000
E000
E000
E000
FFF0
FFF0
ENDCHAR
STARTCHAR ecaron
ENCODING 283
SWIDTH 540 0
DWIDTH 18 0
BBX 12 20 2 0
BITMAP
39C0
39C0
1F80
1F80
0600
0600
0000
3FC0
3FC0
E070
E070
E070
E070
FFF0
FFF0
E000
E070
E070
7FE0
3FC0
ENDCHAR
STARTCHAR Gcircumflex
ENCODING 284
SWIDTH 540 0
DWIDTH 18 0
BBX 12 25 2 0
BITMAP
0600
0600
1F80
1F80
39C0
0000
0000
1F80
1F80
39C0
79E0
E070
E000
E000
E000
E000
E1F0
E1F0
E070
E070
E070
79E0
39C0
1F80
1F80
ENDCHAR
STARTCHAR gcircumflex
ENCODING 285
SWIDTH 540 0
DWIDTH 18 0
BBX 12 25 2 -5
BITMAP
0600
0600
1F80
1F80
39C0
39C0
0000
3FF0
3FF0
E1E0
E1C0
E1C0
E1C0
E1C0
F3C0
3F80
F000
E000
7FC0
7FE0
E070
E070
E070
7FE0
3FC0
ENDCHAR
STARTCHAR Gbreve
ENCODING 286
SWIDTH 540 0
DWIDTH 18 0
BBX 12 23 2 0
BITMAP
E070
F0F0
3FC0
0000
0000
1F80
1F80
39C0
79E0
E070
E000
E000
E000
E000
E1F0
E1F0
E070
E070
E070
79E0
39C0
1F80
1F80
ENDCHAR
STARTCHAR gbreve
ENCODING 287
SWIDTH 540 0
DWIDTH 18 0
BBX 12 23 2 -5
BITMAP
E070
E070
3FC0
3FC0
0000
3FF0
3FF0
E1E0
E1C0
E1C0
E1C0
E1C0
F3C0
3F80
F000
E000
7FC0
7FE0
E070
E070
E070
7FE0
3FC0
ENDCHAR
STARTCHAR Gdotaccent
ENCODING 288
SWIDTH 540 0
DWIDTH 18 0
BBX 12 23 2 0
BITMAP
1E00
1E00
1E00
0000
0000
1F80
1F80
39C0
79E0
E070
E000
E000
E000
E000
E1F0
E1F0
E070
E070
E070
79E0
39C0
1F80
1F80
ENDCHAR
STARTCHAR gdotaccent
ENCODING 289
SWIDTH 540 0
DWIDTH 18 0
BBX 12 23 2 -5
BITMAP
1E00
1E00
1E00
0E00
0000
3FF0
3FF0
E1E0
E1C0
E1C0
E1C0
E1C0
F3C0
3F80
F000
E000
7FC0
7FE0
E070
E070
E070
7FE0
3FC0
ENDCHAR
STARTCHAR Gcommaaccent
ENCODING 290
SWIDTH 540 0
DWIDTH 18 0
BBX 12 25 2 -7
BITMAP
1F80
1F80
39C0
79E0
E070
E000
E000
E000
E000
E1F0
E1F0
E070
E070
E070
79E0
39C0
1F80
1F80
0780
0780
01C0
39C0
39C0
1F80
1F80
ENDCHAR
STARTCHAR gcommaaccent
ENCODING 291
SWIDTH 540 0
DWIDTH 18 0
BBX 12 26 2 -5
BITMAP
0780
0E00
1E00
1F80
1F80
1F80
0F00
0000
3FF0
3FF0
E1E0
E1C0
E1C0
E1C0
E1C0
F3C0
3F80
F000
E000
7FC0
7FE0
E070
E070
E070
7FE0
3FC0
ENDCHAR
STARTCHAR Hcircumflex
ENCODING 292
SWIDTH 540 0
DWIDTH 18 0
BBX 12 25 2 0
BITMAP
0600
0600
1F80
1F80
39C0
0000
0000
E070
E070
E070
E070
E070
E070
E070
FFF0
FFF0
E070
E070
E070
E070
E070
E070
E070
E070
E070
ENDCHAR
STARTCHAR hcircumflex
ENCODING 293
SWIDTH 540 0
DWIDTH 18 0
BBX 12 25 2 0
BITMAP
0600
0600
1F80
1F80
39C0
0000
0000
E000
E000
E000
E000
E000
FFC0
FFC0
E070
E070
E070
E070
E070
E070
E070
E070
E070
E070
E070
ENDCHAR
STARTCHAR Hbar
ENCODING 294
SWIDTH 540 0
DWIDTH 18 0
BBX 16 18 0 0
BITMAP
381C
381C
381C
3C3C
FFFF
7C3E
381C
3FFC
3FFC
381C
381C
381C
381C
381C
381C
381C
381C
381C
ENDCHAR
STARTCHAR hbar
ENCODING 295
SWIDTH 540 0
DWIDTH 18 0
BBX 14 18 0 0
BITMAP
3800
3800
FF80
FF80
3800
3FF0
3FF0
381C
381C
381C
381C
381C
381C
381C
381C
381C
381C
381C
ENDCHAR
STARTCHAR Itilde
ENCODING 296
SWIDTH 540 0
DWIDTH 18 0
BBX 12 23 2 0
BITMAP
3E70
7EF0
E7C0
0000
0000
FFC0
FFC0
1E00
1E00
1E00
1E00
1E00
1E00
1E00
1E00
1E00
1E00
1E00
1E00
1E00
1E00
FFC0
FFC0
ENDCHAR
STARTCHAR itilde
ENCODING 297
SWIDTH 540 0
DWIDTH 18 0
BBX 12 18 2 0
BITMAP
3E70
7E70
E7C0
E7C0
0000
FC00
FE00
1E00
1E00
1E00
1E00
1E00
1E00
1E00
1E00
1E00
FFC0
FFC0
ENDCHAR
STARTCHAR Imacron
ENCODING 298
SWIDTH 540 0
DWIDTH 18 0
BBX 10 21 2 0
BITMAP
FFC0
0000
0000
FFC0
FFC0
1E00
1E00
1E00
1E00
1E00
1E00
1E00
1E00
1E00
1E00
1E00
1E00
1E00
1E00
FFC0
FFC0
ENDCHAR
STARTCHAR imacron
ENCODING 299
SWIDTH 540 0
DWIDTH 18 0
BBX 10 16 2 0
BITMAP
FFC0
FFC0
0000
FC00
FE00
1E00
1E00
1E00
1E00
1E00
1E00
1E00
1E00
1E00
FFC0
FFC0
ENDCHAR
STARTCHAR Ibreve
ENCODING 300
SWIDTH 540 0
DWIDTH 18 0
BBX 12 23 2 0
BITMAP
E070
F0F0
3FC0
0000
0000
FFC0
FFC0
1E00
1E00
1E00
1E00
1E00
1E00
1E00
1E00
1E00
1E00
1E00
1E00
1E00
1E00
FFC0
FFC0
ENDCHAR
STARTCHAR ibreve
ENCODING 301
SWIDTH 540 0
DWIDTH 18 0
BBX 10 18 2 0
BITMAP
E1C0
E1C0
3F80
3F00
0000
FC00
FE00
1E00
1E00
1E00
1E00
1E00
1E00
1E00
1E00
1E00
FFC0
FFC0
ENDCHAR
STARTCHAR Iogonek
ENCODING 302
SWIDTH 540 0
DWIDTH 18 0
BBX 12 23 2 -5
BITMAP
FFC0
FFC0
1E00
1E00
1E00
1E00
1E00
1E00
1E00
1E00
1E00
1E00
1E00
1E00
1E00
1E00
FFC0
FFC0
1E00
1E00
1E00
1FF0
1FF0
ENDCHAR
STARTCHAR iogonek
ENCODING 303
SWIDTH 540 0
DWIDTH 18 0
BBX 12 23 2 -5
BITMAP
1E00
1E00
1E00
0E00
0000
FC00
FE00
1E00
1E00
1E00
1E00
1E00
1E00
1E00
1E00
1E00
FFC0
FFC0
1E00
1E00
1E00
1FF0
1FF0
ENDCHAR
STARTCHAR Idotaccent
ENCODING 304
SWIDTH 540 0
DWIDTH 18 0
BBX 10 23 2 0
BITMAP
1E00
1E00
1E00
0000
0000
FFC0
FFC0
1E00
1E00
1E00
1E00
1E00
1E00
1E00
1E00
1E00
1E00
1E00
1E00
1E00
1E00
FFC0
FFC0
ENDCHAR
STARTCHAR dotlessi
ENCODING 305
SWIDTH 540 0
DWIDTH 18 0
BBX 10 13 2 0
BITMAP
FC00
FE00
1E00
1E00
1E00
1E00
1E00
1E00
1E00
1E00
1E00
FFC0
FFC0
ENDCHAR
STARTCHAR IJ
ENCODING 306
SWIDTH 540 0
DWIDTH 18 0
BBX 14 18 0 0
BITMAP
FE7C
FE7C
381C
381C
381C
381C
381C
381C
381C
381C
381C
381C
381C
381C
399C
399C
FE78
FE70
ENDCHAR
STARTCHAR ij
ENCODING 307
SWIDTH 540 0
DWIDTH 18 0
BBX 12 23 2 -5
BITMAP
3870
3870
3870
3870
0000
F9F0
F9F0
7870
3870
3870
3870
3870
3870
3870
3870
3870
FE70
FE70
0070
0070
1E70
07E0
07C0
ENDCHAR
STARTCHAR Jcircumflex
ENCODING 308
SWIDTH 540 0
DWIDTH 18 0
BBX 14 25 0 0
BITMAP
01E0
01E0
07F0
07F8
0E1C
0000
0000
07F0
07F0
01E0
01E0
01E0
01E0
01E0
01E0
01E0
01E0
01E0
01E0
01E0
F1E0
F1E0
F1E0
3F80
3F80
ENDCHAR
STARTCHAR jcircumflex
ENCODING 309
SWIDTH 540 0
DWIDTH 18 0
BBX 12 25 2 -5
BITMAP
0700
0780
1FC0
1FE0
3870
3870
0000
0F00
1F80
0780
0780
0780
0780
0780
0780
0780
0780
0780
0780
0780
E780
E780
E780
7E00
3E00
ENDCHAR
STARTCHAR Kcommaaccent
ENCODING 310
SWIDTH 540 0
DWIDTH 18 0
BBX 12 25 2 -7
BITMAP
E070
E070
E1C0
E1C0
E780
FE00
FE00
F800
F800
FE00
FE00
E780
E380
E1C0
E0F0
E070
E070
E070
0780
0780
01C0
39C0
39C0
1F80
1F80
ENDCHAR
STARTCHAR kcommaaccent
ENCODING 311
SWIDTH 540 0
DWIDTH 18 0
BBX 12 25 2 -7
BITMAP
E000
E000
E000
E000
E000
E1C0
E1C0
E780
E780
FE00
FE00
FE00
FE00
E780
E1C0
E1C0
E070
E070
0780
0780
01C0
39C0
39C0
1F80
1F80
ENDCHAR
STARTCHAR kgreenlandic
ENCODING 312
SWIDTH 540 0
DWIDTH 18 0
BBX 10 13 2 0
BITMAP
E1C0
E1C0
E780
E780
FE00
FE00
F800
FC00
FE00
F700
E780
E1C0
E1C0
ENDCHAR
STARTCHAR Lacute
ENCODING 313
SWIDTH 540 0
DWIDTH 18 0
BBX 12 25 2 0
BITMAP
01C0
01C0
0780
0700
1E00
0000
0000
E000
E000
E000
E000
E000
E000
E000
E000
E000
E000
E000
E000
E000
E000
E000
E000
FFF0
FFF0
ENDCHAR
STARTCHAR lacute
ENCODING 314
SWIDTH 540 0
DWIDTH 18 0
BBX 10 25 2 0
BITMAP
01C0
01C0
0780
0700
1E00
0000
0000
FE00
FE00
1E00
1E00
1E00
1E00
1E00
1E00
1E00
1E00
1E00
1E00
1E00
1E00
1E00
1E00
FFC0
FFC0
ENDCHAR
STARTCHAR Lcommaaccent
ENCODING 315
SWIDTH 540 0
DWIDTH 18 0
BBX 12 25 2 -7
BITMAP
E000
E000
E000
E000
E000
E000
E000
E000
E000
E000
E000
E000
E000
E000
E000
E000
FFF0
FFF0
0780
0780
01C0
39C0
39C0
1F80
1F80
ENDCHAR
STARTCHAR lcommaaccent
ENCODING 316
SWIDTH 540 0
DWIDTH 18 0
BBX 10 25 2 -7
BITMAP
FE00
FE00
1E00
1E00
1E00
1E00
1E00
1E00
1E00
1E00
1E00
1E00
1E00
1E00
1E00
1E00
FFC0
FFC0
0780
0780
01C0
39C0
39C0
1F80
1F80
ENDCHAR
STARTCHAR Lcaron
ENCODING 317
SWIDTH 540 0
DWIDTH 18 0
BBX 12 25 2 0
BITMAP
39C0
39C0
1F80
0F00
0600
0000
0000
E000
E000
E000
E000
E000
E000
E000
E000
E000
E000
E000
E000
E000
E000
E000
E000
FFF0
FFF0
ENDCHAR
STARTCHAR lcaron
ENCODING 318
SWIDTH 540 0
DWIDTH 18 0
BBX 10 25 2 0
BITMAP
39C0
39C0
1F80
0F00
0600
0000
0000
FE00
FE00
1E00
1E00
1E00
1E00
1E00
1E00
1E00
1E00
1E00
1E00
1E00
1E00
1E00
1E00
FFC0
FFC0
ENDCHAR
STARTCHAR Ldot
ENCODING 319
SWIDTH 540 0
DWIDTH 18 0
BBX 12 18 2 0
BITMAP
E000
E000
E000
E000
E000
E300
E780
E780
E780
E000
E000
E000
E000
E000
E000
E000
FFF0
FFF0
ENDCHAR
STARTCHAR ldot
ENCODING 320
SWIDTH 540 0
DWIDTH 18 0
BBX 12 18 2 0
BITMAP
FE00
FE00
1E00
1E00
1E00
1E70
1E70
1E70
1E70
1E00
1E00
1E00
1E00
1E00
1E00
1E00
FFC0
FFC0
ENDCHAR
STARTCHAR Lslash
ENCODING 321
SWIDTH 540 0
DWIDTH 18 0
BBX 14 18 0 0
BITMAP
0E00
0E00
0E00
0E00
0FE0
0F80
0F80
0E00
0E00
3E00
3E00
FE00
FE00
0E00
0E00
0E00
0FFC
0FFC
ENDCHAR
STARTCHAR lslash
ENCODING 322
SWIDTH 540 0
DWIDTH 18 0
BBX 10 18 2 0
BITMAP
FE00
FE00
1E00
1E00
1FC0
1F80
1F80
1E00
1E00
3E00
7E00
FE00
FE00
1E00
1E00
1E00
FFC0
FFC0
ENDCHAR
STARTCHAR Nacute
ENCODING 323
SWIDTH 540 0
DWIDTH 18 0
BBX 12 25 2 0
BITMAP
01C0
01C0
0780
0700
1E00
0000
0000
E070
E070
E070
F070
F870
FC70
FE70
E7F0
E7F0
E1F0
E1F0
E070
E070
E070
E070
E070
E070
E070
ENDCHAR
STARTCHAR nacute
ENCODING 324
SWIDTH 540 0
DWIDTH 18 0
BBX 12 20 2 0
BITMAP
01C0
01C0
0780
0780
1E00
0E00
0000
E3C0
E7C0
F870
F870
E070
E070
E070
E070
E070
E070
E070
E070
E070
ENDCHAR
STARTCHAR Ncommaaccent
ENCODING 325
SWIDTH 540 0
DWIDTH 18 0
BBX 12 25 2 -7
BITMAP
E070
E070
E070
F070
F870
FC70
FE70
E7F0
E7F0
E1F0
E1F0
E070
E070
E070
E070
E070
E070
E070
0780
0780
01C0
39C0
39C0
1F80
1F80
ENDCHAR
STARTCHAR ncommaaccent
ENCODING 326
SWIDTH 540 0
DWIDTH 18 0
BBX 12 20 2 -7
BITMAP
E3C0
E7C0
F870
F870
E070
E070
E070
E070
E070
E070
E070
E070
E070
0780
0780
01C0
39C0
39C0
1F80
1F80
ENDCHAR
STARTCHAR Ncaron
ENCODING 327
SWIDTH 540 0
DWIDTH 18 0
BBX 12 25 2 0
BITMAP
39C0
39C0
1F80
0F00
0600
0000
0000
E070
E070
E070
F070
F870
FC70
FE70
E7F0
E7F0
E1F0
E1F0
E070
E070
E070
E070
E070
E070
E070
ENDCHAR
STARTCHAR ncaron
ENCODING 328
SWIDTH 540 0
DWIDTH 18 0
BBX 12 20 2 0
BITMAP
39C0
39C0
1F80
1F80
0600
0600
0000
E3C0
E7C0
F870
F870
E070
E070
E070
E070
E070
E070
E070
E070
E070
ENDCHAR
STARTCHAR napostrophe
ENCODING 329
SWIDTH 540 0
DWIDTH 18 0
BBX 12 21 2 0
BITMAP
E000
E000
E000
6000
2000
C000
8000
0000
39C0
39C0
3E70
3E70
3870
3870
3870
3870
3870
3870
3870
3870
3870
ENDCHAR
STARTCHAR Eng
ENCODING 330
SWIDTH 540 0
DWIDTH 18 0
BBX 12 23 2 -5
BITMAP
E070
E070
E070
F070
F870
FC70
FE70
E7F0
E7F0
E1F0
E1F0
E070
E070
E070
E070
E070
E070
E070
0070
0070
1E70
07E0
07C0
ENDCHAR
STARTCHAR eng
ENCODING 331
SWIDTH 540 0
DWIDTH 18 0
BBX 12 18 2 -5
BITMAP
E3C0
E7C0
FE70
FE70
F870
F870
E070
E070
E070
E070
E070
E070
E070
0070
0070
1E70
07E0
07C0
ENDCHAR
STARTCHAR Omacron
ENCODING 332
SWIDTH 540 0
DWIDTH 18 0
BBX 12 21 2 0
BITMAP
3FC0
0000
0000
3FC0
7FE0
E070
E070
E070
E070
E070
E070
E070
E070
E070
E070
E070
E070
E070
E070
7FE0
3FC0
ENDCHAR
STARTCHAR omacron
ENCODING 333
SWIDTH 540 0
DWIDTH 18 0
BBX 12 16 2 0
BITMAP
3FC0
3FC0
0000
0F00
1F80
39C0
39C0
E070
E070
E070
E070
E070
79E0
39C0
1F80
1F80
ENDCHAR
STARTCHAR Obreve
ENCODING 334
SWIDTH 540 0
DWIDTH 18 0
BBX 12 23 2 0
BITMAP
E070
F0F0
3FC0
0000
0000
3FC0
7FE0
E070
E070
E070
E070
E070
E070
E070
E070
E070
E070
E070
E070
E070
E070
7FE0
3FC0
ENDCHAR
STARTCHAR obreve
ENCODING 335
SWIDTH 540 0
DWIDTH 18 0
BBX 12 18 2 0
BITMAP
E070
E070
3FC0
3FC0
0000
0F00
1F80
39C0
39C0
E070
E070
E070
E070
E070
79E0
39C0
1F80
1F80
ENDCHAR
STARTCHAR Ohungarumlaut
ENCODING 336
SWIDTH 540 0
DWIDTH 18 0
BBX 12 25 2 0
BITMAP
1E70
1E70
39C0
7BC0
E780
0000
0000
3FC0
7FE0
E070
E070
E070
E070
E070
E070
E070
E070
E070
E070
E070
E070
E070
E070
7FE0
3FC0
ENDCHAR
STARTCHAR ohungarumlaut
ENCODING 337
SWIDTH 540 0
DWIDTH 18 0
BBX 12 20 2 0
BITMAP
0E70
1E70
39E0
79C0
E780
E700
0000
0F00
1F80
39C0
39C0
E070
E070
E070
E070
E070
79E0
39C0
1F80
1F80
ENDCHAR
STARTCHAR OE
ENCODING 338
SWIDTH 540 0
DWIDTH 18 0
BBX 12 18 2 0
BITMAP
3FF0
7FF0
E780
E780
E780
E780
E780
E7C0
E7C0
E780
E780
E780
E780
E780
E780
E780
7FF0
3FF0
ENDCHAR
STARTCHAR oe
ENCODING 339
SWIDTH 540 0
DWIDTH 18 0
BBX 14 13 0 0
BITMAP
38F0
39F0
F79C
F79C
F79C
F79C
F7FC
F7FC
F780
F79C
F79C
39F8
39F0
ENDCHAR
STARTCHAR Racute
ENCODING 340
SWIDTH 540 0
DWIDTH 18 0
BBX 12 25 2 0
BITMAP
01C0
01C0
0780
0700
1E00
0000
0000
FFC0
FFE0
E070
E070
E070
E070
E070
E070
E070
FFC0
FFC0
E780
E380
E1C0
E0F0
E070
E070
E070
ENDCHAR
STARTCHAR racute
ENCODING 341
SWIDTH 540 0
DWIDTH 18 0
BBX 12 20 2 0
BITMAP
01C0
01C0
0780
0780
1E00
0E00
0000
E3C0
E7C0
7E70
3E70
3800
3800
3800
3800
3800
3800
3800
3800
3800
ENDCHAR
STARTCHAR Rcommaaccent
ENCODING 342
SWIDTH 540 0
DWIDTH 18 0
BBX 12 25 2 -7
BITMAP
FFC0
FFE0
E070
E070
E070
E070
E070
E070
E070
FFC0
FFC0
E780
E380
E1C0
E0F0
E070
E070
E070
0780
0780
01C0
39C0
39C0
1F80
1F80
ENDCHAR
STARTCHAR rcommaaccent
ENCODING 343
SWIDTH 540 0
DWIDTH 18 0
BBX 12 20 2 -7
BITMAP
E3C0
E7C0
7E70
3E70
3800
3800
3800
3800
3800
3800
3800
3800
3800
0780
0780
01C0
39C0
39C0
1F80
1F80
ENDCHAR
STARTCHAR Rcaron
ENCODING 344
SWIDTH 540 0
DWIDTH 18 0
BBX 12 25 2 0
BITMAP
39C0
39C0
1F80
0F00
0600
0000
0000
FFC0
FFE0
E070
E070
E070
E070
E070
E070
E070
FFC0
FFC0
E780
E380
E1C0
E0F0
E070
E070
E070
ENDCHAR
STARTCHAR rcaron
ENCODING 345
SWIDTH 540 0
DWIDTH 18 0
BBX 12 20 2 0
BITMAP
39C0
39C0
1F80
1F80
0600
0600
0000
E3C0
E7C0
7E70
3E70
3800
3800
3800
3800
3800
3800
3800
3800
3800
ENDCHAR
STARTCHAR Sacute
ENCODING 346
SWIDTH 540 0
DWIDTH 18 0
BBX 12 25 2 0
BITMAP
01C0
01C0
0780
0700
1E00
0000
0000
3FC0
7FE0
E070
E070
E000
E000
E000
7FC0
3FC0
0070
0070
0070
0070
0070
E070
E070
7FE0
3FC0
ENDCHAR
STARTCHAR sacute
ENCODING 347
SWIDTH 540 0
DWIDTH 18 0
BBX 12 20 2 0
BITMAP
01C0
01C0
0780
0780
1E00
0E00
0000
3FC0
3FC0
E070
E070
E000
E000
3FC0
3FE0
0070
E070
E070
7FE0
3FC0
ENDCHAR
STARTCHAR Scircumflex
ENCODING 348
SWIDTH 540 0
DWIDTH 18 0
BBX 12 25 2 0
BITMAP
0600
0600
1F80
1F80
39C0
0000
0000
3FC0
7FE0
E070
E070
E000
E000
E000
7FC0
3FC0
0070
0070
0070
0070
0070
E070
E070
7FE0
3FC0
ENDCHAR
STARTCHAR scircumflex
ENCODING 349
SWIDTH 540 0
DWIDTH 18 0
BBX 12 20 2 0
BITMAP
0600
0600
1F80
1F80
39C0
39C0
0000
3FC0
3FC0
E070
E070
E000
E000
3FC0
3FE0
0070
E070
E070
7FE0
3FC0
ENDCHAR
STARTCHAR Scedilla
ENCODING 350
SWIDTH 540 0
DWIDTH 18 0
BBX 12 25 2 -7
BITMAP
3FC0
7FE0
E070
E070
E000
E000
E000
7FC0
3FC0
0070
0070
0070
0070
0070
E070
E070
7FE0
3FC0
0780
0780
01C0
39C0
39C0
1F80
1F80
ENDCHAR
STARTCHAR scedilla
ENCODING 351
SWIDTH 540 0
DWIDTH 18 0
BBX 12 20 2 -7
BITMAP
3FC0
3FC0
E070
E070
E000
E000
3FC0
3FE0
0070
E070
E070
7FE0
3FC0
0780
0780
01C0
39C0
39C0
1F80
1F80
ENDCHAR
STARTCHAR Scaron
ENCODING 352
SWIDTH 540 0
DWIDTH 18 0
BBX 12 25 2 0
BITMAP
39C0
39C0
1F80
0F00
0600
0000
0000
3FC0
7FE0
E070
E070
E000
E000
E000
7FC0
3FC0
0070
0070
0070
0070
0070
E070
E070
7FE0
3FC0
ENDCHAR
STARTCHAR scaron
ENCODING 353
SWIDTH 540 0
DWIDTH 18 0
BBX 12 20 2 0
BITMAP
39C0
39C0
1F80
1F80
0600
0600
0000
3FC0
3FC0
E070
E070
E000
E000
3FC0
3FE0
0070
E070
E070
7FE0
3FC0
ENDCHAR
STARTCHAR Tcommaaccent
ENCODING 354
SWIDTH 540 0
DWIDTH 18 0
BBX 10 25 2 -7
BITMAP
FFC0
FFC0
1E00
1E00
1E00
1E00
1E00
1E00
1E00
1E00
1E00
1E00
1E00
1E00
1E00
1E00
1E00
1E00
0780
0780
01C0
39C0
39C0
1F80
1F80
ENDCHAR
STARTCHAR tcommaaccent
ENCODING 355
SWIDTH 540 0
DWIDTH 18 0
BBX 12 23 2 -7
BITMAP
1E00
1E00
1E00
FFC0
FFC0
1E00
1E00
1E00
1E00
1E00
1E00
1E00
1E70
1E70
07E0
07C0
0780
0780
01C0
39C0
39C0
1F80
1F80
ENDCHAR
STARTCHAR Tcaron
ENCODING 356
SWIDTH 540 0
DWIDTH 18 0
BBX 10 25 2 0
BITMAP
E1C0
E1C0
3F80
3F00
1E00
0000
0000
FFC0
FFC0
1E00
1E00
1E00
1E00
1E00
1E00
1E00
1E00
1E00
1E00
1E00
1E00
1E00
1E00
1E00
1E00
ENDCHAR
STARTCHAR tcaron
ENCODING 357
SWIDTH 540 0
DWIDTH 18 0
BBX 12 23 2 0
BITMAP
E1C0
F3C0
3F80
1E00
1E00
0000
0000
1E00
1E00
1E00
FFC0
FFC0
1E00
1E00
1E00
1E00
1E00
1E00
1E00
1E70
1E70
07E0
07C0
ENDCHAR
STARTCHAR Tbar
ENCODING 358
SWIDTH 540 0
DWIDTH 18 0
BBX 14 18 0 0
BITMAP
FFFC
FFFC
0780
0780
0780
3FF0
3FF0
0780
0780
0780
0780
0780
0780
0780
0780
0780
0780
0780
ENDCHAR
STARTCHAR tbar
ENCODING 359
SWIDTH 540 0
DWIDTH 18 0
BBX 14 16 0 0
BITMAP
0E00
0E00
0E00
FFC0
FFE0
1E00
0E00
FFE0
FFE0
0E00
0E00
0E00
0E1C
0E1C
07F8
07F0
ENDCHAR
STARTCHAR Utilde
ENCODING 360
SWIDTH 540 0
DWIDTH 18 0
BBX 12 23 2 0
BITMAP
3E70
7EF0
E7C0
0000
0000
E070
E070
E070
E070
E070
E070
E070
E070
E070
E070
E070
E070
E070
E070
79E0
39C0
1F80
1F80
ENDCHAR
STARTCHAR utilde
ENCODING 361
SWIDTH 540 0
DWIDTH 18 0
BBX 12 18 2 0
BITMAP
3E70
7E70
E7C0
E7C0
0000
E070
E070
E070
E070
E070
E070
E070
E070
E070
E070
E070
7FF0
3FF0
ENDCHAR
STARTCHAR Umacron
ENCODING 362
SWIDTH 540 0
DWIDTH 18 0
BBX 12 21 2 0
BITMAP
3FC0
0000
0000
E070
E070
E070
E070
E070
E070
E070
E070
E070
E070
E070
E070
E070
E070
79E0
39C0
1F80
1F80
ENDCHAR
STARTCHAR umacron
ENCODING 363
SWIDTH 540 0
DWIDTH 18 0
BBX 12 16 2 0
BITMAP
3FC0
3FC0
0000
E070
E070
E070
E070
E070
E070
E070
E070
E070
E070
E070
7FF0
3FF0
ENDCHAR
STARTCHAR Ubreve
ENCODING 364
SWIDTH 540 0
DWIDTH 18 0
BBX 12 23 2 0
BITMAP
E070
F0F0
3FC0
0000
0000
E070
E070
E070
E070
E070
E070
E070
E070
E070
E070
E070
E070
E070
E070
79E0
39C0
1F80
1F80
ENDCHAR
STARTCHAR ubreve
ENCODING 365
SWIDTH 540 0
DWIDTH 18 0
BBX 12 18 2 0
BITMAP
E070
E070
3FC0
3FC0
0000
E070
E070
E070
E070
E070
E070
E070
E070
E070
E070
E070
7FF0
3FF0
ENDCHAR
STARTCHAR Uring
ENCODING 366
SWIDTH 540 0
DWIDTH 18 0
BBX 12 25 2 0
BITMAP
1F80
1F80
39C0
3FC0
1F80
0000
0000
E070
E070
E070
E070
E070
E070
E070
E070
E070
E070
E070
E070
E070
E070
79E0
39C0
1F80
1F80
ENDCHAR
STARTCHAR uring
ENCODING 367
SWIDTH 540 0
DWIDTH 18 0
BBX 12 20 2 0
BITMAP
0F00
1F80
39C0
39C0
1F80
0F00
0000
E070
E070
E070
E070
E070
E070
E070
E070
E070
E070
E070
7FF0
3FF0
ENDCHAR
STARTCHAR Uhungarumlaut
ENCODING 368
SWIDTH 540 0
DWIDTH 18 0
BBX 12 25 2 0
BITMAP
1E70
1E70
39C0
7BC0
E780
0000
0000
E070
E070
E070
E070
E070
E070
E070
E070
E070
E070
E070
E070
E070
E070
79E0
39C0
1F80
1F80
ENDCHAR
STARTCHAR uhungarumlaut
ENCODING 369
SWIDTH 540 0
DWIDTH 18 0
BBX 12 20 2 0
BITMAP
0E70
1E70
39E0
79C0
E780
E700
0000
E070
E070
E070
E070
E070
E070
E070
E070
E070
E070
E070
7FF0
3FF0
ENDCHAR
STARTCHAR Uogonek
ENCODING 370
SWIDTH 540 0
DWIDTH 18 0
BBX 12 23 2 -5
BITMAP
E070
E070
E070
E070
E070
E070
E070
E070
E070
E070
E070
E070
E070
E070
79E0
39C0
1F80
1F80
1E00
1E00
1E00
1FF0
1FF0
ENDCHAR
STARTCHAR uogonek
ENCODING 371
SWIDTH 540 0
DWIDTH 18 0
BBX 12 18 2 -5
BITMAP
E070
E070
E070
E070
E070
E070
E070
E070
E070
E070
E070
7FF0
3FF0
1E00
1E00
1E00
1FF0
1FF0
ENDCHAR
STARTCHAR Wcircumflex
ENCODING 372
SWIDTH 540 0
DWIDTH 18 0
BBX 12 25 2 0
BITMAP
0600
0600
1F80
1F80
39C0
0000
0000
E070
E070
E070
E070
E070
E070
E070
E670
E670
E670
E670
E670
F6F0
FFF0
F9F0
F9F0
6060
2040
ENDCHAR
STARTCHAR wcircumflex
ENCODING 373
SWIDTH 540 0
DWIDTH 18 0
BBX 14 20 0 0
BITMAP
0380
0780
0FE0
1FE0
3870
3870
0000
E01C
F01C
F01C
F01C
F79C
F79C
F79C
F79C
F79C
FFFC
FFFC
3878
3870
ENDCHAR
STARTCHAR Ycircumflex
ENCODING 374
SWIDTH 540 0
DWIDTH 18 0
BBX 14 25 0 0
BITMAP
0780
0780
0FE0
1FE0
3870
0000
0000
E01C
F01C
F01C
F03C
3870
1FE0
0FE0
0780
0780
0780
0780
0780
0780
0780
0780
0780
0780
0780
ENDCHAR
STARTCHAR ycircumflex
ENCODING 375
SWIDTH 540 0
DWIDTH 18 0
BBX 12 25 2 -5
BITMAP
0600
0600
1F80
1F80
39C0
39C0
0000
E070
E070
E070
E070
39C0
39C0
39C0
39C0
39C0
1F80
1F80
1F80
1F80
1E00
1E00
DE00
3C00
3800
ENDCHAR
STARTCHAR Ydieresis
ENCODING 376
SWIDTH 540 0
DWIDTH 18 0
BBX 14 23 0 0
BITMAP
3870
3870
3870
0000
0000
E01C
F01C
F01C
F03C
3870
1FE0
0FE0
0780
0780
0780
0780
0780
0780
0780
0780
0780
0780
0780
ENDCHAR
STARTCHAR Zacute
ENCODING 377
SWIDTH 540 0
DWIDTH 18 0
BBX 12 25 2 0
BITMAP
01C0
01C0
0780
0700
1E00
0000
0000
FFF0
FFF0
0070
0070
0070
01E0
01C0
0780
0780
1E00
1E00
3800
7800
E000
E000
E000
FFF0
FFF0
ENDCHAR
STARTCHAR zacute
ENCODING 378
SWIDTH 540 0
DWIDTH 18 0
BBX 10 20 2 0
BITMAP
01C0
01C0
0780
0780
1E00
0E00
0000
FFC0
FFC0
01C0
01C0
0780
0780
1E00
1C00
3800
F000
E000
FFC0
FFC0
ENDCHAR
STARTCHAR Zdotaccent
ENCODING 379
SWIDTH 540 0
DWIDTH 18 0
BBX 12 23 2 0
BITMAP
1E00
1E00
1E00
0000
0000
FFF0
FFF0
0070
0070
0070
01E0
01C0
0780
0780
1E00
1E00
3800
7800
E000
E000
E000
FFF0
FFF0
ENDCHAR
STARTCHAR zdotaccent
ENCODING 380
SWIDTH 540 0
DWIDTH 18 0
BBX 10 18 2 0
BITMAP
1E00
1E00
1E00
0E00
0000
FFC0
FFC0
01C0
01C0
0780
0780
1E00
1C00
3800
F000
E000
FFC0
FFC0
ENDCHAR
STARTCHAR Zcaron
ENCODING 381
SWIDTH 540 0
DWIDTH 18 0
BBX 12 25 2 0
BITMAP
39C0
39C0
1F80
0F00
0600
0000
0000
FFF0
FFF0
0070
0070
0070
01E0
01C0
0780
0780
1E00
1E00
3800
7800
E000
E000
E000
FFF0
FFF0
ENDCHAR
STARTCHAR zcaron
ENCODING 382
SWIDTH 540 0
DWIDTH 18 0
BBX 10 20 2 0
BITMAP
39C0
39C0
1F80
1F80
0600
0600
0000
FFC0
FFC0
01C0
01C0
0780
0780
1E00
1C00
3800
F000
E000
FFC0
FFC0
ENDCHAR
STARTCHAR longs
ENCODING 383
SWIDTH 540 0
DWIDTH 18 0
BBX 10 18 2 0
BITMAP
1F80
1F80
39C0
39C0
3800
3800
3800
3800
3800
F800
F800
3800
3800
3800
3800
3800
3800
3800
ENDCHAR
STARTCHAR uni018F
ENCODING 399
SWIDTH 540 0
DWIDTH 18 0
BBX 12 18 2 0
BITMAP
3FC0
7FE0
E070
E070
0070
0070
0070
FFF0
FFF0
E070
E070
E070
E070
E070
E070
E070
7FE0
3FC0
ENDCHAR
STARTCHAR florin
ENCODING 402
SWIDTH 540 0
DWIDTH 18 0
BBX 14 20 0 -2
BITMAP
01F0
01F8
079C
079C
079C
0780
0780
0780
0780
0FE0
0FE0
0780
0780
0780
E780
F780
F780
F780
3E00
3E00
ENDCHAR
STARTCHAR Ohorn
ENCODING 416
SWIDTH 540 0
DWIDTH 18 0
BBX 14 18 2 0
BITMAP
3F8C
7F8C
E1CC
E1EC
E1F0
E1E0
E1C0
E1C0
E1C0
E1C0
E1C0
E1C0
E1C0
E1C0
E1C0
E1C0
7F80
3F80
ENDCHAR
STARTCHAR ohorn
ENCODING 417
SWIDTH 540 0
DWIDTH 18 0
BBX 14 13 2 0
BITMAP
0F04
1F8C
39CC
39CC
E070
E070
E070
E070
E070
79E0
39C0
1F80
1F80
ENDCHAR
STARTCHAR Uhorn
ENCODING 431
SWIDTH 540 0
DWIDTH 18 0
BBX 14 18 2 0
BITMAP
E1CC
E1CC
E1CC
E1EC
E1F0
E1E0
E1C0
E1C0
E1C0
E1C0
E1C0
E1C0
E1C0
E1C0
7F80
3F80
1E00
1E00
ENDCHAR
STARTCHAR uhorn
ENCODING 432
SWIDTH 540 0
DWIDTH 18 0
BBX 14 13 2 0
BITMAP
E1C4
E1CC
E1CC
E1CC
E1F0
E1F0
E1C0
E1C0
E1C0
E1C0
E1C0
7FC0
3FC0
ENDCHAR
STARTCHAR Scommaaccent
ENCODING 536
SWIDTH 540 0
DWIDTH 18 0
BBX 14 25 0 -7
BITMAP
3FF0
3FF8
F01C
F01C
F000
F000
F000
3FF0
3FF0
001C
001C
001C
001C
001C
E01C
F01C
3FF8
3FF0
0000
0000
07E0
01E0
01E0
0780
0780
ENDCHAR
STARTCHAR scommaaccent
ENCODING 537
SWIDTH 540 0
DWIDTH 18 0
BBX 14 20 0 -7
BITMAP
3FF0
3FF0
F01C
F01C
F000
F000
3FF0
3FF8
001C
E01C
F01C
3FF8
3FF0
0000
0000
07E0
01E0
01E0
0780
0780
ENDCHAR
STARTCHAR Tcommaaccent
ENCODING 538
SWIDTH 540 0
DWIDTH 18 0
BBX 14 25 0 -7
BITMAP
FFFC
FFFC
0780
0780
0780
0780
0780
0780
0780
0780
0780
0780
0780
0780
0780
0780
0780
0780
0000
0000
07E0
01E0
01E0
0780
0780
ENDCHAR
STARTCHAR tcommaaccent
ENCODING 539
SWIDTH 540 0
DWIDTH 18 0
BBX 14 23 0 -7
BITMAP
0E00
0E00
0E00
FFC0
FFE0
1E00
0E00
0E00
0E00
0E00
0E00
0E00
0E1C
0E1C
07F8
07F0
0000
0000
07E0
01E0
01E0
0780
0780
ENDCHAR
STARTCHAR uni0259
ENCODING 601
SWIDTH 540 0
DWIDTH 18 0
BBX 12 13 2 0
BITMAP
3FC0
3FC0
E070
E070
0070
0070
FFF0
FFF0
E070
E070
E070
7FE0
3FC0
ENDCHAR
STARTCHAR afii57929
ENCODING 700
SWIDTH 540 0
DWIDTH 18 0
BBX 6 7 5 11
BITMAP
FC
FC
FC
7C
3C
70
F0
ENDCHAR
STARTCHAR afii64937
ENCODING 701
SWIDTH 540 0
DWIDTH 18 0
BBX 6 7 5 11
BITMAP
FC
FC
FC
F8
F0
38
3C
ENDCHAR
STARTCHAR circumflex
ENCODING 710
SWIDTH 540 0
DWIDTH 18 0
BBX 8 5 4 13
BITMAP
18
18
7E
7E
E7
ENDCHAR
STARTCHAR caron
ENCODING 711
SWIDTH 540 0
DWIDTH 18 0
BBX 8 5 4 13
BITMAP
E7
E7
7E
3C
18
ENDCHAR
STARTCHAR breve
ENCODING 728
SWIDTH 540 0
DWIDTH 18 0
BBX 12 4 2 16
BITMAP
E070
E070
7FE0
3FC0
ENDCHAR
STARTCHAR dotaccent
ENCODING 729
SWIDTH 540 0
DWIDTH 18 0
BBX 4 4 5 16
BITMAP
70
F0
F0
F0
ENDCHAR
STARTCHAR ring
ENCODING 730
SWIDTH 540 0
DWIDTH 18 0
BBX 8 6 4 14
BITMAP
3C
7E
E7
E7
7E
3C
ENDCHAR
STARTCHAR ogonek
ENCODING 731
SWIDTH 540 0
DWIDTH 18 0
BBX 8 5 4 -5
BITMAP
78
78
E0
7F
7F
ENDCHAR
STARTCHAR tilde
ENCODING 732
SWIDTH 540 0
DWIDTH 18 0
BBX 12 4 2 16
BITMAP
3E70
3E70
E7E0
E7C0
ENDCHAR
STARTCHAR hungarumlaut
ENCODING 733
SWIDTH 540 0
DWIDTH 18 0
BBX 12 6 2 14
BITMAP
0E70
1E70
39E0
79C0
E780
E700
ENDCHAR
STARTCHAR gravecomb
ENCODING 768
SWIDTH 540 0
DWIDTH 18 0
BBX 7 5 4 20
BITMAP
E0
E0
78
38
1E
ENDCHAR
STARTCHAR acutecomb
ENCODING 769
SWIDTH 540 0
DWIDTH 18 0
BBX 7 5 4 20
BITMAP
1E
1E
78
70
E0
ENDCHAR
STARTCHAR uni0302
ENCODING 770
SWIDTH 540 0
DWIDTH 18 0
BBX 8 5 4 20
BITMAP
18
18
7E
7E
E7
ENDCHAR
STARTCHAR tildecomb
ENCODING 771
SWIDTH 540 0
DWIDTH 18 0
BBX 12 3 2 20
BITMAP
3E70
7EF0
E7C0
ENDCHAR
STARTCHAR uni0304
ENCODING 772
SWIDTH 540 0
DWIDTH 18 0
BBX 8 1 4 20
BITMAP
FF
ENDCHAR
STARTCHAR uni0305
ENCODING 773
SWIDTH 540 0
DWIDTH 18 0
BBX 16 1 0 20
BITMAP
FFFF
ENDCHAR
STARTCHAR uni0306
ENCODING 774
SWIDTH 540 0
DWIDTH 18 0
BBX 12 3 2 20
BITMAP
E070
F0F0
3FC0
ENDCHAR
STARTCHAR uni0307
ENCODING 775
SWIDTH 540 0
DWIDTH 18 0
BBX 4 3 5 20
BITMAP
F0
F0
F0
ENDCHAR
STARTCHAR uni0308
ENCODING 776
SWIDTH 540 0
DWIDTH 18 0
BBX 8 3 4 20
BITMAP
E7
E7
E7
ENDCHAR
STARTCHAR hookabovecomb
ENCODING 777
SWIDTH 540 0
DWIDTH 18 0
BBX 9 7 2 18
BITMAP
3E00
7E00
E780
E780
0780
0E00
1E00
ENDCHAR
STARTCHAR uni030A
ENCODING 778
SWIDTH 540 0
DWIDTH 18 0
BBX 8 5 4 20
BITMAP
7E
7E
E7
FF
7E
ENDCHAR
STARTCHAR uni030B
ENCODING 779
SWIDTH 540 0
DWIDTH 18 0
BBX 12 5 2 20
BITMAP
1E70
1E70
39C0
7BC0
E780
ENDCHAR
STARTCHAR uni030C
ENCODING 780
SWIDTH 540 0
DWIDTH 18 0
BBX 8 5 4 20
BITMAP
E7
E7
7E
3C
18
ENDCHAR
STARTCHAR uni030D
ENCODING 781
SWIDTH 540 0
DWIDTH 18 0
BBX 4 7 5 18
BITMAP
F0
F0
F0
F0
F0
F0
F0
ENDCHAR
STARTCHAR uni030E
ENCODING 782
SWIDTH 540 0
DWIDTH 18 0
BBX 8 7 4 18
BITMAP
E7
E7
E7
E7
E7
E7
E7
ENDCHAR
STARTCHAR uni030F
ENCODING 783
SWIDTH 540 0
DWIDTH 18 0
BBX 12 5 2 20
BITMAP
E780
E780
39C0
3DE0
1E70
ENDCHAR
STARTCHAR uni0310
ENCODING 784
SWIDTH 540 0
DWIDTH 18 0
BBX 14 5 0 20
BITMAP
0780
0780
F01C
F03C
3FF0
ENDCHAR
STARTCHAR uni0311
ENCODING 785
SWIDTH 540 0
DWIDTH 18 0
BBX 10 3 2 20
BITMAP
3F80
7F80
E1C0
ENDCHAR
STARTCHAR dotbelowcomb
ENCODING 803
SWIDTH 540 0
DWIDTH 18 0
BBX 4 3 5 -5
BITMAP
F0
F0
F0
ENDCHAR
STARTCHAR uni0324
ENCODING 804
SWIDTH 540 0
DWIDTH 18 0
BBX 8 3 4 -5
BITMAP
E7
E7
E7
ENDCHAR
STARTCHAR uni0325
ENCODING 805
SWIDTH 540 0
DWIDTH 18 0
BBX 8 5 4 -7
BITMAP
7E
FF
E7
7E
7E
ENDCHAR
STARTCHAR uni0327
ENCODING 807
SWIDTH 540 0
DWIDTH 18 0
BBX 8 7 4 -7
BITMAP
1E
1E
07
E7
E7
7E
7E
ENDCHAR
STARTCHAR uni0328
ENCODING 808
SWIDTH 540 0
DWIDTH 18 0
BBX 9 5 5 -5
BITMAP
F000
F000
F000
FF80
FF80
ENDCHAR
STARTCHAR uni0340
ENCODING 832
SWIDTH 540 0
DWIDTH 18 0
BBX 7 5 4 20
BITMAP
E0
E0
78
38
1E
ENDCHAR
STARTCHAR uni0341
ENCODING 833
SWIDTH 540 0
DWIDTH 18 0
BBX 7 5 4 20
BITMAP
1E
1E
78
70
E0
ENDCHAR
STARTCHAR uni0374
ENCODING 884
SWIDTH 540 0
DWIDTH 18 0
BBX 7 6 4 14
BITMAP
1C
1E
78
78
E0
E0
ENDCHAR
STARTCHAR uni0375
ENCODING 885
SWIDTH 540 0
DWIDTH 18 0
BBX 7 5 4 -5
BITMAP
1E
1C
78
F0
E0
ENDCHAR
STARTCHAR uni037A
ENCODING 890
SWIDTH 540 0
DWIDTH 18 0
BBX 7 3 4 -5
BITMAP
E0
FC
FE
ENDCHAR
STARTCHAR uni037E
ENCODING 894
SWIDTH 540 0
DWIDTH 18 0
BBX 6 18 5 -5
BITMAP
78
FC
FC
FC
00
00
00
00
00
78
FC
FC
FC
3C
3C
3C
70
F0
ENDCHAR
STARTCHAR tonos
ENCODING 900
SWIDTH 540 0
DWIDTH 18 0
BBX 7 6 4 14
BITMAP
1C
1E
78
78
E0
E0
ENDCHAR
STARTCHAR dieresistonos
ENCODING 901
SWIDTH 540 0
DWIDTH 18 0
BBX 8 10 4 13
BITMAP
07
0F
1E
38
78
00
00
E7
E7
E7
ENDCHAR
STARTCHAR Alphatonos
ENCODING 902
SWIDTH 540 0
DWIDTH 18 0
BBX 12 25 2 0
BITMAP
01C0
01C0
0780
0700
1E00
0000
0000
0600
0600
1F80
1F80
1F80
1F80
1F80
39C0
39C0
3FC0
3FC0
39C0
79E0
E070
E070
E070
E070
E070
ENDCHAR
STARTCHAR anoteleia
ENCODING 903
SWIDTH 540 0
DWIDTH 18 0
BBX 4 4 5 9
BITMAP
60
F0
F0
F0
ENDCHAR
STARTCHAR Epsilontonos
ENCODING 904
SWIDTH 540 0
DWIDTH 18 0
BBX 12 25 2 0
BITMAP
01C0
01C0
0780
0700
1E00
0000
0000
FFF0
FFF0
E000
E000
E000
E000
E000
FF80
FF80
E000
E000
E000
E000
E000
E000
E000
FFF0
FFF0
ENDCHAR
STARTCHAR Etatonos
ENCODING 905
SWIDTH 540 0
DWIDTH 18 0
BBX 12 25 2 0
BITMAP
01C0
01C0
0780
0700
1E00
0000
0000
E070
E070
E070
E070
E070
E070
E070
FFF0
FFF0
E070
E070
E070
E070
E070
E070
E070
E070
E070
ENDCHAR
STARTCHAR Iotatonos
ENCODING 906
SWIDTH 540 0
DWIDTH 18 0
BBX 10 25 2 0
BITMAP
01C0
01C0
0780
0700
1E00
0000
0000
FFC0
FFC0
1E00
1E00
1E00
1E00
1E00
1E00
1E00
1E00
1E00
1E00
1E00
1E00
1E00
1E00
FFC0
FFC0
ENDCHAR
STARTCHAR Omicrontonos
ENCODING 908
SWIDTH 540 0
DWIDTH 18 0
BBX 12 25 2 0
BITMAP
01C0
01C0
0780
0700
1E00
0000
0000
3FC0
7FE0
E070
E070
E070
E070
E070
E070
E070
E070
E070
E070
E070
E070
E070
E070
7FE0
3FC0
ENDCHAR
STARTCHAR Upsilontonos
ENCODING 910
SWIDTH 540 0
DWIDTH 18 0
BBX 14 25 0 0
BITMAP
0070
0070
01E0
01C0
0780
0000
0000
E01C
F01C
F01C
F03C
3870
1FE0
0FE0
0780
0780
0780
0780
0780
0780
0780
0780
0780
0780
0780
ENDCHAR
STARTCHAR Omegatonos
ENCODING 911
SWIDTH 540 0
DWIDTH 18 0
BBX 14 25 0 0
BITMAP
0070
0070
01E0
01C0
0780
0000
0000
0FE0
1FE0
3870
3878
F01C
F01C
F01C
F01C
F01C
F01C
F01C
F01C
F03C
3870
3870
3870
F87C
F87C
ENDCHAR
STARTCHAR iotadieresistonos
ENCODING 912
SWIDTH 540 0
DWIDTH 18 0
BBX 12 25 2 0
BITMAP
01C0
01C0
0780
0700
1E00
0000
0000
E1C0
E1C0
E1C0
E1C0
0000
0C00
1E00
1E00
1E00
1E00
1E00
1E00
1E00
1E00
1E70
1E70
07E0
07C0
ENDCHAR
STARTCHAR Alpha
ENCODING 913
SWIDTH 540 0
DWIDTH 18 0
BBX 12 18 2 0
BITMAP
0600
0600
1F80
1F80
1F80
1F80
1F80
39C0
39C0
3FC0
3FC0
39C0
79E0
E070
E070
E070
E070
E070
ENDCHAR
STARTCHAR Beta
ENCODING 914
SWIDTH 540 0
DWIDTH 18 0
BBX 12 18 2 0
BITMAP
FFC0
FFE0
E070
E070
E070
E070
E070
FFE0
FFC0
E070
E070
E070
E070
E070
E070
E070
FFE0
FFC0
ENDCHAR
STARTCHAR Gamma
ENCODING 915
SWIDTH 540 0
DWIDTH 18 0
BBX 12 18 2 0
BITMAP
FFF0
FFF0
E000
E000
E000
E000
E000
E000
E000
E000
E000
E000
E000
E000
E000
E000
E000
E000
ENDCHAR
STARTCHAR Delta
ENCODING 916
SWIDTH 540 0
DWIDTH 18 0
BBX 14 18 0 0
BITMAP
0780
0780
0780
0780
0FE0
0FE0
0FE0
3870
3870
3870
3870
3870
7878
F01C
F01C
F01C
FFFC
FFFC
ENDCHAR
STARTCHAR Epsilon
ENCODING 917
SWIDTH 540 0
DWIDTH 18 0
BBX 12 18 2 0
BITMAP
FFF0
FFF0
E000
E000
E000
E000
E000
FF80
FF80
E000
E000
E000
E000
E000
E000
E000
FFF0
FFF0
ENDCHAR
STARTCHAR Zeta
ENCODING 918
SWIDTH 540 0
DWIDTH 18 0
BBX 12 18 2 0
BITMAP
FFF0
FFF0
0070
0070
0070
01E0
01C0
0780
0780
1E00
1E00
3800
7800
E000
E000
E000
FFF0
FFF0
ENDCHAR
STARTCHAR Eta
ENCODING 919
SWIDTH 540 0
DWIDTH 18 0
BBX 12 18 2 0
BITMAP
E070
E070
E070
E070
E070
E070
E070
FFF0
FFF0
E070
E070
E070
E070
E070
E070
E070
E070
E070
ENDCHAR
STARTCHAR Theta
ENCODING 920
SWIDTH 540 0
DWIDTH 18 0
BBX 12 18 2 0
BITMAP
3FC0
7FE0
E070
E070
E070
E070
E070
FFF0
FFF0
E070
E070
E070
E070
E070
E070
E070
7FE0
3FC0
ENDCHAR
STARTCHAR Iota
ENCODING 921
SWIDTH 540 0
DWIDTH 18 0
BBX 10 18 2 0
BITMAP
FFC0
FFC0
1E00
1E00
1E00
1E00
1E00
1E00
1E00
1E00
1E00
1E00
1E00
1E00
1E00
1E00
FFC0
FFC0
ENDCHAR
STARTCHAR Kappa
ENCODING 922
SWIDTH 540 0
DWIDTH 18 0
BBX 12 18 2 0
BITMAP
E070
E070
E1C0
E1C0
E780
FE00
FE00
F800
F800
FE00
FE00
E780
E380
E1C0
E0F0
E070
E070
E070
ENDCHAR
STARTCHAR Lambda
ENCODING 923
SWIDTH 540 0
DWIDTH 18 0
BBX 14 18 0 0
BITMAP
0780
0780
0780
0780
0FE0
0FE0
0FE0
3870
3870
3870
3870
3870
7878
F01C
F01C
F01C
F01C
E01C
ENDCHAR
STARTCHAR Mu
ENCODING 924
SWIDTH 540 0
DWIDTH 18 0
BBX 12 18 2 0
BITMAP
E070
E070
F9F0
F9F0
FFF0
F6F0
E670
E070
E070
E070
E070
E070
E070
E070
E070
E070
E070
E070
ENDCHAR
STARTCHAR Nu
ENCODING 925
SWIDTH 540 0
DWIDTH 18 0
BBX 12 18 2 0
BITMAP
E070
E070
E070
F070
F870
FC70
FE70
E7F0
E7F0
E1F0
E1F0
E070
E070
E070
E070
E070
E070
E070
ENDCHAR
STARTCHAR Xi
ENCODING 926
SWIDTH 540 0
DWIDTH 18 0
BBX 12 18 2 0
BITMAP
FFF0
FFF0
FFF0
FFF0
0000
0000
0000
3FC0
3FC0
3FC0
3FC0
0000
0000
0000
FFF0
FFF0
FFF0
FFF0
ENDCHAR
STARTCHAR Omicron
ENCODING 927
SWIDTH 540 0
DWIDTH 18 0
BBX 12 18 2 0
BITMAP
3FC0
7FE0
E070
E070
E070
E070
E070
E070
E070
E070
E070
E070
E070
E070
E070
E070
7FE0
3FC0
ENDCHAR
STARTCHAR Pi
ENCODING 928
SWIDTH 540 0
DWIDTH 18 0
BBX 12 18 2 0
BITMAP
FFF0
FFF0
E070
E070
E070
E070
E070
E070
E070
E070
E070
E070
E070
E070
E070
E070
E070
E070
ENDCHAR
STARTCHAR Rho
ENCODING 929
SWIDTH 540 0
DWIDTH 18 0
BBX 12 18 2 0
BITMAP
FF80
FF80
E1C0
E1E0
E070
E070
E070
E1E0
E1C0
FF80
FF80
E000
E000
E000
E000
E000
E000
E000
ENDCHAR
STARTCHAR Sigma
ENCODING 931
SWIDTH 540 0
DWIDTH 18 0
BBX 12 18 2 0
BITMAP
FFF0
FFF0
3800
3800
1E00
0700
0780
01C0
01C0
01C0
01C0
0780
0700
1E00
3800
3800
FFF0
FFF0
ENDCHAR
STARTCHAR Tau
ENCODING 932
SWIDTH 540 0
DWIDTH 18 0
BBX 10 18 2 0
BITMAP
FFC0
FFC0
1E00
1E00
1E00
1E00
1E00
1E00
1E00
1E00
1E00
1E00
1E00
1E00
1E00
1E00
1E00
1E00
ENDCHAR
STARTCHAR Upsilon
ENCODING 933
SWIDTH 540 0
DWIDTH 18 0
BBX 14 18 0 0
BITMAP
E01C
F01C
F01C
F03C
3870
1FE0
0FE0
0780
0780
0780
0780
0780
0780
0780
0780
0780
0780
0780
ENDCHAR
STARTCHAR Phi
ENCODING 934
SWIDTH 540 0
DWIDTH 18 0
BBX 14 18 0 0
BITMAP
0780
0780
3FF0
3FF8
F79C
F79C
F79C
F79C
F79C
F79C
F79C
F79C
F79C
F79C
3FF8
3FF0
0780
0780
ENDCHAR
STARTCHAR Chi
ENCODING 935
SWIDTH 540 0
DWIDTH 18 0
BBX 14 18 0 0
BITMAP
E01C
F01C
F01C
F03C
3870
1FE0
0FE0
0780
0780
0780
0780
0FE0
1FE0
3870
F03C
F01C
F01C
E01C
ENDCHAR
STARTCHAR Psi
ENCODING 936
SWIDTH 540 0
DWIDTH 18 0
BBX 14 18 0 0
BITMAP
E79C
F79C
F79C
F79C
F79C
F79C
F79C
F79C
F79C
F79C
F79C
3FF0
3FF0
0780
0780
0780
0780
0780
ENDCHAR
STARTCHAR Omega
ENCODING 937
SWIDTH 540 0
DWIDTH 18 0
BBX 14 18 0 0
BITMAP
0FE0
1FE0
3870
3878
F01C
F01C
F01C
F01C
F01C
F01C
F01C
F01C
F03C
3870
3870
3870
F87C
F87C
ENDCHAR
STARTCHAR Iotadieresis
ENCODING 938
SWIDTH 540 0
DWIDTH 18 0
BBX 10 23 2 0
BITMAP
E1C0
E1C0
E1C0
0000
0000
FFC0
FFC0
1E00
1E00
1E00
1E00
1E00
1E00
1E00
1E00
1E00
1E00
1E00
1E00
1E00
1E00
FFC0
FFC0
ENDCHAR
STARTCHAR Upsilondieresis
ENCODING 939
SWIDTH 540 0
DWIDTH 18 0
BBX 14 23 0 0
BITMAP
3870
3870
3870
0000
0000
E01C
F01C
F01C
F03C
3870
1FE0
0FE0
0780
0780
0780
0780
0780
0780
0780
0780
0780
0780
0780
ENDCHAR
STARTCHAR alphatonos
ENCODING 940
SWIDTH 540 0
DWIDTH 18 0
BBX 12 20 2 0
BITMAP
01C0
01C0
0780
0780
1E00
0E00
0000
3FF0
3FF0
E1F0
E1F0
E070
E070
E070
E0F0
E1F0
E7F0
E7F0
7E70
3E70
ENDCHAR
STARTCHAR epsilontonos
ENCODING 941
SWIDTH 540 0
DWIDTH 18 0
BBX 12 20 2 0
BITMAP
01C0
01C0
0780
0780
1E00
0E00
0000
3FC0
3FC0
E070
E070
E000
E000
3F80
7F00
E000
E070
E070
7FE0
3FC0
ENDCHAR
STARTCHAR etatonos
ENCODING 942
SWIDTH 540 0
DWIDTH 18 0
BBX 12 25 2 -5
BITMAP
01C0
01C0
0780
0780
1E00
0E00
0000
E3C0
E7C0
FE70
FE70
F870
F870
E070
E070
E070
E070
E070
E070
E070
0070
0070
0070
0070
0070
ENDCHAR
STARTCHAR iotatonos
ENCODING 943
SWIDTH 540 0
DWIDTH 18 0
BBX 8 20 4 0
BITMAP
1C
1E
78
78
E0
E0
00
E0
E0
E0
E0
E0
E0
E0
E0
E0
E7
E7
7E
7E
ENDCHAR
STARTCHAR upsilondieresistonos
ENCODING 944
SWIDTH 540 0
DWIDTH 18 0
BBX 12 25 2 0
BITMAP
01C0
01C0
0780
0700
1E00
0000
0000
39C0
39C0
39C0
39C0
0000
E070
E070
E070
E070
E070
E070
E070
E070
E070
E070
E070
7FE0
3FC0
ENDCHAR
STARTCHAR alpha
ENCODING 945
SWIDTH 540 0
DWIDTH 18 0
BBX 12 13 2 0
BITMAP
3FF0
3FF0
E1F0
E1F0
E070
E070
E070
E0F0
E1F0
E7F0
E7F0
7E70
3E70
ENDCHAR
STARTCHAR beta
ENCODING 946
SWIDTH 540 0
DWIDTH 18 0
BBX 12 23 2 -5
BITMAP
3E00
7E00
E780
E780
E780
E780
E780
FFC0
FFC0
E070
E070
E070
E070
E070
E070
E070
FFE0
FFC0
E000
E000
E000
E000
E000
ENDCHAR
STARTCHAR gamma
ENCODING 947
SWIDTH 540 0
DWIDTH 18 0
BBX 14 18 0 -5
BITMAP
E01C
F01C
F01C
F01C
3870
3870
3870
3CF0
0FE0
0FE0
0FE0
0780
0780
0780
0780
0780
0780
0780
ENDCHAR
STARTCHAR delta
ENCODING 948
SWIDTH 540 0
DWIDTH 18 0
BBX 12 18 2 0
BITMAP
3FC0
7FE0
E070
F070
3800
3FC0
3FC0
E070
E070
E070
E070
E070
E070
E070
E070
E070
7FE0
3FC0
ENDCHAR
STARTCHAR epsilon
ENCODING 949
SWIDTH 540 0
DWIDTH 18 0
BBX 12 13 2 0
BITMAP
3FC0
3FC0
E070
E070
E000
E000
3F80
7F00
E000
E070
E070
7FE0
3FC0
ENDCHAR
STARTCHAR zeta
ENCODING 950
SWIDTH 540 0
DWIDTH 18 0
BBX 12 23 2 -5
BITMAP
FFF0
FFF0
0780
0700
1E00
3C00
3800
E000
E000
E000
E000
E000
E000
E000
E000
E000
7FC0
3FE0
0070
0070
0070
01E0
01C0
ENDCHAR
STARTCHAR eta
ENCODING 951
SWIDTH 540 0
DWIDTH 18 0
BBX 12 18 2 -5
BITMAP
E3C0
E7C0
FE70
FE70
F870
F870
E070
E070
E070
E070
E070
E070
E070
0070
0070
0070
0070
0070
ENDCHAR
STARTCHAR theta
ENCODING 952
SWIDTH 540 0
DWIDTH 18 0
BBX 10 18 2 0
BITMAP
3F80
7F80
E1C0
E1C0
E1C0
E1C0
E1C0
FFC0
FFC0
E1C0
E1C0
E1C0
E1C0
E1C0
E1C0
E1C0
7F80
3F80
ENDCHAR
STARTCHAR iota
ENCODING 953
SWIDTH 540 0
DWIDTH 18 0
BBX 8 13 4 0
BITMAP
E0
E0
E0
E0
E0
E0
E0
E0
E0
E7
E7
7E
7E
ENDCHAR
STARTCHAR kappa
ENCODING 954
SWIDTH 540 0
DWIDTH 18 0
BBX 10 13 2 0
BITMAP
E1C0
E1C0
E780
E780
FE00
FE00
F800
FC00
FE00
F700
E780
E1C0
E1C0
ENDCHAR
STARTCHAR lambda
ENCODING 955
SWIDTH 540 0
DWIDTH 18 0
BBX 10 18 2 0
BITMAP
3F80
7F80
E1C0
E1C0
01C0
3FC0
3FC0
E1C0
E1C0
E1C0
E1C0
E1C0
E1C0
E1C0
E1C0
E1C0
E1C0
E1C0
ENDCHAR
STARTCHAR mu
ENCODING 956
SWIDTH 540 0
DWIDTH 18 0
BBX 12 18 2 -5
BITMAP
E070
E070
E070
E070
E070
E070
E070
E070
E070
F9F0
F9F0
FE70
FE70
E000
E000
E000
E000
E000
ENDCHAR
STARTCHAR nu
ENCODING 957
SWIDTH 540 0
DWIDTH 18 0
BBX 14 13 0 0
BITMAP
E01C
F01C
F01C
F01C
3870
3870
3870
3CF0
0FE0
0FE0
0FE0
0780
0780
ENDCHAR
STARTCHAR xi
ENCODING 958
SWIDTH 540 0
DWIDTH 18 0
BBX 12 23 2 -5
BITMAP
FFF0
FFF0
1E00
1E00
3800
3800
3800
1F80
1F80
3800
7800
E000
E000
E000
E000
E000
7FC0
3FE0
0070
0070
0070
01E0
01C0
ENDCHAR
STARTCHAR omicron
ENCODING 959
SWIDTH 540 0
DWIDTH 18 0
BBX 12 13 2 0
BITMAP
0F00
1F80
39C0
39C0
E070
E070
E070
E070
E070
79E0
39C0
1F80
1F80
ENDCHAR
STARTCHAR pi
ENCODING 960
SWIDTH 540 0
DWIDTH 18 0
BBX 12 13 2 0
BITMAP
FFF0
FFF0
79E0
39C0
39C0
39C0
39C0
39C0
39C0
39C0
39C0
39C0
39C0
ENDCHAR
STARTCHAR rho
ENCODING 961
SWIDTH 540 0
DWIDTH 18 0
BBX 12 18 2 -5
BITMAP
3FC0
3FC0
E070
E070
E070
E070
E070
E070
E070
E070
E070
FFE0
FFC0
E000
E000
E000
E000
E000
ENDCHAR
STARTCHAR sigma1
ENCODING 962
SWIDTH 540 0
DWIDTH 18 0
BBX 12 18 2 -5
BITMAP
3FC0
3FC0
E070
E070
E000
E000
E000
E000
E000
E000
E000
7FC0
3FE0
0070
0070
0070
03E0
07C0
ENDCHAR
STARTCHAR sigma
ENCODING 963
SWIDTH 540 0
DWIDTH 18 0
BBX 12 13 2 0
BITMAP
3FF0
3FF0
E780
E780
E1C0
E1E0
E070
E070
E070
E070
E070
7FE0
3FC0
ENDCHAR
STARTCHAR tau
ENCODING 964
SWIDTH 540 0
DWIDTH 18 0
BBX 12 13 2 0
BITMAP
FFC0
FFC0
1E00
1E00
1E00
1E00
1E00
1E00
1E00
1E70
1E70
07E0
07C0
ENDCHAR
STARTCHAR upsilon
ENCODING 965
SWIDTH 540 0
DWIDTH 18 0
BBX 12 13 2 0
BITMAP
E070
E070
E070
E070
E070
E070
E070
E070
E070
E070
E070
7FE0
3FC0
ENDCHAR
STARTCHAR phi
ENCODING 966
SWIDTH 540 0
DWIDTH 18 0
BBX 14 18 0 -5
BITMAP
38F0
39F0
F79C
F79C
F79C
F79C
F79C
F79C
F79C
F79C
F79C
3FF8
3FF0
0780
0780
0780
0780
0780
ENDCHAR
STARTCHAR chi
ENCODING 967
SWIDTH 540 0
DWIDTH 18 0
BBX 14 18 0 -5
BITMAP
E01C
F01C
F01C
F01C
3870
3870
0FE0
0FC0
0780
0780
0780
0FE0
1FE0
3870
3878
F01C
F01C
F01C
ENDCHAR
STARTCHAR psi
ENCODING 968
SWIDTH 540 0
DWIDTH 18 0
BBX 14 18 0 -5
BITMAP
E31C
F79C
F79C
F79C
F79C
F79C
F79C
F79C
F79C
F79C
F79C
3FF8
3FF0
0780
0780
0780
0780
0780
ENDCHAR
STARTCHAR omega
ENCODING 969
SWIDTH 540 0
DWIDTH 18 0
BBX 14 13 0 0
BITMAP
E01C
F01C
F79C
F79C
F79C
F79C
F79C
F79C
F79C
F79C
F79C
3FF8
3FF0
ENDCHAR
STARTCHAR iotadieresis
ENCODING 970
SWIDTH 540 0
DWIDTH 18 0
BBX 12 18 2 0
BITMAP
E1C0
E1C0
E1C0
E1C0
0000
0C00
1E00
1E00
1E00
1E00
1E00
1E00
1E00
1E00
1E70
1E70
07E0
07C0
ENDCHAR
STARTCHAR upsilondieresis
ENCODING 971
SWIDTH 540 0
DWIDTH 18 0
BBX 12 18 2 0
BITMAP
39C0
39C0
39C0
39C0
0000
E070
E070
E070
E070
E070
E070
E070
E070
E070
E070
E070
7FE0
3FC0
ENDCHAR
STARTCHAR omicrontonos
ENCODING 972
SWIDTH 540 0
DWIDTH 18 0
BBX 12 20 2 0
BITMAP
01C0
01C0
0780
0780
1E00
0E00
0000
0F00
1F80
39C0
39C0
E070
E070
E070
E070
E070
79E0
39C0
1F80
1F80
ENDCHAR
STARTCHAR upsilontonos
ENCODING 973
SWIDTH 540 0
DWIDTH 18 0
BBX 12 20 2 0
BITMAP
01C0
01C0
0780
0780
1E00
0E00
0000
E070
E070
E070
E070
E070
E070
E070
E070
E070
E070
E070
7FE0
3FC0
ENDCHAR
STARTCHAR omegatonos
ENCODING 974
SWIDTH 540 0
DWIDTH 18 0
BBX 14 20 0 0
BITMAP
0070
0070
01E0
01E0
0780
0380
0000
E01C
F01C
F79C
F79C
F79C
F79C
F79C
F79C
F79C
F79C
F79C
3FF8
3FF0
ENDCHAR
STARTCHAR uni0400
ENCODING 1024
SWIDTH 540 0
DWIDTH 18 0
BBX 12 25 2 0
BITMAP
3800
3800
1E00
0E00
0780
0000
0000
FFF0
FFF0
E000
E000
E000
E000
E000
FF80
FF80
E000
E000
E000
E000
E000
E000
E000
FFF0
FFF0
ENDCHAR
STARTCHAR afii10023
ENCODING 1025
SWIDTH 540 0
DWIDTH 18 0
BBX 12 23 2 0
BITMAP
39C0
39C0
39C0
0000
0000
FFF0
FFF0
E000
E000
E000
E000
E000
FF80
FF80
E000
E000
E000
E000
E000
E000
E000
FFF0
FFF0
ENDCHAR
STARTCHAR afii10051
ENCODING 1026
SWIDTH 540 0
DWIDTH 18 0
BBX 14 21 0 -3
BITMAP
FFF0
FFF0
0E00
0E00
0E00
0E00
0E00
0FF0
0FF0
0E1C
0E1C
0E1C
0E1C
0E1C
0E1C
0E1C
0E1C
0E1C
001C
003C
0070
ENDCHAR
STARTCHAR afii10052
ENCODING 1027
SWIDTH 540 0
DWIDTH 18 0
BBX 12 25 2 0
BITMAP
01C0
01C0
0780
0700
1E00
0000
0000
FFF0
FFF0
E000
E000
E000
E000
E000
E000
E000
E000
E000
E000
E000
E000
E000
E000
E000
E000
ENDCHAR
STARTCHAR afii10053
ENCODING 1028
SWIDTH 540 0
DWIDTH 18 0
BBX 12 18 2 0
BITMAP
1FC0
1FE0
3870
7870
E000
E000
E000
FE00
FE00
E000
E000
E000
E000
E000
7870
3870
1FE0
1FC0
ENDCHAR
STARTCHAR afii10054
ENCODING 1029
SWIDTH 540 0
DWIDTH 18 0
BBX 12 18 2 0
BITMAP
3FC0
7FE0
E070
E070
E000
E000
E000
7FC0
3FC0
0070
0070
0070
0070
0070
E070
E070
7FE0
3FC0
ENDCHAR
STARTCHAR afii10055
ENCODING 1030
SWIDTH 540 0
DWIDTH 18 0
BBX 10 18 2 0
BITMAP
FFC0
FFC0
1E00
1E00
1E00
1E00
1E00
1E00
1E00
1E00
1E00
1E00
1E00
1E00
1E00
1E00
FFC0
FFC0
ENDCHAR
STARTCHAR afii10056
ENCODING 1031
SWIDTH 540 0
DWIDTH 18 0
BBX 10 23 2 0
BITMAP
39C0
39C0
39C0
0000
0000
FFC0
FFC0
1E00
1E00
1E00
1E00
1E00
1E00
1E00
1E00
1E00
1E00
1E00
1E00
1E00
1E00
FFC0
FFC0
ENDCHAR
STARTCHAR afii10057
ENCODING 1032
SWIDTH 540 0
DWIDTH 18 0
BBX 12 18 2 0
BITMAP
07F0
07F0
01C0
01C0
01C0
01C0
01C0
01C0
01C0
01C0
01C0
01C0
01C0
E1C0
E1C0
E1C0
7F80
3F80
ENDCHAR
STARTCHAR afii10058
ENCODING 1033
SWIDTH 540 0
DWIDTH 18 0
BBX 16 18 0 0
BITMAP
3FE0
3FE0
39E0
39E0
39E0
39E0
39E0
39FC
39FC
39EF
39EF
39EF
39EF
39EF
39EF
39EF
F9FC
F9FC
ENDCHAR
STARTCHAR afii10059
ENCODING 1034
SWIDTH 540 0
DWIDTH 18 0
BBX 14 18 0 0
BITMAP
E780
F780
F780
F780
F780
F780
F780
FFF0
FFF0
F79C
F79C
F79C
F79C
F79C
F79C
F79C
F7F8
E7F0
ENDCHAR
STARTCHAR afii10060
ENCODING 1035
SWIDTH 540 0
DWIDTH 18 0
BBX 14 18 0 0
BITMAP
FFF0
FFF0
0E00
0E00
0E00
0E00
0E00
0FF0
0FF0
0E1C
0E1C
0E1C
0E1C
0E1C
0E1C
0E1C
0E1C
0E1C
ENDCHAR
STARTCHAR afii10061
ENCODING 1036
SWIDTH 540 0
DWIDTH 18 0
BBX 12 25 2 0
BITMAP
01C0
01C0
0780
0700
1E00
0000
0000
E070
E070
E1C0
E1C0
E780
FE00
FE00
F800
F800
FE00
FE00
E780
E380
E1C0
E0F0
E070
E070
E070
ENDCHAR
STARTCHAR uni040D
ENCODING 1037
SWIDTH 540 0
DWIDTH 18 0
BBX 12 25 2 0
BITMAP
3800
3800
1E00
0E00
0780
0000
0000
E070
E070
E070
E070
E070
E1F0
E1F0
E7F0
E7F0
FE70
FE70
F870
F870
E070
E070
E070
E070
E070
ENDCHAR
STARTCHAR afii10062
ENCODING 1038
SWIDTH 540 0
DWIDTH 18 0
BBX 14 23 0 0
BITMAP
0E70
0FF0
07E0
0000
0000
381C
381C
381C
3C3C
0E70
0E70
0E70
0E70
0E70
07E0
07E0
07E0
07C0
0780
E780
F780
3E00
3E00
ENDCHAR
STARTCHAR afii10145
ENCODING 1039
SWIDTH 540 0
DWIDTH 18 0
BBX 14 21 0 -3
BITMAP
E01C
F01C
F01C
F01C
F01C
F01C
F01C
F01C
F01C
F01C
F01C
F01C
F01C
F01C
F01C
F01C
FFFC
FFFC
0780
0780
0780
ENDCHAR
STARTCHAR afii10017
ENCODING 1040
SWIDTH 540 0
DWIDTH 18 0
BBX 12 18 2 0
BITMAP
0600
0600
1F80
1F80
1F80
1F80
1F80
39C0
39C0
3FC0
3FC0
39C0
79E0
E070
E070
E070
E070
E070
ENDCHAR
STARTCHAR afii10018
ENCODING 1041
SWIDTH 540 0
DWIDTH 18 0
BBX 12 18 2 0
BITMAP
FFC0
FFC0
E000
E000
E000
E000
E000
FFC0
FFC0
E070
E070
E070
E070
E070
E070
E070
FFE0
FFC0
ENDCHAR
STARTCHAR afii10019
ENCODING 1042
SWIDTH 540 0
DWIDTH 18 0
BBX 12 18 2 0
BITMAP
FFC0
FFE0
E070
E070
E070
E070
E070
FFE0
FFC0
E070
E070
E070
E070
E070
E070
E070
FFE0
FFC0
ENDCHAR
STARTCHAR afii10020
ENCODING 1043
SWIDTH 540 0
DWIDTH 18 0
BBX 12 18 2 0
BITMAP
FFF0
FFF0
E000
E000
E000
E000
E000
E000
E000
E000
E000
E000
E000
E000
E000
E000
E000
E000
ENDCHAR
STARTCHAR afii10021
ENCODING 1044
SWIDTH 540 0
DWIDTH 18 0
BBX 14 21 0 -3
BITMAP
0FF0
0FF0
0E70
0E70
0E70
0E70
0E70
0E70
0E70
3870
3870
3870
3870
3870
3870
3870
FFFC
FFFC
F01C
F01C
F01C
ENDCHAR
STARTCHAR afii10022
ENCODING 1045
SWIDTH 540 0
DWIDTH 18 0
BBX 12 18 2 0
BITMAP
FFF0
FFF0
E000
E000
E000
E000
E000
FF80
FF80
E000
E000
E000
E000
E000
E000
E000
FFF0
FFF0
ENDCHAR
STARTCHAR afii10024
ENCODING 1046
SWIDTH 540 0
DWIDTH 18 0
BBX 14 18 0 0
BITMAP
E79C
F79C
F79C
F7BC
3FF0
3FF0
3FF0
1FE0
0FE0
3FF0
3FF0
3FF0
7FF8
F79C
F79C
F79C
F79C
E79C
ENDCHAR
STARTCHAR afii10025
ENCODING 1047
SWIDTH 540 0
DWIDTH 18 0
BBX 12 18 2 0
BITMAP
3FC0
7FE0
E070
E070
0070
01E0
01C0
0780
0780
01C0
01E0
0070
0070
0070
E070
E070
7FE0
3FC0
ENDCHAR
STARTCHAR afii10026
ENCODING 1048
SWIDTH 540 0
DWIDTH 18 0
BBX 12 18 2 0
BITMAP
E070
E070
E070
E070
E070
E1F0
E1F0
E7F0
E7F0
FE70
FE70
F870
F870
E070
E070
E070
E070
E070
ENDCHAR
STARTCHAR afii10027
ENCODING 1049
SWIDTH 540 0
DWIDTH 18 0
BBX 12 23 2 0
BITMAP
39C0
3FC0
1F80
0000
0000
E070
E070
E070
E070
E070
E1F0
E1F0
E7F0
E7F0
FE70
FE70
F870
F870
E070
E070
E070
E070
E070
ENDCHAR
STARTCHAR afii10028
ENCODING 1050
SWIDTH 540 0
DWIDTH 18 0
BBX 12 18 2 0
BITMAP
E070
E070
E1C0
E1C0
E780
FE00
FE00
F800
F800
FE00
FE00
E780
E380
E1C0
E0F0
E070
E070
E070
ENDCHAR
STARTCHAR afii10029
ENCODING 1051
SWIDTH 540 0
DWIDTH 18 0
BBX 12 18 2 0
BITMAP
07F0
07F0
1E70
1E70
1E70
1E70
1E70
1E70
1E70
3870
3870
3870
3870
3870
3870
3870
E070
E070
ENDCHAR
STARTCHAR afii10030
ENCODING 1052
SWIDTH 540 0
DWIDTH 18 0
BBX 12 18 2 0
BITMAP
E070
E070
F9F0
F9F0
FFF0
F6F0
E670
E070
E070
E070
E070
E070
E070
E070
E070
E070
E070
E070
ENDCHAR
STARTCHAR afii10031
ENCODING 1053
SWIDTH 540 0
DWIDTH 18 0
BBX 12 18 2 0
BITMAP
E070
E070
E070
E070
E070
E070
E070
FFF0
FFF0
E070
E070
E070
E070
E070
E070
E070
E070
E070
ENDCHAR
STARTCHAR afii10032
ENCODING 1054
SWIDTH 540 0
DWIDTH 18 0
BBX 12 18 2 0
BITMAP
3FC0
7FE0
E070
E070
E070
E070
E070
E070
E070
E070
E070
E070
E070
E070
E070
E070
7FE0
3FC0
ENDCHAR
STARTCHAR afii10033
ENCODING 1055
SWIDTH 540 0
DWIDTH 18 0
BBX 12 18 2 0
BITMAP
FFF0
FFF0
E070
E070
E070
E070
E070
E070
E070
E070
E070
E070
E070
E070
E070
E070
E070
E070
ENDCHAR
STARTCHAR afii10034
ENCODING 1056
SWIDTH 540 0
DWIDTH 18 0
BBX 12 18 2 0
BITMAP
FF80
FF80
E1C0
E1E0
E070
E070
E070
E1E0
E1C0
FF80
FF80
E000
E000
E000
E000
E000
E000
E000
ENDCHAR
STARTCHAR afii10035
ENCODING 1057
SWIDTH 540 0
DWIDTH 18 0
BBX 12 18 2 0
BITMAP
1FC0
1FE0
3870
7870
E000
E000
E000
E000
E000
E000
E000
E000
E000
E000
7870
3870
1FE0
1FC0
ENDCHAR
STARTCHAR afii10036
ENCODING 1058
SWIDTH 540 0
DWIDTH 18 0
BBX 10 18 2 0
BITMAP
FFC0
FFC0
1E00
1E00
1E00
1E00
1E00
1E00
1E00
1E00
1E00
1E00
1E00
1E00
1E00
1E00
1E00
1E00
ENDCHAR
STARTCHAR afii10037
ENCODING 1059
SWIDTH 540 0
DWIDTH 18 0
BBX 14 18 0 0
BITMAP
381C
381C
381C
3C3C
0E70
0E70
0E70
0E70
0E70
07E0
07E0
07E0
07C0
0780
E780
F780
3E00
3E00
ENDCHAR
STARTCHAR afii10038
ENCODING 1060
SWIDTH 540 0
DWIDTH 18 0
BBX 14 18 0 0
BITMAP
0780
0780
3FF0
3FF8
F79C
F79C
F79C
F79C
F79C
F79C
F79C
F79C
F79C
F79C
3FF8
3FF0
0780
0780
ENDCHAR
STARTCHAR afii10039
ENCODING 1061
SWIDTH 540 0
DWIDTH 18 0
BBX 14 18 0 0
BITMAP
E01C
F01C
F01C
F03C
3870
1FE0
0FE0
0780
0780
0780
0780
0FE0
1FE0
3870
F03C
F01C
F01C
E01C
ENDCHAR
STARTCHAR afii10040
ENCODING 1062
SWIDTH 540 0
DWIDTH 18 0
BBX 12 21 2 -3
BITMAP
E1C0
E1C0
E1C0
E1C0
E1C0
E1C0
E1C0
E1C0
E1C0
E1C0
E1C0
E1C0
E1C0
E1C0
E1C0
E1C0
FFF0
FFF0
0070
0070
0070
ENDCHAR
STARTCHAR afii10041
ENCODING 1063
SWIDTH 540 0
DWIDTH 18 0
BBX 12 18 2 0
BITMAP
E070
E070
E070
E070
E070
E070
E070
7FF0
3FF0
0070
0070
0070
0070
0070
0070
0070
0070
0070
ENDCHAR
STARTCHAR afii10042
ENCODING 1064
SWIDTH 540 0
DWIDTH 18 0
BBX 14 18 0 0
BITMAP
E79C
F79C
F79C
F79C
F79C
F79C
F79C
F79C
F79C
F79C
F79C
F79C
F79C
F79C
F79C
F79C
FFFC
FFFC
ENDCHAR
STARTCHAR afii10043
ENCODING 1065
SWIDTH 540 0
DWIDTH 18 0
BBX 16 21 0 -3
BITMAP
E79C
F79C
F79C
F79C
F79C
F79C
F79C
F79C
F79C
F79C
F79C
F79C
F79C
F79C
F79C
F79C
FFFF
FFFF
000F
000F
000F
ENDCHAR
STARTCHAR afii10044
ENCODING 1066
SWIDTH 540 0
DWIDTH 18 0
BBX 14 18 0 0
BITMAP
FE00
FE00
0E00
0E00
0E00
0E00
0E00
0FE0
0FE0
0E70
0E78
0E1C
0E1C
0E1C
0E78
0E70
0FE0
0FE0
ENDCHAR
STARTCHAR afii10045
ENCODING 1067
SWIDTH 540 0
DWIDTH 18 0
BBX 14 18 0 0
BITMAP
E01C
F01C
F01C
F01C
F01C
F01C
F01C
FE1C
FE1C
F79C
F79C
F79C
F79C
F79C
F79C
F79C
FE1C
FE1C
ENDCHAR
STARTCHAR afii10046
ENCODING 1068
SWIDTH 540 0
DWIDTH 18 0
BBX 14 18 0 0
BITMAP
E000
F000
F000
F000
F000
F000
F000
FFE0
FFE0
F070
F078
F01C
F01C
F01C
F078
F070
FFE0
FFE0
ENDCHAR
STARTCHAR afii10047
ENCODING 1069
SWIDTH 540 0
DWIDTH 18 0
BBX 12 18 2 0
BITMAP
3F80
7F80
E1C0
E1E0
0070
0070
0070
07F0
07F0
0070
0070
0070
0070
0070
E1E0
E1C0
7F80
3F80
ENDCHAR
STARTCHAR afii10048
ENCODING 1070
SWIDTH 540 0
DWIDTH 18 0
BBX 14 18 0 0
BITMAP
E1F0
F1F8
F79C
F79C
F79C
F79C
F79C
FF9C
FF9C
F79C
F79C
F79C
F79C
F79C
F79C
F79C
F1F8
E1F0
ENDCHAR
STARTCHAR afii10049
ENCODING 1071
SWIDTH 540 0
DWIDTH 18 0
BBX 12 18 2 0
BITMAP
3FF0
7FF0
E070
E070
E070
E070
E070
E070
E070
3FF0
3FF0
1E70
1C70
3870
F070
E070
E070
E070
ENDCHAR
STARTCHAR afii10065
ENCODING 1072
SWIDTH 540 0
DWIDTH 18 0
BBX 12 13 2 0
BITMAP
3FC0
3FC0
0070
0070
0070
0070
3FF0
7FF0
E070
E070
E070
7FF0
3FF0
ENDCHAR
STARTCHAR afii10066
ENCODING 1073
SWIDTH 540 0
DWIDTH 18 0
BBX 12 18 2 0
BITMAP
01C0
01C0
3F80
7F00
E000
FFC0
FFC0
E070
E070
E070
E070
E070
E070
E070
E070
E070
7FE0
3FC0
ENDCHAR
STARTCHAR afii10067
ENCODING 1074
SWIDTH 540 0
DWIDTH 18 0
BBX 12 13 2 0
BITMAP
FFC0
FFC0
E070
E070
E070
E070
FFC0
FFE0
E070
E070
E070
FFE0
FFC0
ENDCHAR
STARTCHAR afii10068
ENCODING 1075
SWIDTH 540 0
DWIDTH 18 0
BBX 12 13 2 0
BITMAP
FFF0
FFF0
E000
E000
E000
E000
E000
E000
E000
E000
E000
E000
E000
ENDCHAR
STARTCHAR afii10069
ENCODING 1076
SWIDTH 540 0
DWIDTH 18 0
BBX 12 15 2 -2
BITMAP
0FC0
1FC0
19C0
19C0
39C0
39C0
39C0
79C0
E1C0
E1C0
E1C0
FFF0
FFF0
C030
8010
ENDCHAR
STARTCHAR afii10070
ENCODING 1077
SWIDTH 540 0
DWIDTH 18 0
BBX 14 13 0 0
BITMAP
0FC0
0FE0
3870
3870
F01C
F01C
FFFC
FFFC
F000
381C
381C
1FF8
0FF0
ENDCHAR
STARTCHAR afii10072
ENCODING 1078
SWIDTH 540 0
DWIDTH 18 0
BBX 14 13 0 0
BITMAP
E31C
F79C
F79C
F79C
3FF0
3FF0
0FE0
1FE0
3FF0
F7BC
F79C
F79C
E79C
ENDCHAR
STARTCHAR afii10073
ENCODING 1079
SWIDTH 540 0
DWIDTH 18 0
BBX 12 13 2 0
BITMAP
3FC0
3FC0
E070
E070
0070
0070
07C0
03E0
0070
E070
E070
7FE0
3FC0
ENDCHAR
STARTCHAR afii10074
ENCODING 1080
SWIDTH 540 0
DWIDTH 18 0
BBX 12 13 2 0
BITMAP
E070
E070
E070
E070
E1F0
E1F0
E670
F470
F870
F070
E070
E070
E070
ENDCHAR
STARTCHAR afii10075
ENCODING 1081
SWIDTH 540 0
DWIDTH 18 0
BBX 12 18 2 0
BITMAP
39C0
39C0
1F80
0F00
0000
E070
E070
E070
E070
E1F0
E1F0
E670
F470
F870
F070
E070
E070
E070
ENDCHAR
STARTCHAR afii10076
ENCODING 1082
SWIDTH 540 0
DWIDTH 18 0
BBX 12 13 2 0
BITMAP
E070
E070
E1E0
E1C0
E780
E780
FE00
FE00
E780
E1C0
E1C0
E070
E070
ENDCHAR
STARTCHAR afii10077
ENCODING 1083
SWIDTH 540 0
DWIDTH 18 0
BBX 12 13 2 0
BITMAP
03F0
07F0
1E70
1E70
1E70
1E70
3870
3870
3870
3870
3870
E070
E070
ENDCHAR
STARTCHAR afii10078
ENCODING 1084
SWIDTH 540 0
DWIDTH 18 0
BBX 12 13 2 0
BITMAP
E070
E070
F9F0
F9F0
FFF0
FFF0
E670
E070
E070
E070
E070
E070
E070
ENDCHAR
STARTCHAR afii10079
ENCODING 1085
SWIDTH 540 0
DWIDTH 18 0
BBX 12 13 2 0
BITMAP
E070
E070
E070
E070
E070
E070
FFF0
FFF0
E070
E070
E070
E070
E070
ENDCHAR
STARTCHAR afii10080
ENCODING 1086
SWIDTH 540 0
DWIDTH 18 0
BBX 12 13 2 0
BITMAP
3FC0
3FC0
E070
E070
E070
E070
E070
E070
E070
E070
E070
7FE0
3FC0
ENDCHAR
STARTCHAR afii10081
ENCODING 1087
SWIDTH 540 0
DWIDTH 18 0
BBX 12 13 2 0
BITMAP
FFF0
FFF0
E070
E070
E070
E070
E070
E070
E070
E070
E070
E070
E070
ENDCHAR
STARTCHAR afii10082
ENCODING 1088
SWIDTH 540 0
DWIDTH 18 0
BBX 12 18 2 -5
BITMAP
FFC0
FFC0
E070
E070
E070
E070
E070
E070
E070
E070
E070
FFE0
FFC0
E000
E000
E000
E000
E000
ENDCHAR
STARTCHAR afii10083
ENCODING 1089
SWIDTH 540 0
DWIDTH 18 0
BBX 12 13 2 0
BITMAP
3FC0
3FC0
E070
E070
E000
E000
E000
E000
E000
E070
E070
7FE0
3FC0
ENDCHAR
STARTCHAR afii10084
ENCODING 1090
SWIDTH 540 0
DWIDTH 18 0
BBX 14 13 0 0
BITMAP
FFFC
FFFC
0780
0780
0780
0780
0780
0780
0780
0780
0780
0780
0780
ENDCHAR
STARTCHAR afii10085
ENCODING 1091
SWIDTH 540 0
DWIDTH 18 0
BBX 12 18 2 -5
BITMAP
E070
E070
E070
E070
E070
E070
E070
E070
E070
E070
E070
7FF0
3FF0
0070
0070
C070
3FE0
3FC0
ENDCHAR
STARTCHAR afii10086
ENCODING 1092
SWIDTH 540 0
DWIDTH 18 0
BBX 14 23 0 -5
BITMAP
0780
0780
0780
0780
0780
3FF0
3FF0
F79C
F79C
F79C
F79C
F79C
F79C
F79C
F79C
F79C
3FF8
3FF0
0780
0780
0780
0780
0780
ENDCHAR
STARTCHAR afii10087
ENCODING 1093
SWIDTH 540 0
DWIDTH 18 0
BBX 14 13 0 0
BITMAP
E01C
F01C
3878
3870
0FE0
0FE0
0780
0780
0FE0
3C70
3870
F01C
E01C
ENDCHAR
STARTCHAR afii10088
ENCODING 1094
SWIDTH 540 0
DWIDTH 18 0
BBX 12 16 2 -3
BITMAP
E070
E070
E070
E070
E070
E070
E070
E070
E070
E070
E070
FFF0
FFF0
0070
0070
0070
ENDCHAR
STARTCHAR afii10089
ENCODING 1095
SWIDTH 540 0
DWIDTH 18 0
BBX 12 13 2 0
BITMAP
E070
E070
E070
E070
E070
E070
3FF0
3FF0
0070
0070
0070
0070
0070
ENDCHAR
STARTCHAR afii10090
ENCODING 1096
SWIDTH 540 0
DWIDTH 18 0
BBX 14 13 0 0
BITMAP
E31C
F79C
F79C
F79C
F79C
F79C
F79C
F79C
F79C
F79C
F79C
FFFC
FFFC
ENDCHAR
STARTCHAR afii10091
ENCODING 1097
SWIDTH 540 0
DWIDTH 18 0
BBX 14 16 0 -3
BITMAP
E31C
F79C
F79C
F79C
F79C
F79C
F79C
F79C
F79C
F79C
F79C
FFFC
FFFC
001C
001C
001C
ENDCHAR
STARTCHAR afii10092
ENCODING 1098
SWIDTH 540 0
DWIDTH 18 0
BBX 14 13 0 0
BITMAP
FE00
FE00
1E00
0E00
0E00
0E00
0FF0
0FF8
0E1C
0E1C
0E1C
0FF8
0FF0
ENDCHAR
STARTCHAR afii10093
ENCODING 1099
SWIDTH 540 0
DWIDTH 18 0
BBX 14 13 0 0
BITMAP
E01C
F01C
F01C
F01C
F01C
F01C
FE1C
FF1C
F79C
F79C
F79C
FE1C
FE1C
ENDCHAR
STARTCHAR afii10094
ENCODING 1100
SWIDTH 540 0
DWIDTH 18 0
BBX 12 13 2 0
BITMAP
E000
E000
E000
E000
E000
E000
FFC0
FFE0
E070
E070
E070
FFE0
FFC0
ENDCHAR
STARTCHAR afii10095
ENCODING 1101
SWIDTH 540 0
DWIDTH 18 0
BBX 12 13 2 0
BITMAP
3FC0
3FC0
E070
E070
0070
0070
07F0
03F0
0070
E070
E070
7FE0
3FC0
ENDCHAR
STARTCHAR afii10096
ENCODING 1102
SWIDTH 540 0
DWIDTH 18 0
BBX 14 13 0 0
BITMAP
E0F0
F1F0
F79C
F79C
F79C
F79C
FF9C
FF9C
F79C
F79C
F79C
F1F8
E1F0
ENDCHAR
STARTCHAR afii10097
ENCODING 1103
SWIDTH 540 0
DWIDTH 18 0
BBX 12 13 2 0
BITMAP
3FF0
3FF0
E070
E070
E070
E070
3FF0
3FF0
1E70
3870
3870
E070
E070
ENDCHAR
STARTCHAR uni0450
ENCODING 1104
SWIDTH 540 0
DWIDTH 18 0
BBX 12 20 2 0
BITMAP
3800
3800
1E00
1E00
0780
0700
0000
3FC0
3FC0
E070
E070
E070
E070
FFF0
FFF0
E000
E070
E070
7FE0
3FC0
ENDCHAR
STARTCHAR afii10071
ENCODING 1105
SWIDTH 540 0
DWIDTH 18 0
BBX 12 18 2 0
BITMAP
3870
3870
3870
3870
0000
3FC0
3FC0
E070
E070
E070
E070
FFF0
FFF0
E000
E070
E070
7FE0
3FC0
ENDCHAR
STARTCHAR afii10099
ENCODING 1106
SWIDTH 540 0
DWIDTH 18 0
BBX 12 21 2 -3
BITMAP
3800
7800
FF80
FF00
3800
3FC0
3FC0
3870
3870
3870
3870
3870
3870
3870
3870
3870
3870
3870
0070
00F0
07C0
ENDCHAR
STARTCHAR afii10100
ENCODING 1107
SWIDTH 540 0
DWIDTH 18 0
BBX 12 20 2 0
BITMAP
01C0
01C0
0780
0780
1E00
0E00
0000
FFF0
FFF0
E000
E000
E000
E000
E000
E000
E000
E000
E000
E000
E000
ENDCHAR
STARTCHAR afii10101
ENCODING 1108
SWIDTH 540 0
DWIDTH 18 0
BBX 12 13 2 0
BITMAP
3FC0
3FC0
E030
E030
E000
E000
FE00
FC00
E000
E010
E030
7FC0
3FC0
ENDCHAR
STARTCHAR afii10102
ENCODING 1109
SWIDTH 540 0
DWIDTH 18 0
BBX 12 13 2 0
BITMAP
3FC0
3FC0
E030
E030
E000
E000
3FC0
3FE0
0070
8070
C070
3FE0
3FC0
ENDCHAR
STARTCHAR afii10103
ENCODING 1110
SWIDTH 540 0
DWIDTH 18 0
BBX 10 18 2 0
BITMAP
1E00
1E00
1E00
0E00
0000
3C00
3E00
1E00
1E00
1E00
1E00
1E00
1E00
1E00
1E00
1E00
FFC0
FFC0
ENDCHAR
STARTCHAR afii10104
ENCODING 1111
SWIDTH 540 0
DWIDTH 18 0
BBX 10 18 2 0
BITMAP
E1C0
E1C0
E1C0
E1C0
0000
3C00
3E00
1E00
1E00
1E00
1E00
1E00
1E00
1E00
1E00
1E00
FFC0
FFC0
ENDCHAR
STARTCHAR afii10105
ENCODING 1112
SWIDTH 540 0
DWIDTH 18 0
BBX 10 23 2 -5
BITMAP
01C0
01C0
01C0
01C0
0000
03C0
07C0
01C0
01C0
01C0
01C0
01C0
01C0
01C0
01C0
01C0
E1C0
E1C0
E1C0
E1C0
E1C0
7F80
3F80
ENDCHAR
STARTCHAR afii10106
ENCODING 1113
SWIDTH 540 0
DWIDTH 18 0
BBX 16 13 0 0
BITMAP
0FC0
0FE0
39E0
39E0
39E0
39E0
39FC
39FE
39EF
F9EF
F9EF
F1FC
E1FC
ENDCHAR
STARTCHAR afii10107
ENCODING 1114
SWIDTH 540 0
DWIDTH 18 0
BBX 14 13 0 0
BITMAP
E300
F780
F780
F780
F780
F780
FFF0
FFF8
F79C
F79C
F79C
F7F8
E7F0
ENDCHAR
STARTCHAR afii10108
ENCODING 1115
SWIDTH 540 0
DWIDTH 18 0
BBX 12 18 2 0
BITMAP
3800
7800
FF80
FF00
3800
3FC0
3FC0
3870
3870
3870
3870
3870
3870
3870
3870
3870
3870
3870
ENDCHAR
STARTCHAR afii10109
ENCODING 1116
SWIDTH 540 0
DWIDTH 18 0
BBX 12 20 2 0
BITMAP
01C0
01C0
0780
0780
1E00
0E00
0000
E070
E070
E1E0
E1C0
E780
E780
FE00
FE00
E780
E1C0
E1C0
E070
E070
ENDCHAR
STARTCHAR uni045D
ENCODING 1117
SWIDTH 540 0
DWIDTH 18 0
BBX 12 20 2 0
BITMAP
3800
3800
1E00
1E00
0780
0700
0000
E070
E070
E070
E070
E1F0
E1F0
E670
F470
F870
F070
E070
E070
E070
ENDCHAR
STARTCHAR afii10110
ENCODING 1118
SWIDTH 540 0
DWIDTH 18 0
BBX 12 23 2 -5
BITMAP
39C0
39C0
1F80
0F00
0000
E070
E070
E070
E070
E070
E070
E070
E070
E070
E070
E070
7FF0
3FF0
0070
0070
E070
7FE0
3FC0
ENDCHAR
STARTCHAR afii10193
ENCODING 1119
SWIDTH 540 0
DWIDTH 18 0
BBX 10 16 2 -3
BITMAP
E1C0
E1C0
E1C0
E1C0
E1C0
E1C0
E1C0
E1C0
E1C0
E1C0
E1C0
FFC0
FFC0
1E00
1E00
1E00
ENDCHAR
STARTCHAR afii10050
ENCODING 1168
SWIDTH 540 0
DWIDTH 18 0
BBX 10 21 2 0
BITMAP
01C0
01C0
01C0
FFC0
FFC0
E000
E000
E000
E000
E000
E000
E000
E000
E000
E000
E000
E000
E000
E000
E000
E000
ENDCHAR
STARTCHAR afii10098
ENCODING 1169
SWIDTH 540 0
DWIDTH 18 0
BBX 10 16 2 0
BITMAP
01C0
01C0
01C0
FFC0
FFC0
E000
E000
E000
E000
E000
E000
E000
E000
E000
E000
E000
ENDCHAR
STARTCHAR afii57664
ENCODING 1488
SWIDTH 540 0
DWIDTH 18 0
BBX 14 16 0 0
BITMAP
F060
F060
F87C
7E7C
3E7C
1FF8
0FF0
FFF0
FFF0
F1F0
F0F8
387C
3E3C
3E1C
FE1C
FE1C
ENDCHAR
STARTCHAR afii57665
ENCODING 1489
SWIDTH 540 0
DWIDTH 18 0
BBX 14 14 0 0
BITMAP
C000
FFC0
FFE0
3FF0
3FF0
0070
0070
0070
0070
0070
3FFC
3FFC
FFF8
FFF0
ENDCHAR
STARTCHAR afii57666
ENCODING 1490
SWIDTH 540 0
DWIDTH 18 0
BBX 12 14 2 0
BITMAP
E000
7C00
3E00
1F80
1F80
0780
0780
0780
0780
07C0
0FF0
1FF0
3E70
3E70
ENDCHAR
STARTCHAR afii57667
ENCODING 1491
SWIDTH 540 0
DWIDTH 18 0
BBX 14 14 0 0
BITMAP
C000
FFFC
FFFC
3FFC
3FFC
0070
0070
0070
0070
0070
0070
0070
0070
0070
ENDCHAR
STARTCHAR afii57668
ENCODING 1492
SWIDTH 540 0
DWIDTH 18 0
BBX 14 14 0 0
BITMAP
F000
FFFC
FFFC
3FFC
3FFC
0070
0070
3870
3870
3870
3870
3870
F070
E070
ENDCHAR
STARTCHAR afii57669
ENCODING 1493
SWIDTH 540 0
DWIDTH 18 0
BBX 9 14 2 0
BITMAP
E000
FC00
FE00
1F80
1F80
0780
0780
0780
0780
0780
0780
0780
0780
0780
ENDCHAR
STARTCHAR afii57670
ENCODING 1494
SWIDTH 540 0
DWIDTH 18 0
BBX 10 14 2 0
BITMAP
E000
FF00
FF80
7FC0
3FC0
1E00
1E00
1E00
1E00
1E00
1E00
1E00
1E00
1E00
ENDCHAR
STARTCHAR afii57671
ENCODING 1495
SWIDTH 540 0
DWIDTH 18 0
BBX 14 14 0 0
BITMAP
F000
FFFC
FFFC
3FFC
3FFC
3870
3870
3870
3870
3870
3870
3870
F070
E070
ENDCHAR
STARTCHAR afii57672
ENCODING 1496
SWIDTH 540 0
DWIDTH 18 0
BBX 14 14 0 0
BITMAP
F000
F81C
F81C
3E7C
3E7C
387C
387C
381C
381C
381C
3FFC
3FFC
3FF8
3FF0
ENDCHAR
STARTCHAR afii57673
ENCODING 1497
SWIDTH 540 0
DWIDTH 18 0
BBX 9 9 2 5
BITMAP
E000
FC00
FE00
7F80
3F80
0780
0780
0780
0300
ENDCHAR
STARTCHAR afii57674
ENCODING 1498
SWIDTH 540 0
DWIDTH 18 0
BBX 14 19 0 -5
BITMAP
C000
FFF0
FFF0
3FFC
3FFC
0070
0070
01E0
01E0
01E0
01E0
01E0
01E0
01E0
01E0
01E0
01E0
01E0
01E0
ENDCHAR
STARTCHAR afii57675
ENCODING 1499
SWIDTH 540 0
DWIDTH 18 0
BBX 14 14 0 0
BITMAP
F000
FFF0
FFF0
3FFC
3FFC
001C
001C
001C
003C
007C
3FF8
3FF0
FFE0
FFE0
ENDCHAR
STARTCHAR afii57676
ENCODING 1500
SWIDTH 540 0
DWIDTH 18 0
BBX 14 18 0 0
BITMAP
E000
F000
3800
3800
3800
3FFC
3FFC
1FFC
0FFC
001C
001C
001C
003C
0070
01E0
01E0
0780
0780
ENDCHAR
STARTCHAR afii57677
ENCODING 1501
SWIDTH 540 0
DWIDTH 18 0
BBX 14 14 0 0
BITMAP
F000
FFF0
FFF0
3FFC
3FFC
F01C
F01C
F01C
F01C
F01C
FFFC
FFFC
FFFC
FFFC
ENDCHAR
STARTCHAR afii57678
ENCODING 1502
SWIDTH 540 0
DWIDTH 18 0
BBX 14 14 0 0
BITMAP
F000
F3F0
F7F0
3FFC
3FFC
381C
381C
F01C
F01C
F01C
F3FC
F7FC
CFF8
CFF0
ENDCHAR
STARTCHAR afii57679
ENCODING 1503
SWIDTH 540 0
DWIDTH 18 0
BBX 7 21 4 -5
BITMAP
E0
E0
F8
7C
7E
1E
1E
78
78
78
78
78
78
78
78
78
78
78
78
78
78
ENDCHAR
STARTCHAR afii57680
ENCODING 1504
SWIDTH 540 0
DWIDTH 18 0
BBX 7 14 4 0
BITMAP
E0
F0
F8
7E
7E
1E
1E
1E
1E
1E
3E
7E
FE
FE
ENDCHAR
STARTCHAR afii57681
ENCODING 1505
SWIDTH 540 0
DWIDTH 18 0
BBX 14 14 0 0
BITMAP
F000
FFF0
FFF0
3FFC
3FFC
381C
381C
381C
381C
381C
3FF8
3FF0
1FE0
0FE0
ENDCHAR
STARTCHAR afii57682
ENCODING 1506
SWIDTH 540 0
DWIDTH 18 0
BBX 14 14 0 0
BITMAP
F070
F87C
F87C
3E1C
3E1C
381C
381C
0E1C
0F1C
079C
3FF8
3FF0
FFE0
FFE0
ENDCHAR
STARTCHAR afii57683
ENCODING 1507
SWIDTH 540 0
DWIDTH 18 0
BBX 14 19 0 -5
BITMAP
F000
FFF0
FFF0
3FFC
3FFC
F070
F070
F9E0
F9E0
F9E0
01E0
01E0
01E0
01E0
01E0
01E0
01E0
01E0
01E0
ENDCHAR
STARTCHAR afii57684
ENCODING 1508
SWIDTH 540 0
DWIDTH 18 0
BBX 14 14 0 0
BITMAP
F000
FFFC
FFFC
3FFC
3FFC
381C
381C
3E1C
3E3C
007C
3FF8
3FF0
FFE0
FFE0
ENDCHAR
STARTCHAR afii57685
ENCODING 1509
SWIDTH 540 0
DWIDTH 18 0
BBX 14 19 0 -5
BITMAP
F070
FE7C
FE7C
3E1C
3E1C
0E70
0E70
0FE0
0FC0
0F80
0E00
0E00
0E00
0E00
0E00
0E00
0E00
0E00
0E00
ENDCHAR
STARTCHAR afii57686
ENCODING 1510
SWIDTH 540 0
DWIDTH 18 0
BBX 14 14 0 0
BITMAP
F070
F87C
F87C
387C
387C
0FE0
0FE0
0780
0380
0070
3FFC
3FFC
FFF8
FFF0
ENDCHAR
STARTCHAR afii57687
ENCODING 1511
SWIDTH 540 0
DWIDTH 18 0
BBX 14 19 0 -5
BITMAP
F000
FFF0
FFF0
3FFC
3FFC
001C
001C
381C
381C
381C
3878
3870
39E0
39E0
3800
3800
3800
3800
3800
ENDCHAR
STARTCHAR afii57688
ENCODING 1512
SWIDTH 540 0
DWIDTH 18 0
BBX 14 14 0 0
BITMAP
F000
FFF0
FFF0
3FFC
3FFC
001C
001C
001C
001C
001C
001C
001C
001C
001C
ENDCHAR
STARTCHAR afii57689
ENCODING 1513
SWIDTH 540 0
DWIDTH 18 0
BBX 14 14 0 0
BITMAP
F79C
F79C
F79C
F79C
F79C
F79C
F79C
F79C
F71C
CE1C
FFF8
FFF0
3FE0
3FE0
ENDCHAR
STARTCHAR afii57690
ENCODING 1514
SWIDTH 540 0
DWIDTH 18 0
BBX 14 14 0 0
BITMAP
F000
FFF0
FFF0
3FFC
3FFC
0E1C
1E1C
381C
381C
381C
381C
381C
F81C
F81C
ENDCHAR
STARTCHAR uni0E01
ENCODING 3585
SWIDTH 540 0
DWIDTH 18 0
BBX 14 13 0 0
BITMAP
3FF0
3FF0
F01C
F01C
F81C
F81C
381C
381C
381C
381C
381C
381C
381C
ENDCHAR
STARTCHAR uni0E02
ENCODING 3586
SWIDTH 540 0
DWIDTH 18 0
BBX 14 13 0 0
BITMAP
3E1C
3E1C
F79C
F79C
CF9C
CF9C
379C
279C
079C
079C
079C
01F8
01F0
ENDCHAR
STARTCHAR uni0E03
ENCODING 3587
SWIDTH 540 0
DWIDTH 18 0
BBX 14 13 0 0
BITMAP
8E1C
CE1C
F79C
F79C
C79C
C79C
379C
279C
079C
079C
079C
01F8
01F0
ENDCHAR
STARTCHAR uni0E04
ENCODING 3588
SWIDTH 540 0
DWIDTH 18 0
BBX 14 13 0 0
BITMAP
3FF0
3FF0
F01C
F01C
F61C
F61C
F99C
F91C
361C
F01C
F01C
F01C
E01C
ENDCHAR
STARTCHAR uni0E05
ENCODING 3589
SWIDTH 540 0
DWIDTH 18 0
BBX 14 13 0 0
BITMAP
38F0
39F0
F61C
F61C
F61C
F61C
F99C
F91C
361C
F01C
F01C
F01C
E01C
ENDCHAR
STARTCHAR uni0E06
ENCODING 3590
SWIDTH 540 0
DWIDTH 18 0
BBX 14 13 0 0
BITMAP
8E1C
CE1C
FE1C
FE1C
CE1C
CE1C
0E1C
1E1C
3E1C
DF9C
CF9C
3878
3870
ENDCHAR
STARTCHAR uni0E07
ENCODING 3591
SWIDTH 540 0
DWIDTH 18 0
BBX 12 13 2 0
BITMAP
01C0
01C0
0670
0670
01F0
01F0
E070
F070
3870
1E70
1E70
07E0
07C0
ENDCHAR
STARTCHAR uni0E08
ENCODING 3592
SWIDTH 540 0
DWIDTH 18 0
BBX 14 13 0 0
BITMAP
3FF0
3FF0
C01C
C01C
0E1C
0E1C
379C
379C
0F9C
079C
079C
01F8
01F0
ENDCHAR
STARTCHAR uni0E09
ENCODING 3593
SWIDTH 540 0
DWIDTH 18 0
BBX 14 13 0 0
BITMAP
3FC0
3FE0
C070
C070
3870
3870
CE70
DE70
3E70
1FEC
0FEC
0E10
0E10
ENDCHAR
STARTCHAR uni0E0A
ENCODING 3594
SWIDTH 540 0
DWIDTH 18 0
BBX 14 14 0 0
BITMAP
001C
3E1C
3E1C
F7F8
F7F0
CF9C
CF9C
379C
279C
079C
079C
079C
01F8
01F0
ENDCHAR
STARTCHAR uni0E0B
ENCODING 3595
SWIDTH 540 0
DWIDTH 18 0
BBX 14 14 0 0
BITMAP
001C
8E1C
CE1C
F7F8
F7F0
C79C
C79C
379C
279C
079C
079C
079C
01F8
01F0
ENDCHAR
STARTCHAR uni0E0C
ENCODING 3596
SWIDTH 540 0
DWIDTH 18 0
BBX 14 13 0 0
BITMAP
3E1C
3E1C
F79C
F79C
3F9C
3F9C
F79C
F79C
F79C
C9FC
C9FC
379C
279C
ENDCHAR
STARTCHAR uni0E0D
ENCODING 3597
SWIDTH 540 0
DWIDTH 18 0
BBX 14 16 0 -3
BITMAP
3E1C
3E1C
F79C
F79C
3F9C
3F9C
F79C
F79C
F79C
CF9C
CF9C
31F8
21F0
018C
018C
01F0
ENDCHAR
STARTCHAR uni0E0E
ENCODING 3598
SWIDTH 540 0
DWIDTH 18 0
BBX 16 18 0 -5
BITMAP
0FFC
0FFC
380F
380F
3E0F
3E0F
0E0F
1E0F
3E0F
DE0F
CE0F
398F
398F
0FEF
0FEF
319F
0E00
0E00
ENDCHAR
STARTCHAR uni0E0F
ENCODING 3599
SWIDTH 540 0
DWIDTH 18 0
BBX 16 18 0 -5
BITMAP
0FFC
0FFC
380F
380F
3E0F
3E0F
0E0F
1E0F
3E0F
DE0F
CE0F
360F
360F
0E6F
0E6F
379F
0800
0800
ENDCHAR
STARTCHAR uni0E10
ENCODING 3600
SWIDTH 540 0
DWIDTH 18 0
BBX 14 18 0 -5
BITMAP
3FC4
3FEC
F010
F010
FFF0
FFF8
0E1C
0F1C
379C
0F9C
0F9C
01F8
01F8
387C
387C
C99C
367C
367C
ENDCHAR
STARTCHAR uni0E11
ENCODING 3601
SWIDTH 540 0
DWIDTH 18 0
BBX 16 13 0 0
BITMAP
8E1C
CE1C
FE6F
FE6F
CE6F
CE6F
0F8F
0F8F
0F8F
0E0F
0E0F
0E0F
0E07
ENDCHAR
STARTCHAR uni0E12
ENCODING 3602
SWIDTH 540 0
DWIDTH 18 0
BBX 14 13 0 0
BITMAP
221C
361C
C99C
C99C
C19C
C19C
F99C
F99C
C99C
F7FC
F7FC
C79C
C79C
ENDCHAR
STARTCHAR uni0E13
ENCODING 3603
SWIDTH 540 0
DWIDTH 18 0
BBX 14 13 0 0
BITMAP
3870
3870
F670
F670
3E70
3E70
F670
F670
F670
CE6C
CE6C
3790
2790
ENDCHAR
STARTCHAR uni0E14
ENCODING 3604
SWIDTH 540 0
DWIDTH 18 0
BBX 14 13 0 0
BITMAP
3FF0
3FF0
F01C
F01C
F61C
F61C
F99C
F91C
F61C
F81C
F81C
301C
201C
ENDCHAR
STARTCHAR uni0E15
ENCODING 3605
SWIDTH 540 0
DWIDTH 18 0
BBX 14 13 0 0
BITMAP
38F0
39F0
F61C
F61C
F61C
F61C
F99C
F91C
F61C
F81C
F81C
301C
201C
ENDCHAR
STARTCHAR uni0E16
ENCODING 3606
SWIDTH 540 0
DWIDTH 18 0
BBX 14 13 0 0
BITMAP
3FF0
3FF0
F01C
F01C
F81C
F81C
381C
381C
381C
361C
361C
081C
081C
ENDCHAR
STARTCHAR uni0E17
ENCODING 3607
SWIDTH 540 0
DWIDTH 18 0
BBX 16 13 0 0
BITMAP
381C
381C
DE6F
CE6F
3E6F
3E6F
0F8F
0F8F
0F8F
0E0F
0E0F
0E0F
0E07
ENDCHAR
STARTCHAR uni0E18
ENCODING 3608
SWIDTH 540 0
DWIDTH 18 0
BBX 14 13 0 0
BITMAP
3FC4
3FEC
F010
F010
FFF0
FFF8
381C
381C
381C
381C
381C
1FF8
0FF0
ENDCHAR
STARTCHAR uni0E19
ENCODING 3609
SWIDTH 540 0
DWIDTH 18 0
BBX 16 13 0 0
BITMAP
381C
381C
DE1C
CE1C
3E1C
3E1C
0E1C
0E3C
0E7C
0FBB
0F93
0E0C
0E04
ENDCHAR
STARTCHAR uni0E1A
ENCODING 3610
SWIDTH 540 0
DWIDTH 18 0
BBX 16 13 0 0
BITMAP
3807
380F
DE0F
CE0F
3E0F
3E0F
0E0F
0E0F
0E0F
0E0F
0E0F
07FC
07FC
ENDCHAR
STARTCHAR uni0E1B
ENCODING 3611
SWIDTH 540 0
DWIDTH 18 0
BBX 16 16 0 0
BITMAP
000F
000F
000F
380F
380F
DE0F
CE0F
3E0F
3E0F
0E0F
0E0F
0E0F
0E0F
0E0F
07FC
07FC
ENDCHAR
STARTCHAR uni0E1C
ENCODING 3612
SWIDTH 540 0
DWIDTH 18 0
BBX 14 13 0 0
BITMAP
201C
301C
C81C
C81C
F01C
F01C
F01C
F01C
F79C
F79C
F79C
3878
3870
ENDCHAR
STARTCHAR uni0E1D
ENCODING 3613
SWIDTH 540 0
DWIDTH 18 0
BBX 14 16 0 0
BITMAP
001C
001C
001C
201C
301C
C81C
C81C
F01C
F01C
F01C
F01C
F79C
F79C
F79C
3878
3870
ENDCHAR
STARTCHAR uni0E1E
ENCODING 3614
SWIDTH 540 0
DWIDTH 18 0
BBX 16 13 0 0
BITMAP
3807
380F
DE0F
CE0F
3E6F
3E6F
0E6F
0F6F
0F9F
0F9F
0F9F
0E0F
0E07
ENDCHAR
STARTCHAR uni0E1F
ENCODING 3615
SWIDTH 540 0
DWIDTH 18 0
BBX 16 16 0 0
BITMAP
000F
000F
000F
380F
380F
DE0F
CE0F
3E6F
3E6F
0E6F
0F6F
0F9F
0F9F
0F9F
0E0F
0E07
ENDCHAR
STARTCHAR uni0E20
ENCODING 3616
SWIDTH 540 0
DWIDTH 18 0
BBX 16 13 0 0
BITMAP
0FFC
0FFC
380F
380F
3E0F
3E0F
0E0F
1E0F
3E0F
DE0F
CE0F
380F
3807
ENDCHAR
STARTCHAR uni0E21
ENCODING 3617
SWIDTH 540 0
DWIDTH 18 0
BBX 14 13 0 0
BITMAP
381C
381C
DE1C
CE1C
3E1C
3E1C
0E1C
1E1C
3E1C
DF9C
CF9C
3878
3870
ENDCHAR
STARTCHAR uni0E22
ENCODING 3618
SWIDTH 540 0
DWIDTH 18 0
BBX 14 13 0 0
BITMAP
381C
381C
F61C
F61C
F81C
F81C
3E1C
7E1C
F01C
F01C
F01C
3FF8
3FF0
ENDCHAR
STARTCHAR uni0E23
ENCODING 3619
SWIDTH 540 0
DWIDTH 18 0
BBX 14 13 0 0
BITMAP
3FC4
3FEC
F010
F010
FFE0
FFE0
0070
00F0
01F0
0270
0670
01E0
01E0
ENDCHAR
STARTCHAR uni0E24
ENCODING 3620
SWIDTH 540 0
DWIDTH 18 0
BBX 14 16 0 -3
BITMAP
3FF0
3FF0
F01C
F01C
F81C
F81C
381C
381C
381C
361C
361C
081C
081C
001C
001C
001C
ENDCHAR
STARTCHAR uni0E25
ENCODING 3621
SWIDTH 540 0
DWIDTH 18 0
BBX 14 13 0 0
BITMAP
3FF0
3FF0
C01C
C01C
3E1C
3E1C
F79C
F3BC
F1FC
C87C
C87C
301C
201C
ENDCHAR
STARTCHAR uni0E26
ENCODING 3622
SWIDTH 540 0
DWIDTH 18 0
BBX 16 16 0 -3
BITMAP
0FFC
0FFC
380F
380F
3E0F
3E0F
0E0F
1E0F
3E0F
DE0F
CE0F
380F
380F
000F
000F
000F
ENDCHAR
STARTCHAR uni0E27
ENCODING 3623
SWIDTH 540 0
DWIDTH 18 0
BBX 14 13 0 0
BITMAP
3FF0
3FF0
C01C
C01C
001C
001C
001C
003C
007C
01BC
019C
0078
0070
ENDCHAR
STARTCHAR uni0E28
ENCODING 3624
SWIDTH 540 0
DWIDTH 18 0
BBX 14 14 0 0
BITMAP
001C
3FF8
3FF0
F01C
F01C
F61C
F61C
F99C
F91C
361C
F01C
F01C
F01C
E01C
ENDCHAR
STARTCHAR uni0E29
ENCODING 3625
SWIDTH 540 0
DWIDTH 18 0
BBX 16 13 0 0
BITMAP
3807
380F
DE6F
CE6F
3F9F
3F9F
0E7F
0E7F
0E0F
0E0F
0E0F
07FC
07FC
ENDCHAR
STARTCHAR uni0E2A
ENCODING 3626
SWIDTH 540 0
DWIDTH 18 0
BBX 14 14 0 0
BITMAP
001C
3FF8
3FF0
C01C
C01C
3E1C
3E1C
F79C
F3BC
F1FC
C87C
C87C
301C
201C
ENDCHAR
STARTCHAR uni0E2B
ENCODING 3627
SWIDTH 540 0
DWIDTH 18 0
BBX 16 13 0 0
BITMAP
3804
380C
DE13
CE13
3E1C
3E1C
0E6F
0F4F
0F8F
0E0F
0E0F
0E0F
0E07
ENDCHAR
STARTCHAR uni0E2C
ENCODING 3628
SWIDTH 540 0
DWIDTH 18 0
BBX 16 14 0 0
BITMAP
000F
387E
387C
DE0F
CE0F
3E6F
3E6F
0E6F
0F6F
0F9F
0F9F
0F9F
0E0F
0E07
ENDCHAR
STARTCHAR uni0E2D
ENCODING 3629
SWIDTH 540 0
DWIDTH 18 0
BBX 14 13 0 0
BITMAP
3FF0
3FF0
C01C
C01C
301C
301C
C81C
C81C
F01C
F01C
F01C
3FF8
3FF0
ENDCHAR
STARTCHAR uni0E2E
ENCODING 3630
SWIDTH 540 0
DWIDTH 18 0
BBX 14 14 0 0
BITMAP
001C
3FFC
3FFC
F078
F070
3F9C
3F9C
301C
301C
C81C
F01C
F01C
3FF8
3FF0
ENDCHAR
STARTCHAR uni0E2F
ENCODING 3631
SWIDTH 540 0
DWIDTH 18 0
BBX 14 13 0 0
BITMAP
207C
307C
C99C
C99C
3E1C
3E1C
001C
001C
001C
001C
001C
001C
001C
ENDCHAR
STARTCHAR uni0E30
ENCODING 3632
SWIDTH 540 0
DWIDTH 18 0
BBX 14 13 0 0
BITMAP
201C
301C
C878
C870
3FE0
3FE0
0000
0000
301C
C878
C870
3FE0
3FE0
ENDCHAR
STARTCHAR uni0E31
ENCODING 3633
SWIDTH 540 0
DWIDTH 18 0
BBX 12 6 2 14
BITMAP
2070
2070
D9E0
D9C0
3F80
3F00
ENDCHAR
STARTCHAR uni0E32
ENCODING 3634
SWIDTH 540 0
DWIDTH 18 0
BBX 14 13 0 0
BITMAP
3FF0
3FF0
C01C
C01C
001C
001C
001C
001C
001C
001C
001C
001C
001C
ENDCHAR
STARTCHAR uni0E33
ENCODING 3635
SWIDTH 540 0
DWIDTH 18 0
BBX 16 16 0 0
BITMAP
3000
3000
C800
30FC
31FC
060F
060F
000F
000F
000F
000F
000F
000F
000F
000F
0007
ENDCHAR
STARTCHAR uni0E34
ENCODING 3636
SWIDTH 540 0
DWIDTH 18 0
BBX 14 6 0 14
BITMAP
3FC0
3FE0
F070
F078
FFFC
FFFC
ENDCHAR
STARTCHAR uni0E35
ENCODING 3637
SWIDTH 540 0
DWIDTH 18 0
BBX 14 6 0 14
BITMAP
3F9C
3F9C
F07C
F07C
FFFC
FFFC
ENDCHAR
STARTCHAR uni0E36
ENCODING 3638
SWIDTH 540 0
DWIDTH 18 0
BBX 14 6 0 14
BITMAP
3E10
3E10
F1EC
F1EC
FFF0
FFF0
ENDCHAR
STARTCHAR uni0E37
ENCODING 3639
SWIDTH 540 0
DWIDTH 18 0
BBX 14 6 0 14
BITMAP
3E44
3E6C
F1EC
F1EC
FFFC
FFFC
ENDCHAR
STARTCHAR uni0E38
ENCODING 3640
SWIDTH 540 0
DWIDTH 18 0
BBX 7 5 7 -7
BITMAP
38
5E
CE
3E
3E
ENDCHAR
STARTCHAR uni0E39
ENCODING 3641
SWIDTH 540 0
DWIDTH 18 0
BBX 10 5 4 -7
BITMAP
F9C0
D9C0
99C0
7FC0
7FC0
ENDCHAR
STARTCHAR uni0E3A
ENCODING 3642
SWIDTH 540 0
DWIDTH 18 0
BBX 5 3 9 -5
BITMAP
F8
F8
F8
ENDCHAR
STARTCHAR uni0E3F
ENCODING 3647
SWIDTH 540 0
DWIDTH 18 0
BBX 14 18 0 0
BITMAP
0780
0780
FFF0
FFF8
F79C
F79C
F79C
FFF8
FFF0
F79C
F79C
F79C
F79C
F79C
FFF8
FFF0
0780
0780
ENDCHAR
STARTCHAR uni0E40
ENCODING 3648
SWIDTH 540 0
DWIDTH 18 0
BBX 6 13 5 0
BITMAP
60
F0
F0
F0
F0
F0
F0
F0
F0
C8
CC
30
30
ENDCHAR
STARTCHAR uni0E41
ENCODING 3649
SWIDTH 540 0
DWIDTH 18 0
BBX 12 13 2 0
BITMAP
E1C0
E1C0
E1C0
E1C0
E1C0
E1C0
E1C0
E1C0
E1C0
D9B0
D9B0
2040
2040
ENDCHAR
STARTCHAR uni0E42
ENCODING 3650
SWIDTH 540 0
DWIDTH 18 0
BBX 14 16 0 0
BITMAP
3FEC
3FEC
F010
FF00
FF80
01E0
01E0
01E0
01E0
01E0
01E0
01E0
0190
0190
0060
0060
ENDCHAR
STARTCHAR uni0E43
ENCODING 3651
SWIDTH 540 0
DWIDTH 18 0
BBX 12 18 2 0
BITMAP
3F80
7F80
E1C0
E1C0
D9C0
21C0
21C0
01C0
01C0
01C0
01C0
01C0
01C0
01C0
01B0
01B0
0040
0040
ENDCHAR
STARTCHAR uni0E44
ENCODING 3652
SWIDTH 540 0
DWIDTH 18 0
BBX 14 16 0 0
BITMAP
C1F0
C1F0
3670
0870
0870
0070
0070
0070
0070
0070
0070
0070
006C
006C
0010
0010
ENDCHAR
STARTCHAR uni0E45
ENCODING 3653
SWIDTH 540 0
DWIDTH 18 0
BBX 14 16 0 -3
BITMAP
3FF0
3FF0
C01C
C01C
001C
001C
001C
001C
001C
001C
001C
001C
001C
001C
001C
001C
ENDCHAR
STARTCHAR uni0E46
ENCODING 3654
SWIDTH 540 0
DWIDTH 18 0
BBX 14 18 0 -5
BITMAP
38F0
39F0
F61C
F61C
F01C
F01C
C81C
C81C
301C
001C
001C
001C
001C
001C
001C
001C
0078
0070
ENDCHAR
STARTCHAR uni0E47
ENCODING 3655
SWIDTH 540 0
DWIDTH 18 0
BBX 12 7 2 14
BITMAP
0030
3FC0
3FC0
E670
E670
39C0
39C0
ENDCHAR
STARTCHAR uni0E48
ENCODING 3656
SWIDTH 540 0
DWIDTH 18 0
BBX 3 4 11 21
BITMAP
E0
E0
E0
E0
ENDCHAR
STARTCHAR uni0E49
ENCODING 3657
SWIDTH 540 0
DWIDTH 18 0
BBX 12 4 2 21
BITMAP
F870
F870
3FC0
3FC0
ENDCHAR
STARTCHAR uni0E4A
ENCODING 3658
SWIDTH 540 0
DWIDTH 18 0
BBX 12 4 2 21
BITMAP
E7B0
E7B0
D9C0
89C0
ENDCHAR
STARTCHAR uni0E4B
ENCODING 3659
SWIDTH 540 0
DWIDTH 18 0
BBX 7 5 7 20
BITMAP
38
3C
FE
7E
38
ENDCHAR
STARTCHAR uni0E4C
ENCODING 3660
SWIDTH 540 0
DWIDTH 18 0
BBX 10 4 4 21
BITMAP
FEC0
FEC0
E700
E700
ENDCHAR
STARTCHAR uni0E4D
ENCODING 3661
SWIDTH 540 0
DWIDTH 18 0
BBX 6 6 5 14
BITMAP
30
30
CC
CC
30
30
ENDCHAR
STARTCHAR uni0E4E
ENCODING 3662
SWIDTH 540 0
DWIDTH 18 0
BBX 9 9 5 14
BITMAP
0380
0780
0E00
3E00
3E00
F000
F000
3E00
3E00
ENDCHAR
STARTCHAR uni0E4F
ENCODING 3663
SWIDTH 540 0
DWIDTH 18 0
BBX 12 13 2 0
BITMAP
0F00
1F80
2040
2040
C630
C630
D9B0
C930
C630
2040
2040
1F80
1F80
ENDCHAR
STARTCHAR uni0E50
ENCODING 3664
SWIDTH 540 0
DWIDTH 18 0
BBX 14 13 0 0
BITMAP
0FC0
0FE0
3870
3870
F01C
F01C
F01C
F01C
F01C
3878
3870
1FE0
0FE0
ENDCHAR
STARTCHAR uni0E51
ENCODING 3665
SWIDTH 540 0
DWIDTH 18 0
BBX 14 13 0 0
BITMAP
0FC0
0FE0
3870
3870
F61C
F61C
F99C
FD1C
3E1C
0078
0070
0FE0
0FE0
ENDCHAR
STARTCHAR uni0E52
ENCODING 3666
SWIDTH 540 0
DWIDTH 18 0
BBX 16 14 0 0
BITMAP
F000
781C
399C
3E6F
3E6F
3F8F
3F8F
3E6F
3E4F
398F
380F
380F
1FFC
0FFC
ENDCHAR
STARTCHAR uni0E53
ENCODING 3667
SWIDTH 540 0
DWIDTH 18 0
BBX 14 13 0 0
BITMAP
38F0
39F0
F61C
F61C
F61C
F61C
F61C
F21C
F01C
C81C
C81C
301C
201C
ENDCHAR
STARTCHAR uni0E54
ENCODING 3668
SWIDTH 540 0
DWIDTH 18 0
BBX 14 14 0 0
BITMAP
000C
0FF0
0FF0
3800
3800
F060
F060
F190
F190
F1E0
3870
3870
1FFC
0FFC
ENDCHAR
STARTCHAR uni0E55
ENCODING 3669
SWIDTH 540 0
DWIDTH 18 0
BBX 14 16 0 0
BITMAP
0180
0180
066C
0FF0
0FF0
3800
3800
F060
F060
F190
F190
F1E0
3870
3870
1FFC
0FFC
ENDCHAR
STARTCHAR uni0E56
ENCODING 3670
SWIDTH 540 0
DWIDTH 18 0
BBX 16 14 0 0
BITMAP
C000
23F0
37F0
081C
081C
000F
000F
000F
000F
060F
099C
099C
07F8
07F0
ENDCHAR
STARTCHAR uni0E57
ENCODING 3671
SWIDTH 540 0
DWIDTH 18 0
BBX 16 16 0 0
BITMAP
000F
000F
000F
380F
398F
F66F
F66F
F66F
F66F
F66F
F26F
F06F
C86F
C86F
307C
207C
ENDCHAR
STARTCHAR uni0E58
ENCODING 3672
SWIDTH 540 0
DWIDTH 18 0
BBX 14 14 0 0
BITMAP
000C
0FF0
0FF0
3800
3800
F070
F078
F19C
F0BC
F07C
3E3C
3E1C
19F8
09F0
ENDCHAR
STARTCHAR uni0E59
ENCODING 3673
SWIDTH 540 0
DWIDTH 18 0
BBX 14 14 0 0
BITMAP
000C
007C
007C
3998
3990
F780
F780
F1E0
F1E0
F9E0
3670
3670
0870
0870
ENDCHAR
STARTCHAR uni0E5A
ENCODING 3674
SWIDTH 540 0
DWIDTH 18 0
BBX 14 13 0 0
BITMAP
E3FC
F7FC
FF9C
FF9C
079C
079C
079C
079C
079C
079C
079C
0E78
0E70
ENDCHAR
STARTCHAR uni0E5B
ENCODING 3675
SWIDTH 540 0
DWIDTH 18 0
BBX 14 11 0 0
BITMAP
2000
3000
C800
C800
C99C
C99C
C9E0
C600
C600
3800
3800
ENDCHAR
STARTCHAR uni1E02
ENCODING 7682
SWIDTH 540 0
DWIDTH 18 0
BBX 12 23 2 0
BITMAP
1E00
1E00
1E00
0000
0000
FFC0
FFE0
E070
E070
E070
E070
E070
FFE0
FFC0
E070
E070
E070
E070
E070
E070
E070
FFE0
FFC0
ENDCHAR
STARTCHAR uni1E03
ENCODING 7683
SWIDTH 540 0
DWIDTH 18 0
BBX 12 23 2 0
BITMAP
1E00
1E00
1E00
0000
0000
E000
E000
E000
E000
E000
FFC0
FFC0
E070
E070
E070
E070
E070
E070
E070
E070
E070
FFE0
FFC0
ENDCHAR
STARTCHAR uni1E0A
ENCODING 7690
SWIDTH 540 0
DWIDTH 18 0
BBX 12 23 2 0
BITMAP
1E00
1E00
1E00
0000
0000
FF80
FF80
E1C0
E1E0
E070
E070
E070
E070
E070
E070
E070
E070
E070
E070
E1E0
E1C0
FF80
FF80
ENDCHAR
STARTCHAR uni1E0B
ENCODING 7691
SWIDTH 540 0
DWIDTH 18 0
BBX 12 23 2 0
BITMAP
1E00
1E00
1E00
0000
0000
0070
0070
0070
0070
0070
3FF0
3FF0
E070
E070
E070
E070
E070
E070
E070
E070
E070
7FF0
3FF0
ENDCHAR
STARTCHAR uni1E1E
ENCODING 7710
SWIDTH 540 0
DWIDTH 18 0
BBX 12 23 2 0
BITMAP
1E00
1E00
1E00
0000
0000
FFF0
FFF0
E000
E000
E000
E000
E000
FF80
FF80
E000
E000
E000
E000
E000
E000
E000
E000
E000
ENDCHAR
STARTCHAR uni1E1F
ENCODING 7711
SWIDTH 540 0
DWIDTH 18 0
BBX 10 23 2 0
BITMAP
1E00
1E00
1E00
0000
0000
1F80
1F80
39C0
39C0
39C0
3800
3800
3800
3800
FE00
FE00
3800
3800
3800
3800
3800
3800
3800
ENDCHAR
STARTCHAR uni1E40
ENCODING 7744
SWIDTH 540 0
DWIDTH 18 0
BBX 12 23 2 0
BITMAP
1E00
1E00
1E00
0000
0000
E070
E070
F9F0
F9F0
FFF0
F6F0
E670
E070
E070
E070
E070
E070
E070
E070
E070
E070
E070
E070
ENDCHAR
STARTCHAR uni1E41
ENCODING 7745
SWIDTH 540 0
DWIDTH 18 0
BBX 14 18 0 0
BITMAP
0780
0780
0780
0380
0000
FFF0
FFF0
F79C
F79C
F79C
F79C
F79C
F79C
F79C
F79C
F79C
F01C
E01C
ENDCHAR
STARTCHAR uni1E56
ENCODING 7766
SWIDTH 540 0
DWIDTH 18 0
BBX 12 23 2 0
BITMAP
1E00
1E00
1E00
0000
0000
FF80
FF80
E1C0
E1E0
E070
E070
E070
E1E0
E1C0
FF80
FF80
E000
E000
E000
E000
E000
E000
E000
ENDCHAR
STARTCHAR uni1E57
ENCODING 7767
SWIDTH 540 0
DWIDTH 18 0
BBX 12 23 2 -5
BITMAP
1E00
1E00
1E00
0E00
0000
FF00
FF80
E1C0
E1C0
E070
E070
E070
E070
E070
E1E0
E1C0
FF80
FF80
E000
E000
E000
E000
E000
ENDCHAR
STARTCHAR uni1E60
ENCODING 7776
SWIDTH 540 0
DWIDTH 18 0
BBX 12 23 2 0
BITMAP
1E00
1E00
1E00
0000
0000
3FC0
7FE0
E070
E070
E000
E000
E000
7FC0
3FC0
0070
0070
0070
0070
0070
E070
E070
7FE0
3FC0
ENDCHAR
STARTCHAR uni1E61
ENCODING 7777
SWIDTH 540 0
DWIDTH 18 0
BBX 12 18 2 0
BITMAP
1E00
1E00
1E00
0E00
0000
3FC0
3FC0
E070
E070
E000
E000
3FC0
3FE0
0070
E070
E070
7FE0
3FC0
ENDCHAR
STARTCHAR uni1E6A
ENCODING 7786
SWIDTH 540 0
DWIDTH 18 0
BBX 10 23 2 0
BITMAP
1E00
1E00
1E00
0000
0000
FFC0
FFC0
1E00
1E00
1E00
1E00
1E00
1E00
1E00
1E00
1E00
1E00
1E00
1E00
1E00
1E00
1E00
1E00
ENDCHAR
STARTCHAR uni1E6B
ENCODING 7787
SWIDTH 540 0
DWIDTH 18 0
BBX 12 21 2 0
BITMAP
1E00
1E00
1E00
0000
0000
1E00
1E00
1E00
FFC0
FFC0
1E00
1E00
1E00
1E00
1E00
1E00
1E00
1E70
1E70
07E0
07C0
ENDCHAR
STARTCHAR Wgrave
ENCODING 7808
SWIDTH 540 0
DWIDTH 18 0
BBX 12 25 2 0
BITMAP
3800
3800
1E00
0E00
0780
0000
0000
E070
E070
E070
E070
E070
E070
E070
E670
E670
E670
E670
E670
F6F0
FFF0
F9F0
F9F0
6060
2040
ENDCHAR
STARTCHAR wgrave
ENCODING 7809
SWIDTH 540 0
DWIDTH 18 0
BBX 14 20 0 0
BITMAP
0E00
0E00
0780
0780
01E0
01C0
0000
E01C
F01C
F01C
F01C
F79C
F79C
F79C
F79C
F79C
FFFC
FFFC
3878
3870
ENDCHAR
STARTCHAR Wacute
ENCODING 7810
SWIDTH 540 0
DWIDTH 18 0
BBX 12 25 2 0
BITMAP
01C0
01C0
0780
0700
1E00
0000
0000
E070
E070
E070
E070
E070
E070
E070
E670
E670
E670
E670
E670
F6F0
FFF0
F9F0
F9F0
6060
2040
ENDCHAR
STARTCHAR wacute
ENCODING 7811
SWIDTH 540 0
DWIDTH 18 0
BBX 14 20 0 0
BITMAP
01C0
01E0
0780
0780
0E00
0E00
0000
E01C
F01C
F01C
F01C
F79C
F79C
F79C
F79C
F79C
FFFC
FFFC
3878
3870
ENDCHAR
STARTCHAR Wdieresis
ENCODING 7812
SWIDTH 540 0
DWIDTH 18 0
BBX 12 23 2 0
BITMAP
39C0
39C0
39C0
0000
0000
E070
E070
E070
E070
E070
E070
E070
E670
E670
E670
E670
E670
F6F0
FFF0
F9F0
F9F0
6060
2040
ENDCHAR
STARTCHAR wdieresis
ENCODING 7813
SWIDTH 540 0
DWIDTH 18 0
BBX 14 18 0 0
BITMAP
3870
3870
3870
3870
0000
E01C
F01C
F01C
F01C
F79C
F79C
F79C
F79C
F79C
FFFC
FFFC
3878
3870
ENDCHAR
STARTCHAR Ygrave
ENCODING 7922
SWIDTH 540 0
DWIDTH 18 0
BBX 14 25 0 0
BITMAP
3800
3800
0E00
0F00
0780
0000
0000
E01C
F01C
F01C
F03C
3870
1FE0
0FE0
0780
0780
0780
0780
0780
0780
0780
0780
0780
0780
0780
ENDCHAR
STARTCHAR ygrave
ENCODING 7923
SWIDTH 540 0
DWIDTH 18 0
BBX 12 25 2 -5
BITMAP
3800
3800
1E00
1E00
0780
0700
0000
E070
E070
E070
E070
39C0
39C0
39C0
39C0
39C0
1F80
1F80
1F80
1F80
1E00
1E00
DE00
3C00
3800
ENDCHAR
STARTCHAR uni2010
ENCODING 8208
SWIDTH 540 0
DWIDTH 18 0
BBX 10 2 2 7
BITMAP
FFC0
FFC0
ENDCHAR
STARTCHAR uni2011
ENCODING 8209
SWIDTH 540 0
DWIDTH 18 0
BBX 10 2 2 7
BITMAP
FFC0
FFC0
ENDCHAR
STARTCHAR figuredash
ENCODING 8210
SWIDTH 540 0
DWIDTH 18 0
BBX 12 2 2 7
BITMAP
FFF0
FFF0
ENDCHAR
STARTCHAR endash
ENCODING 8211
SWIDTH 540 0
DWIDTH 18 0
BBX 14 2 0 7
BITMAP
FFFC
FFFC
ENDCHAR
STARTCHAR emdash
ENCODING 8212
SWIDTH 540 0
DWIDTH 18 0
BBX 16 2 0 7
BITMAP
FFFF
FFFF
ENDCHAR
STARTCHAR afii00208
ENCODING 8213
SWIDTH 540 0
DWIDTH 18 0
BBX 16 2 0 7
BITMAP
FFFF
FFFF
ENDCHAR
STARTCHAR uni2016
ENCODING 8214
SWIDTH 540 0
DWIDTH 18 0
BBX 8 18 4 0
BITMAP
E7
E7
E7
E7
E7
E7
E7
E7
E7
E7
E7
E7
E7
E7
E7
E7
E7
E7
ENDCHAR
STARTCHAR underscoredbl
ENCODING 8215
SWIDTH 540 0
DWIDTH 18 0
BBX 12 5 2 -7
BITMAP
FFF0
0000
0000
FFF0
FFF0
ENDCHAR
STARTCHAR quoteleft
ENCODING 8216
SWIDTH 540 0
DWIDTH 18 0
BBX 6 7 5 11
BITMAP
3C
3C
F0
F0
FC
FC
FC
ENDCHAR
STARTCHAR quoteright
ENCODING 8217
SWIDTH 540 0
DWIDTH 18 0
BBX 6 7 5 11
BITMAP
FC
FC
FC
7C
3C
70
F0
ENDCHAR
STARTCHAR quotesinglbase
ENCODING 8218
SWIDTH 540 0
DWIDTH 18 0
BBX 5 7 4 -2
BITMAP
F8
F8
F8
78
78
E0
E0
ENDCHAR
STARTCHAR quotereversed
ENCODING 8219
SWIDTH 540 0
DWIDTH 18 0
BBX 5 7 4 11
BITMAP
F8
F8
F8
F8
E0
70
78
ENDCHAR
STARTCHAR quotedblleft
ENCODING 8220
SWIDTH 540 0
DWIDTH 18 0
BBX 12 7 2 11
BITMAP
3870
7870
E1C0
F1E0
F9F0
F9F0
F9F0
ENDCHAR
STARTCHAR quotedblright
ENCODING 8221
SWIDTH 540 0
DWIDTH 18 0
BBX 12 7 2 11
BITMAP
F9F0
F9F0
F9F0
F9F0
3870
F1E0
E1C0
ENDCHAR
STARTCHAR quotedblbase
ENCODING 8222
SWIDTH 540 0
DWIDTH 18 0
BBX 12 7 2 -2
BITMAP
F9F0
F9F0
F9F0
7870
7870
E1C0
E1C0
ENDCHAR
STARTCHAR uni201F
ENCODING 8223
SWIDTH 540 0
DWIDTH 18 0
BBX 12 7 2 11
BITMAP
F9F0
F9F0
F9F0
F9F0
E1C0
78F0
3870
ENDCHAR
STARTCHAR dagger
ENCODING 8224
SWIDTH 540 0
DWIDTH 18 0
BBX 14 23 0 -3
BITMAP
0380
0780
0FE0
0FE0
0780
0780
3790
FFFC
FFFC
3798
3790
0780
0780
0FE0
0FC0
0780
0780
0780
0780
0780
0780
0780
0780
ENDCHAR
STARTCHAR daggerdbl
ENCODING 8225
SWIDTH 540 0
DWIDTH 18 0
BBX 14 23 0 -3
BITMAP
0380
0780
0FE0
0FE0
0780
0780
3790
FFFC
FFFC
3798
3790
0780
0780
3790
77B8
FFFC
37B8
3790
0780
0780
0FE0
0FC0
0780
ENDCHAR
STARTCHAR bullet
ENCODING 8226
SWIDTH 540 0
DWIDTH 18 0
BBX 7 8 4 5
BITMAP
30
78
FE
FE
FE
FE
78
30
ENDCHAR
STARTCHAR uni2023
ENCODING 8227
SWIDTH 540 0
DWIDTH 18 0
BBX 7 12 4 4
BITMAP
80
C0
E0
F0
F8
FE
FE
F8
F8
E0
E0
80
ENDCHAR
STARTCHAR onedotenleader
ENCODING 8228
SWIDTH 540 0
DWIDTH 18 0
BBX 3 4 2 0
BITMAP
E0
E0
E0
E0
ENDCHAR
STARTCHAR twodotenleader
ENCODING 8229
SWIDTH 540 0
DWIDTH 18 0
BBX 9 4 2 0
BITMAP
E700
E780
E780
E780
ENDCHAR
STARTCHAR ellipsis
ENCODING 8230
SWIDTH 540 0
DWIDTH 18 0
BBX 14 4 0 0
BITMAP
E39C
F79C
F79C
E79C
ENDCHAR
STARTCHAR uni2027
ENCODING 8231
SWIDTH 540 0
DWIDTH 18 0
BBX 6 5 5 7
BITMAP
30
FC
FC
30
30
ENDCHAR
STARTCHAR perthousand
ENCODING 8240
SWIDTH 540 0
DWIDTH 18 0
BBX 16 18 0 0
BITMAP
201C
301C
F870
F870
F870
70E0
31E0
0780
0780
0780
0780
0E6C
1EEE
39FF
39FF
39FF
F06C
E064
ENDCHAR
STARTCHAR minute
ENCODING 8242
SWIDTH 540 0
DWIDTH 18 0
BBX 5 7 4 11
BITMAP
78
78
78
78
78
F0
E0
ENDCHAR
STARTCHAR second
ENCODING 8243
SWIDTH 540 0
DWIDTH 18 0
BBX 10 7 2 11
BITMAP
39C0
39C0
39C0
39C0
39C0
F780
E780
ENDCHAR
STARTCHAR uni2034
ENCODING 8244
SWIDTH 540 0
DWIDTH 18 0
BBX 16 7 0 11
BITMAP
39E7
39EF
39EF
39EF
39EF
F79E
F79C
ENDCHAR
STARTCHAR uni2035
ENCODING 8245
SWIDTH 540 0
DWIDTH 18 0
BBX 5 7 4 11
BITMAP
E0
E0
E0
E0
E0
70
78
ENDCHAR
STARTCHAR uni2036
ENCODING 8246
SWIDTH 540 0
DWIDTH 18 0
BBX 10 7 2 11
BITMAP
E780
E780
E780
E780
E780
7BC0
39C0
ENDCHAR
STARTCHAR uni2037
ENCODING 8247
SWIDTH 540 0
DWIDTH 18 0
BBX 16 7 0 11
BITMAP
E79C
F79C
F79C
F79C
F79C
79EF
39EF
ENDCHAR
STARTCHAR guilsinglleft
ENCODING 8249
SWIDTH 540 0
DWIDTH 18 0
BBX 7 10 4 4
BITMAP
1E
38
78
E0
E0
E0
E0
78
38
1E
ENDCHAR
STARTCHAR guilsinglright
ENCODING 8250
SWIDTH 540 0
DWIDTH 18 0
BBX 7 10 4 4
BITMAP
E0
70
78
1E
1E
1E
1E
78
70
E0
ENDCHAR
STARTCHAR exclamdbl
ENCODING 8252
SWIDTH 540 0
DWIDTH 18 0
BBX 8 20 4 0
BITMAP
E7
E7
E7
E7
E7
E7
E7
E7
E7
E7
E7
E7
E7
00
00
00
E7
E7
E7
E7
ENDCHAR
STARTCHAR uni203E
ENCODING 8254
SWIDTH 540 0
DWIDTH 18 0
BBX 16 2 0 18
BITMAP
FFFF
FFFF
ENDCHAR
STARTCHAR fraction
ENCODING 8260
SWIDTH 540 0
DWIDTH 18 0
BBX 14 18 0 0
BITMAP
001C
001C
0070
0070
0070
00E0
01E0
0780
0780
0780
0780
0E00
1E00
3800
3800
3800
F000
E000
ENDCHAR
STARTCHAR dong
ENCODING 8363
SWIDTH 540 0
DWIDTH 18 0
BBX 14 21 2 -3
BITMAP
0070
0070
07FC
07FC
0070
3FF0
3FF0
E070
E070
E070
E070
E070
E070
E070
E070
E070
7FF0
3FF0
0000
0000
3FC0
ENDCHAR
STARTCHAR Euro
ENCODING 8364
SWIDTH 540 0
DWIDTH 18 0
BBX 12 18 2 0
BITMAP
07C0
07E0
1E70
1E70
3800
FC00
FE00
7800
3800
FE00
FE00
3800
3800
3800
1E70
1E70
07E0
07C0
ENDCHAR
STARTCHAR uni20AF
ENCODING 8367
SWIDTH 540 0
DWIDTH 18 0
BBX 14 18 0 0
BITMAP
0780
0780
3FE0
3FE0
F7F0
07BC
079C
079C
079C
079C
079C
079C
079C
3F9C
F79C
F79C
39F8
39F0
ENDCHAR
STARTCHAR afii61352
ENCODING 8470
SWIDTH 540 0
DWIDTH 18 0
BBX 16 18 0 0
BITMAP
FE00
FE00
FE00
FE00
F780
F780
F780
F79C
F79C
F7FF
F7FF
F7FF
F7FF
F79C
F780
F780
F7FF
E7FF
ENDCHAR
STARTCHAR trademark
ENCODING 8482
SWIDTH 540 0
DWIDTH 18 0
BBX 16 9 0 11
BITMAP
FFC7
FFEF
39FF
39FF
39EF
39EF
39EF
39EF
39EF
ENDCHAR
STARTCHAR Omega
ENCODING 8486
SWIDTH 540 0
DWIDTH 18 0
BBX 14 18 0 0
BITMAP
0FE0
1FE0
3870
3878
F01C
F01C
F01C
F01C
F01C
F01C
F01C
F01C
F03C
3870
3870
3870
F87C
F87C
ENDCHAR
STARTCHAR oneeighth
ENCODING 8539
SWIDTH 540 0
DWIDTH 18 0
BBX 14 18 0 0
BITMAP
E000
F000
F000
F000
F000
F000
F000
F1F0
F1F0
F79C
E79C
01F0
01F8
079C
079C
079C
01F8
01F0
ENDCHAR
STARTCHAR threeeighths
ENCODING 8540
SWIDTH 540 0
DWIDTH 18 0
BBX 16 18 0 0
BITMAP
F800
F800
0E00
1E00
F800
1E00
0E00
0E7C
0E7C
F9EF
F9EF
007C
00FE
01EF
01EF
01EF
007C
007C
ENDCHAR
STARTCHAR fiveeighths
ENCODING 8541
SWIDTH 540 0
DWIDTH 18 0
BBX 16 18 0 0
BITMAP
FE00
FE00
F000
F000
FE00
1E00
0E00
0E7C
0E7C
F9EF
F9EF
007C
00FE
01EF
01EF
01EF
007C
007C
ENDCHAR
STARTCHAR seveneighths
ENCODING 8542
SWIDTH 540 0
DWIDTH 18 0
BBX 16 18 0 0
BITMAP
FE00
FE00
0E00
0E00
0E00
3C00
3800
387C
387C
39EF
39EF
007C
00FE
01EF
01EF
01EF
007C
007C
ENDCHAR
STARTCHAR arrowleft
ENCODING 8592
SWIDTH 540 0
DWIDTH 18 0
BBX 12 14 2 2
BITMAP
0600
0600
1E00
3C00
3800
FFF0
FFF0
FFF0
FFF0
3800
3C00
1E00
0600
0600
ENDCHAR
STARTCHAR arrowup
ENCODING 8593
SWIDTH 540 0
DWIDTH 18 0
BBX 14 18 0 0
BITMAP
0780
0780
0FE0
1FE0
3FF0
F7BC
F79C
0780
0780
0780
0780
0780
0780
0780
0780
0780
0780
0780
ENDCHAR
STARTCHAR arrowright
ENCODING 8594
SWIDTH 540 0
DWIDTH 18 0
BBX 12 14 2 2
BITMAP
0600
0600
0780
03C0
01C0
FFF0
FFF0
FFF0
FFF0
01C0
03C0
0780
0600
0600
ENDCHAR
STARTCHAR arrowdown
ENCODING 8595
SWIDTH 540 0
DWIDTH 18 0
BBX 14 18 0 0
BITMAP
0780
0780
0780
0780
0780
0780
0780
0780
0780
0780
0780
F79C
F7BC
3FF0
1FE0
0FE0
0780
0780
ENDCHAR
STARTCHAR universal
ENCODING 8704
SWIDTH 540 0
DWIDTH 18 0
BBX 12 18 2 0
BITMAP
E070
E070
E070
E070
E070
79E0
39C0
3FC0
3FC0
39C0
39C0
1F80
1F80
1F80
1F80
1F80
0600
0600
ENDCHAR
STARTCHAR existential
ENCODING 8707
SWIDTH 540 0
DWIDTH 18 0
BBX 12 18 2 0
BITMAP
FFF0
FFF0
0070
0070
0070
0070
0070
1FF0
1FF0
0070
0070
0070
0070
0070
0070
0070
FFF0
FFF0
ENDCHAR
STARTCHAR minus
ENCODING 8722
SWIDTH 540 0
DWIDTH 18 0
BBX 14 2 0 7
BITMAP
FFFC
FFFC
ENDCHAR
STARTCHAR notequal
ENCODING 8800
SWIDTH 540 0
DWIDTH 18 0
BBX 12 11 2 2
BITMAP
01C0
01C0
FFF0
FFF0
0780
0780
1E00
1E00
FFF0
7800
3800
ENDCHAR
STARTCHAR lessequal
ENCODING 8804
SWIDTH 540 0
DWIDTH 18 0
BBX 10 20 2 -2
BITMAP
01C0
01C0
0780
0700
1E00
3C00
3800
E000
E000
3800
3800
1E00
0E00
0780
01C0
01C0
0000
0000
FFC0
FFC0
ENDCHAR
STARTCHAR greaterequal
ENCODING 8805
SWIDTH 540 0
DWIDTH 18 0
BBX 10 20 2 -2
BITMAP
E000
E000
3800
3800
1E00
0700
0780
01C0
01C0
0780
0780
1E00
1C00
3800
F000
E000
0000
0000
FFC0
FFC0
ENDCHAR
STARTCHAR uni23BA
ENCODING 9146
SWIDTH 540 0
DWIDTH 18 0
BBX 16 4 0 21
BITMAP
FFFF
FFFF
FFFF
FFFF
ENDCHAR
STARTCHAR uni23BB
ENCODING 9147
SWIDTH 540 0
DWIDTH 18 0
BBX 16 4 0 14
BITMAP
FFFF
FFFF
FFFF
FFFF
ENDCHAR
STARTCHAR uni23BC
ENCODING 9148
SWIDTH 540 0
DWIDTH 18 0
BBX 16 4 0 0
BITMAP
FFFF
FFFF
FFFF
FFFF
ENDCHAR
STARTCHAR uni23BD
ENCODING 9149
SWIDTH 540 0
DWIDTH 18 0
BBX 16 4 0 -7
BITMAP
FFFF
FFFF
FFFF
FFFF
ENDCHAR
STARTCHAR uni2409
ENCODING 9225
SWIDTH 540 0
DWIDTH 18 0
BBX 14 18 0 0
BITMAP
E780
F780
F780
F780
FF80
F780
F780
F780
F780
01FC
01FC
0070
0070
0070
0070
0070
0070
0070
ENDCHAR
STARTCHAR uni240A
ENCODING 9226
SWIDTH 540 0
DWIDTH 18 0
BBX 14 18 0 0
BITMAP
E000
F000
F000
F000
F000
F000
F000
FE00
FE00
01FC
01FC
01E0
01E0
01F0
01E0
01E0
01E0
01E0
ENDCHAR
STARTCHAR uni240B
ENCODING 9227
SWIDTH 540 0
DWIDTH 18 0
BBX 14 18 0 0
BITMAP
E780
F780
F780
F780
F780
7F00
3E00
1800
0800
01FC
01FC
0070
0070
0070
0070
0070
0070
0070
ENDCHAR
STARTCHAR uni240C
ENCODING 9228
SWIDTH 540 0
DWIDTH 18 0
BBX 14 18 0 0
BITMAP
FE00
FE00
F000
F000
F800
F000
F000
F000
F000
01FC
01FC
01E0
01E0
01F0
01E0
01E0
01E0
01E0
ENDCHAR
STARTCHAR uni240D
ENCODING 9229
SWIDTH 540 0
DWIDTH 18 0
BBX 14 18 0 0
BITMAP
3E00
3E00
F000
F000
F000
F000
F000
3E00
3E00
07F0
07F8
079C
07BC
07F0
07BC
079C
079C
079C
ENDCHAR
STARTCHAR uni2424
ENCODING 9252
SWIDTH 540 0
DWIDTH 18 0
BBX 14 20 0 0
BITMAP
FE00
FE00
F780
F780
F780
F780
F780
F780
F780
0000
0000
0780
0780
0780
0780
0780
0780
0780
07FC
07FC
ENDCHAR
STARTCHAR SF100000
ENCODING 9472
SWIDTH 540 0
DWIDTH 18 0
BBX 16 4 0 7
BITMAP
FFFF
FFFF
FFFF
FFFF
ENDCHAR
STARTCHAR SF110000
ENCODING 9474
SWIDTH 540 0
DWIDTH 18 0
BBX 4 32 7 -7
BITMAP
F0
F0
F0
F0
F0
F0
F0
F0
F0
F0
F0
F0
F0
F0
F0
F0
F0
F0
F0
F0
F0
F0
F0
F0
F0
F0
F0
F0
F0
F0
F0
F0
ENDCHAR
STARTCHAR SF010000
ENCODING 9484
SWIDTH 540 0
DWIDTH 18 0
BBX 9 18 7 -7
BITMAP
FF80
FF80
FF80
FF80
F000
F000
F000
F000
F000
F000
F000
F000
F000
F000
F000
F000
F000
F000
ENDCHAR
STARTCHAR SF030000
ENCODING 9488
SWIDTH 540 0
DWIDTH 18 0
BBX 11 18 0 -7
BITMAP
FFE0
FFE0
FFE0
FFE0
01E0
01E0
01E0
01E0
01E0
01E0
01E0
01E0
01E0
01E0
01E0
01E0
01E0
01E0
ENDCHAR
STARTCHAR SF020000
ENCODING 9492
SWIDTH 540 0
DWIDTH 18 0
BBX 9 18 7 7
BITMAP
F000
F000
F000
F000
F000
F000
F000
F000
F000
F000
F000
F000
F000
F000
FF80
FF80
FF80
FF80
ENDCHAR
STARTCHAR SF040000
ENCODING 9496
SWIDTH 540 0
DWIDTH 18 0
BBX 11 18 0 7
BITMAP
01E0
01E0
01E0
01E0
01E0
01E0
01E0
01E0
01E0
01E0
01E0
01E0
01E0
01E0
FFE0
FFE0
FFE0
FFE0
ENDCHAR
STARTCHAR SF080000
ENCODING 9500
SWIDTH 540 0
DWIDTH 18 0
BBX 9 32 7 -7
BITMAP
F000
F000
F000
F000
F000
F000
F000
F000
F000
F000
F000
F000
F000
F000
FF80
FF80
FF80
FF80
F000
F000
F000
F000
F000
F000
F000
F000
F000
F000
F000
F000
F000
F000
ENDCHAR
STARTCHAR SF090000
ENCODING 9508
SWIDTH 540 0
DWIDTH 18 0
BBX 11 32 0 -7
BITMAP
01E0
01E0
01E0
01E0
01E0
01E0
01E0
01E0
01E0
01E0
01E0
01E0
01E0
01E0
FFE0
FFE0
FFE0
FFE0
01E0
01E0
01E0
01E0
01E0
01E0
01E0
01E0
01E0
01E0
01E0
01E0
01E0
01E0
ENDCHAR
STARTCHAR SF060000
ENCODING 9516
SWIDTH 540 0
DWIDTH 18 0
BBX 16 18 0 -7
BITMAP
FFFF
FFFF
FFFF
FFFF
01E0
01E0
01E0
01E0
01E0
01E0
01E0
01E0
01E0
01E0
01E0
01E0
01E0
01E0
ENDCHAR
STARTCHAR SF070000
ENCODING 9524
SWIDTH 540 0
DWIDTH 18 0
BBX 16 18 0 7
BITMAP
01E0
01E0
01E0
01E0
01E0
01E0
01E0
01E0
01E0
01E0
01E0
01E0
01E0
01E0
FFFF
FFFF
FFFF
FFFF
ENDCHAR
STARTCHAR SF050000
ENCODING 9532
SWIDTH 540 0
DWIDTH 18 0
BBX 16 32 0 -7
BITMAP
01E0
01E0
01E0
01E0
01E0
01E0
01E0
01E0
01E0
01E0
01E0
01E0
01E0
01E0
FFFF
FFFF
FFFF
FFFF
01E0
01E0
01E0
01E0
01E0
01E0
01E0
01E0
01E0
01E0
01E0
01E0
01E0
01E0
ENDCHAR
STARTCHAR uni256D
ENCODING 9581
SWIDTH 540 0
DWIDTH 18 0
BBX 9 18 7 -7
BITMAP
0F80
0F80
3F80
3F80
F800
F800
F000
F000
F000
F000
F000
F000
F000
F000
F000
F000
F000
F000
ENDCHAR
STARTCHAR uni256E
ENCODING 9582
SWIDTH 540 0
DWIDTH 18 0
BBX 11 18 0 -7
BITMAP
FE00
FE00
FF80
FF80
07E0
03E0
01E0
01E0
01E0
01E0
01E0
01E0
01E0
01E0
01E0
01E0
01E0
01E0
ENDCHAR
STARTCHAR uni256F
ENCODING 9583
SWIDTH 540 0
DWIDTH 18 0
BBX 11 18 0 7
BITMAP
01E0
01E0
01E0
01E0
01E0
01E0
01E0
01E0
01E0
01E0
01E0
01E0
03E0
07E0
FF80
FF80
FE00
FE00
ENDCHAR
STARTCHAR uni2570
ENCODING 9584
SWIDTH 540 0
DWIDTH 18 0
BBX 9 18 7 7
BITMAP
F000
F000
F000
F000
F000
F000
F000
F000
F000
F000
F000
F000
F800
F800
3F80
3F80
0F80
0F80
ENDCHAR
STARTCHAR shade
ENCODING 9618
SWIDTH 540 0
DWIDTH 18 0
BBX 16 32 0 -7
BITMAP
C993
C993
366C
366C
C993
366C
366C
C993
C993
366C
366C
C993
366C
366C
C993
C993
366C
366C
C993
C993
366C
C993
C993
366C
366C
C993
C993
366C
C993
C993
366C
366C
ENDCHAR
STARTCHAR uni25AE
ENCODING 9646
SWIDTH 540 0
DWIDTH 18 0
BBX 10 16 2 0
BITMAP
FFC0
FFC0
FFC0
FFC0
FFC0
FFC0
FFC0
FFC0
FFC0
FFC0
FFC0
FFC0
FFC0
FFC0
FFC0
FFC0
ENDCHAR
STARTCHAR uni25C6
ENCODING 9670
SWIDTH 540 0
DWIDTH 18 0
BBX 16 16 0 0
BITMAP
0180
0180
07E0
0FF0
0FF0
3FFC
3FFC
FFFF
FFFF
3FFC
3FFC
0FF0
07E0
07E0
0180
0180
ENDCHAR
STARTCHAR musicalnote
ENCODING 9834
SWIDTH 540 0
DWIDTH 18 0
BBX 14 18 0 0
BITMAP
07E0
07E0
07F0
07F8
079C
079C
079C
0780
0780
0780
0780
3F80
7F80
FF80
FF80
FF80
3E00
3E00
ENDCHAR
STARTCHAR uniFFFD
ENCODING 65533
SWIDTH 540 0
DWIDTH 18 0
BBX 14 18 0 0
BITMAP
3FF0
3FF8
F01C
E01C
C78C
FF8C
FF8C
FE1C
FE1C
F87C
F87C
F87C
FCFC
FFFC
FC7C
F87C
3FF8
3FF0
ENDCHAR
ENDFONT
